<svg id="logo-l3a" xmlns="http://www.w3.org/2000/svg" viewBox="0 0 276.78 276.78"><title>logo</title><g id="logo"><path class="st0" d="M138.39,0A138.39,138.39,0,1,0,276.78,138.39,138.39,138.39,0,0,0,138.39,0ZM65.09,189.81V82a3.27,3.27,0,0,1,3.27-3.27h1A3.27,3.27,0,0,1,72.62,82V186.54h29.11a3.27,3.27,0,0,1,3.27,3.27v.63a3.27,3.27,0,0,1-3.27,3.27H68.36a3.27,3.27,0,0,1-3.27-3.27Zm76.61-8.74c-5.07,9.63-13.35,17.68-23.92,23.29a75.43,75.43,0,0,1-35.26,8.46h0a83.72,83.72,0,0,1-14.46-1.27,3.58,3.58,0,1,1,1.24-7.05c14.28,2.51,28.31,1,40.58-4.26,11.38-4.92,20.44-12.92,25.49-22.5,10.66-20.24,6-35.23,0-47.23-6.48-13-22.52-25.31-22.69-25.42a3.63,3.63,0,0,1-1.4-2.85c0-8.68,7-22.82,11.53-31.11H68.67a3.58,3.58,0,1,1,0-7.16H129A3.58,3.58,0,0,1,132,69.39c-3.42,5.65-12.42,22.11-13.5,31.19,4.27,3.48,17.18,14.61,23.22,26.71C148.15,140.12,154,157.83,141.7,181.07Zm75.41,14.65-1.62.42a3.32,3.32,0,0,1-4-2.47l-8-31.12a3.26,3.26,0,0,1-.93.19H171.73l-8,31.08a3.32,3.32,0,0,1-4,2.46l-1.62-.41a3.33,3.33,0,0,1-2.32-4.1L183.49,84c.63-2.26,1.64-3.56,4-3.56,3.29,0,3.9,2.23,3.95,2.34a8.88,8.88,0,0,1,.32,1.13l27.68,107.76A3.33,3.33,0,0,1,217.12,195.72Z"/><path class="st0" d="M140.54,127.89c-6.07-12.14-19.25-23.35-23.15-26.5a.69.69,0,0,1-.25-.59c.92-9.24,10.22-26.3,13.73-32.1A2.24,2.24,0,0,0,129,65.3H68.67a2.24,2.24,0,0,0,0,4.48h55.24a.67.67,0,0,1,.58.33.65.65,0,0,1,0,.66c-10.36,18.63-11.91,27.7-11.91,31.45a2.24,2.24,0,0,0,.88,1.77c.16.13,16.45,12.65,23.07,25.89,6.16,12.31,11,27.69,0,48.46-5.19,9.86-14.48,18.06-26.14,23.1-12.5,5.41-26.8,6.91-41.34,4.35a2.38,2.38,0,0,0-.39,0,2.24,2.24,0,0,0-.39,4.44,81.8,81.8,0,0,0,14.23,1.25h0a74.1,74.1,0,0,0,34.63-8.29c10.33-5.48,18.41-13.35,23.36-22.74C152.47,157.74,146.81,140.43,140.54,127.89Z"/><polygon class="st0" points="187.64 100.81 173.39 156.28 201.89 156.28 187.64 100.81"/></g></svg>
