<?xml version="1.0" encoding="utf-8"?>
<!-- Generator: Adobe Illustrator 26.2.1, SVG Export Plug-In . SVG Version: 6.00 Build 0)  -->
<svg version="1.1" id="a" xmlns="http://www.w3.org/2000/svg" xmlns:xlink="http://www.w3.org/1999/xlink" x="0px" y="0px"
	 viewBox="0 0 174 174" style="enable-background:new 0 0 174 174;" xml:space="preserve">
<path d="M122.9,88l-0.1,0.1c0.1-0.1,0.2-0.1,0.3-0.2L122.9,88L122.9,88z M120.1,74.8c0.2-0.1,0.4-0.1,0.6,0.1
	c0.1,0.2,0.1,0.4-0.1,0.6c-0.6,0.4-0.9,1-1,1.5c0,0.2-0.1,0.4,0,0.6c0,0.2,0.1,0.4,0.2,0.5c0.2,0.3,0.6,0.5,1,0.6
	c0.2,0,0.3,0.2,0.3,0.5c0,0.2-0.2,0.3-0.5,0.3c-0.7-0.1-1.2-0.5-1.5-0.9c-0.2-0.2-0.3-0.5-0.4-0.8c-0.1-0.3-0.1-0.6,0-0.9
	C118.9,76.1,119.3,75.4,120.1,74.8 M112.1,66.1c-0.1-0.3-0.2-0.7-0.2-1l0,0c0-0.5,0.1-0.9,0.3-1.4c-1.1,0.4-2.1,0.9-3,1.4
	c0.6,0.2,1.2,0.4,1.9,0.6C111.4,65.9,111.8,66,112.1,66.1 M113.5,66.5L113.5,66.5L113.5,66.5L113.5,66.5l0.2,0.1
	c0.1-0.1,0.1-0.1,0.2-0.2c0.1-0.1,0.2-0.3,0.3-0.4c2-3.7-1.5-3.5-1.5-0.9l0,0c0,0.3,0.1,0.5,0.1,0.8c0,0,0,0.1,0.1,0.1
	c0.1,0.2,0.2,0.3,0.3,0.5L113.5,66.5L113.5,66.5z M114.6,62.2L114.6,62.2c0.2,0,0.4,0,0.5,0.2c0.5,1.4,0.4,2.9-0.1,3.9
	c-0.1,0.2-0.2,0.4-0.4,0.6s-0.3,0.3-0.5,0.4c-0.1,0.1-0.2,0.1-0.4,0.1c-1-0.3-1.9-0.6-2.8-0.9c-0.9-0.3-1.8-0.6-2.6-0.9
	c-0.1,0-0.2-0.1-0.2-0.2c-0.1-0.2-0.1-0.4,0.1-0.5c1.4-0.8,3-1.6,4.6-2.2c0.3-0.1,0.6-0.2,0.9-0.3C114,62.3,114.3,62.2,114.6,62.2
	L114.6,62.2L114.6,62.2z M104.9,64.6c-0.2,0.2-0.4,0.2-0.6,0c-0.2-0.2-0.2-0.4,0-0.6c1.6-1.7,3.3-3,5.2-4c1.9-1,4-1.7,6.2-2.2
	c0.2,0,0.4,0.1,0.5,0.3c0,0.2-0.1,0.4-0.3,0.5c-2.2,0.5-4.2,1.2-6,2.1C108,61.7,106.4,63,104.9,64.6 M95.8,70.6
	c-1.6,0.7-3.6,1-5.7,1.3c-3.1,0.5-6.6,1-9.5,3.1c-2.6,1.9-4.4,4.8-6.2,7.8c-0.8,1.3-1.6,2.6-2.5,3.9l0,0c-0.1,0.1-0.2,0.3-0.3,0.4
	c5.6-0.3,6.7-2.2,7.9-4.2c0.8-1.2,1.6-2.6,3.2-3.7c1.6-1.1,3.1-1.2,4.8-1.3c1.9-0.1,4-0.3,6.4-2h0l0,0l0,0
	C95.5,74.7,95.7,72.1,95.8,70.6 M81.7,68.5C81.7,68.5,81.7,68.6,81.7,68.5c2.2-0.7,4.5-1.2,6.8-1.6c3.5-0.7,7-1.4,9.8-3.3
	c0.1-0.1,0.2-0.2,0.4-0.3c0-0.1,0.1-0.1,0.2-0.1c1.5-1.2,2.5-3,3.1-5c0.6-1.7,1-3.5,1.2-5c-0.3,0.2-0.6,0.5-0.9,0.7
	c-0.2,0.2-0.4,0.3-0.5,0.4c-1.3,1-2,2-2.7,2.9c-0.6,0.8-1.2,1.7-2.3,2.6c-1.9,1.7-4.1,2.3-6.3,3C87.5,63.6,84.3,64.6,81.7,68.5
	 M86.5,44.6c1.7-1.9,3.4-3.8,5.1-5.7c1.4-1.6,2.9-3.1,4.4-4.6c-2.7-0.6-4.4-0.7-5.9-0.5c-0.8,0.2-0.9,1.3-1.1,2.5
	c-0.1,0.8-0.2,1.7-0.5,2.5c-0.2,0.6-0.5,1.1-0.8,1.6l0,0C87.1,41.6,86.5,42.6,86.5,44.6 M80.1,52.4c1.7-2.2,3.5-4.3,5.3-6.5v0
	c-0.2-3.2,0.5-4.5,1.3-5.9l0,0c0.3-0.5,0.5-0.9,0.8-1.5c0.2-0.6,0.3-1.4,0.4-2.2c0.1-0.8,0.2-1.5,0.4-2.1l-0.2,0
	c-0.4,0.1-0.8,0.2-1.3,0.2l0,0c0,0,0,0-0.1,0h0c-0.8,0.1-1.1,1.1-1.3,2.1c-0.2,0.5-0.3,1-0.5,1.6l0,0c-0.3,0.6-0.6,1.2-0.9,1.7
	c-0.5,0.9-1.1,1.8-1.2,2.8c-0.2,1.1-0.3,2.1-0.5,3.2c0,0.3-0.1,0.6-0.2,1.3c-0.1,1-0.6,1.8-1,2.7C80.7,50.6,80.2,51.4,80.1,52.4
	 M74.4,59.8c1.5-2,3-4.1,4.6-6.1c0-0.1-0.1-0.1-0.1-0.2c-0.1-1.7,0.5-3,1.2-4.2c0.4-0.8,0.8-1.5,0.9-2.3c0-0.2,0.1-0.8,0.2-1.3
	c0.1-1.1,0.3-2.1,0.5-3.3c0.2-1.2,0.8-2.2,1.4-3.2c0.3-0.5,0.6-1.1,0.8-1.6l0,0c0.2-0.5,0.3-1,0.5-1.4c0.2-0.6,0.3-1.1,0.6-1.6
	c-1.1,0.1-2.2,0.2-3.2,0.3c-1.1,0.2-2.3,0.3-3.4,0.6c-0.7,0.1-1.4,0.3-2.1,0.5c0.1,0.2,0.2,0.4,0.2,0.6c0.2,0.5,0.3,0.9,0.5,1.5
	c0.8,2.7,1.2,6.4,0.1,10c-0.3,1-0.7,1.9-1.1,2.8C74.8,53.6,73.7,56.3,74.4,59.8 M70.1,65.9c1.1-1.6,2.2-3.2,3.4-4.9
	c-1.2-4.3,0.1-7.5,1.3-10.5c0.4-0.9,0.7-1.8,1-2.7c1.1-3.4,0.7-6.9-0.1-9.4c-0.1-0.5-0.3-1-0.4-1.4c-0.1-0.2-0.2-0.5-0.3-0.7
	c-0.7,0.2-1.5,0.4-2.2,0.7c-0.5,0.2-0.3,1.2-0.2,2.8c0.3,2.8,0.8,6.9-1.9,11.5l0,0l-0.2,0.3C69,54.5,67,57.9,70.1,65.9 M64.2,74.9
	c1.6-2.7,3.4-5.3,5.1-7.9c0,0-0.1-0.1-0.1-0.1C65.7,58,67.9,54.2,69.8,51l0.2-0.3l0,0c2.5-4.3,2-8.2,1.7-10.8
	c-0.1-0.9-0.2-1.7-0.1-2.4c-0.5,0.2-0.9,0.3-1.4,0.5l0,0c-1.4,0.6-1.2,3.1-1,5.4c0.1,1.3,0.2,2.6,0,3.6c-0.3,1.4-0.7,2.5-1.1,3.5
	c-0.4,1-0.8,2-1.1,3.3c-0.1,0.3-0.3,0.5-0.7,0.4s-0.5-0.3-0.4-0.7c0.3-1.4,0.7-2.5,1.1-3.5c0.4-1,0.8-2,1.1-3.3
	c0.2-0.8,0.1-2-0.1-3.3c-0.1-1.6-0.3-3.3,0.1-4.6c-2,0.9-3.9,2-5.6,3.3c-0.3,0.2-0.5,0.4-0.8,0.6c-2.4,2.8-0.5,7.2,1.4,11.5
	c1,2.3,2,4.6,2.5,6.8c0.1,0.3-0.1,0.6-0.4,0.7s-0.6-0.1-0.7-0.4c-0.4-2-1.4-4.3-2.4-6.6c-1.6-3.7-3.2-7.4-2.5-10.4
	c-0.4,0.4-0.8,0.7-1.2,1.1c-0.8,0.7-1.6,1.5-2.3,2.2l0,0h0c-0.2,0.2-0.4,0.5-0.5,0.8c-0.1,0.3-0.2,0.7-0.3,1.1
	c-0.4,2,0.3,4.7,1.1,6.6l0,0c0.7,1.6,2.1,3,3.4,4.4c1.6,1.7,3.2,3.3,3.8,5.3c0.5,1.6,0.4,3.2,0.2,4.8C63.8,72,63.7,73.5,64.2,74.9
	 M62.8,77.2c0.2-0.4,0.5-0.8,0.7-1.2c-0.9-1.8-0.8-3.7-0.7-5.6c0.1-1.5,0.2-3-0.2-4.4c-0.5-1.7-2-3.2-3.6-4.8
	c-1.4-1.5-2.9-2.9-3.7-4.7l0,0c-0.8-1.9-1.5-4.5-1.3-6.7c-1.8,2.2-2.9,4.4-3.4,6.5c-0.4,1.5-0.4,3-0.2,4.5c0,0.1,0,0.1,0,0.2
	c0.3,1.8,1.1,3.4,2.3,5.1c0.3,0.5,0.7,0.9,1.1,1.4c1,1.2,2.2,2.1,3.3,3c1.8,1.5,3.6,3,4.9,5.3C62.4,76.3,62.6,76.8,62.8,77.2
	 M85,61.2c1.3-0.9,2.6-1.8,4-2.7c1.4-0.9,2.8-1.8,4.1-2.8c1.2-0.9,1.5-1.3,1.9-1.8c0.4-0.5,0.9-1.2,2.3-2.5l0,0c0,0,0,0,0,0
	c1.4-1.3,3.5-2.5,5.6-3.6c2.3-1.2,4.6-2.5,6-4c0.8-0.9,1.5-1.6,1.9-2.4c0.4-0.8,0.8-1.6,1-2.8c0,0-0.1-0.1-0.1-0.1
	c-0.3-0.3-0.8-0.5-1.3-0.7c-0.3,1.6-0.9,2.8-1.6,3.9c-0.8,1.2-1.8,2.3-2.9,3.4c-1.5,1.5-3.6,2.6-5.7,3.7c-2.9,1.5-5.8,3-6.9,5.4
	c-0.1,0.3-0.4,0.4-0.7,0.3c-0.3-0.1-0.4-0.5-0.3-0.7c1.2-2.7,4.3-4.3,7.3-5.9c2.1-1.1,4.1-2.1,5.4-3.5c1.1-1.1,2.1-2.1,2.8-3.2
	c0.7-1.1,1.2-2.3,1.5-3.9c-0.6-0.8-1.3-1.2-2.1-1.3c-0.1,0-0.2,0-0.3,0c0,0.2,0,0.4,0,0.7c-0.1,0.5-0.3,1.1-0.6,1.8
	c-0.9,1.9-2.6,4.2-3.8,5.1c-0.2,0.2-0.6,0.2-0.8-0.1s-0.2-0.6,0.1-0.8c1-0.8,2.6-2.9,3.5-4.7c0.3-0.6,0.5-1.1,0.5-1.5
	c0-0.3,0-0.4,0-0.5c0,0-0.1,0-0.1,0c-0.3,0-0.7,0.1-1,0.2c-0.1,0.2,0,0.4,0,0.7c0,0.6,0.1,1.1-0.4,1.6c-5,5.5-9.8,11-14.5,16.7
	C88.3,56.9,86.6,59,85,61.2 M78.4,70c0.9-0.5,1.8-0.9,2.7-1.3c-0.1,0-0.2,0-0.3-0.1c-0.3-0.2-0.3-0.5-0.2-0.8
	c2.8-4.3,6.1-5.3,9.4-6.3c2.1-0.6,4.2-1.3,5.9-2.8c0.9-0.8,1.5-1.6,2.1-2.4c0.7-1,1.4-2,2.9-3.1c0.2-0.2,0.4-0.3,0.5-0.4
	c2-1.5,4.1-3.1,4.3-5.6c-0.8,0.5-1.7,1-2.6,1.4c-2,1.1-4,2.2-5.4,3.5h0v0h0c-1.3,1.2-1.8,1.9-2.2,2.4c-0.5,0.6-0.8,1-2.1,2
	c-1.3,1-2.7,1.9-4.2,2.8c-3.2,2-6.4,4.1-8.6,7.1C80.1,67.7,79.2,68.8,78.4,70 M67.1,88.7C67.1,88.7,67.1,88.7,67.1,88.7
	c0.9-0.4,1.8-0.9,2.5-1.5c0,0,0,0,0.1,0c0.4-0.4,0.8-0.8,1.1-1.2l0,0c0.9-1.2,1.7-2.5,2.5-3.8c1.9-3.1,3.7-6.1,6.6-8.1
	c3.2-2.3,6.8-2.8,10-3.3c2.4-0.3,4.6-0.7,6.1-1.6c0.7-0.4,1.2-1.2,1.7-2.1c0.3-0.7,0.5-1.4,0.7-2.2c-2.9,1.8-6.2,2.4-9.6,3.1
	c-4.1,0.8-8.3,1.7-11.9,4.6c-0.1,0.1-0.1,0.1-0.2,0.2c-0.4,0.3-0.7,0.6-1.1,1c-2,2-2.8,4-3.4,5.9c-0.1,0.2-0.3,0.9-0.5,1.1
	c-0.5,0.9-1.7,3-2.6,4.7c-0.6,1.1-1.1,2-1.3,2.4l0,0C67.4,88.1,67.3,88.4,67.1,88.7L67.1,88.7L67.1,88.7z M83.1,112.7
	c0.4-0.3,0.9-0.8,1.2-1.3c0.1-0.2,0.2-0.3,0.3-0.5c0.1-0.2,0.1-0.3,0.2-0.4l0,0c0.2-0.8-0.1-1.7-0.4-2.6c-0.1-0.2-0.2-0.4-0.2-0.6
	C84.5,109.7,83.8,111.2,83.1,112.7 M84.8,85.5L84.8,85.5c0.6-0.2,1.1-0.4,1.6-0.6c3.3-1.4,6.1-3.6,6.7-6.9c0-0.2,0.1-0.4,0.1-0.6
	c-2.2,1.2-4,1.3-5.7,1.4c-1.5,0.1-2.9,0.2-4.2,1.1c-1.5,1-2.2,2.2-2.9,3.4c-0.8,1.4-1.6,2.7-3.4,3.6c2.2-0.1,4.9-0.5,7.5-1.3
	C84.5,85.6,84.6,85.5,84.8,85.5L84.8,85.5L84.8,85.5z M71.1,88.1c-0.3,0-0.6,0-0.9,0c-0.7,0.6-1.5,1-2.3,1.4
	c-1.1,7.6,0.7,9.6,2.2,11.3h0c0.9,1,2.3,1.7,3.7,2.4c0,0,0.1,0,0.1,0c0.4,0.2,0.8,0.4,1.2,0.6c2.3,1,4.6,2.1,5.9,3.9
	c0.8-1.2,0.5-2.1-0.5-3.1c-0.8-0.7-1.8-1.4-3-2.2c-2.7-1.8-5.8-3.8-6.9-7l0,0c0,0,0,0,0,0c-0.1-0.3-0.2-0.7-0.3-1.1
	s-0.1-0.8-0.1-1.2C70.2,91.4,70.5,89.5,71.1,88.1 M81.9,87.4c-2.1,0.4-4.1,0.6-5.7,0.7h-0.1c-0.5,0.9-1.1,1.9-1.4,2.9
	c-0.4,1-0.5,2.1-0.3,3.1c0.6,2.9,2.7,4.3,4.8,5.6c1.9,1.2,3.7,2.4,4.5,4.6c0.1,0.4,0.2,0.7,0.3,1c0,0,0-0.1,0-0.1
	c0.1-1.9,0.9-3.3,1.5-4.5c1.1-2,1.9-3.5-1.8-6.5c-0.6-0.5-1.2-1-1.7-1.5c-0.5-0.6-0.9-1.1-1.1-1.7C80.5,89.8,81,88.5,81.9,87.4
	 M86.5,95.5c1.4,0.6,2.9,1.2,4.5,1.6c1.7,0.5,3.4,0.8,5.2,1.1c8.3,1.3,17.1,0.5,22.5-0.7c0.6-0.2,1.2-0.4,1.8-0.6h0
	c0.2-0.1,0.4-0.2,0.5-0.3c0.2-0.1,0.3-0.2,0.4-0.3c0.7-0.6,1-1.5,1-2.1v-0.1l0,0c0-1.1-0.8-2.2-1.4-3.1c-0.4-0.6-0.8-1.1-0.8-1.5
	l0,0v-0.6c0-0.1,0-0.1,0-0.2c0.1-0.4,0.4-0.8,0.8-1.1c0.3-0.3,0.7-0.5,1.1-0.7l0,0c0,0,0,0,0.1,0c0,0,0,0,0.1,0l0,0
	c0.1-0.1,0.1-0.1,0.1-0.2l0,0c0-0.1,0-0.1,0-0.2c0-0.1,0-0.2,0-0.2c-0.2-1-0.6-1-1.4-0.8c-0.2,0-0.5,0.1-0.7,0.1
	c-0.3,0-0.6-0.2-0.6-0.5c0-0.3,0.2-0.6,0.4-0.6c0.3-0.1,0.6-0.1,0.9-0.2c0.3-0.1,1.9-0.9,2-1.2l0,0c0.2-0.3-0.1-0.6-0.4-0.9
	c-0.4-0.4-0.8-0.9-0.8-1.6l0,0v0c0-0.2,0-0.3,0-0.5c0-0.2,0.1-0.3,0.2-0.5c0.4-0.6,1.2-1.1,2.1-1.3l0,0c0.5-0.1,0.9-0.2,1.3-0.4
	c0.3-0.1,0.6-0.3,0.8-0.5c0.6-1.1-0.1-2-0.8-2.8c-0.2-0.2-0.4-0.5-0.5-0.7l0,0c-0.3-0.4-0.6-0.8-0.9-1.3c-2.5-3.5-5.9-8.4-6.3-12.7
	c-0.4-4.9-2.5-8.9-4.7-13.1c-0.6-1.2-1.3-2.5-1.9-3.7c-0.4,0.5-0.8,0.9-1.3,1.4c-0.7,0.8-1.6,1.4-2.6,2.1c0.1,2.4-1.1,4-2.7,5.4
	c-0.3,1.9-0.7,4.2-1.5,6.5c-0.7,2.1-1.8,4-3.4,5.4c-0.2,1.3-0.5,2.5-0.9,3.6c-0.4,1-1,1.9-1.8,2.5V70c0,1.4,0,5-2.3,6.6h0l0,0
	c0,0-0.1,0.1-0.1,0.1c0,0.5-0.1,1-0.1,1.4c-0.7,3.7-3.8,6.2-7.4,7.7c-0.6,0.2-1.1,0.4-1.7,0.6c0,0,0,0-0.1,0h0
	c-0.1,0-0.2,0.1-0.2,0.1c-0.2,0.1-0.4,0.2-0.6,0.2c-0.3,0.1-0.5,0.3-0.7,0.5c-1.2,0.9-1.8,2.3-1.6,3.2c0.1,0.4,0.4,0.8,0.8,1.2
	c0.4,0.5,1,1,1.6,1.4C85.3,94.1,86,94.8,86.5,95.5 M86.3,130.3c0.1,0,0.2,0,0.3,0h0c0.2,0,0.4,0,0.6,0s0.4,0,0.6,0.1
	c0.9,0.1,1.9,0.4,2.7,0.7l0,0c1.4,0.5,2.8,1.1,4.2,1.7c3.4,1.5,6.7,2.9,9.9,3.4c2.7,0.4,5.6,0.7,8.2,0.6c2.4-0.1,4.6-0.6,6.4-1.7
	c-1.8-2.6-5.2-4.6-7.7-6c-0.6-0.4-1.2-0.7-1.6-1c0,0-0.1,0-0.1-0.1h0c-0.2-0.1-0.3-0.3-0.4-0.5c-0.2-0.2-0.3-0.4-0.5-0.7
	c-0.8-1.3-1.5-3.4-1.9-6.1l0,0v0c-0.1-0.8-0.2-1.7-0.3-2.6c-0.1-0.9-0.1-1.8-0.1-2.7c-0.1-4.7,0.3-9.6,0.7-12.4
	c0.1-0.5,0.6-0.9,1-1.1c2-0.9,4-1.8,6.1-2.6c0.2-0.1,0.3-0.1,0.5-0.2c-5.3,0.7-12.1,1-18.7,0c-1.8-0.3-3.6-0.7-5.3-1.1
	c-1.2-0.3-2.5-0.8-3.7-1.2c0.7,1.6,0,2.9-0.8,4.4c-0.6,1.1-1.3,2.4-1.4,4.1c-0.1,0.8,0.2,1.6,0.5,2.4c0.4,1.1,0.8,2.1,0.4,3.2l0,0
	c-0.1,0.2-0.2,0.4-0.3,0.7c-0.1,0.2-0.2,0.4-0.4,0.7c-0.7,1-1.8,1.9-2.7,2.1c-0.3,0.8-0.5,1.8-0.5,2.8c0,1.7,1.1,3.1,2.2,4.6
	C86,124,87.8,126.4,86.3,130.3 M82.8,130.7c0.5,0,1.2-0.1,1.8-0.2c0.1,0,0.3-0.1,0.4-0.1c1.7-3.6-0.1-5.9-1.7-8.2
	c-0.6-0.8-1.1-1.5-1.6-2.3c0.1,1.8,0.6,3.1,1.1,4.3C83.6,126.4,84.2,128.1,82.8,130.7 M78.9,129.9c0.4,0.1,0.8,0.3,1.2,0.4
	c0.5,0.1,0.9,0.2,1.5,0.3c1.5-2.4,0.9-3.9,0.2-5.9c-0.4-1.2-0.9-2.5-1.1-4.3c-0.2,1.5-0.2,2.7-0.3,3.8c-0.1,1.7-0.1,3.1-0.7,4.5
	C79.5,129.2,79.2,129.5,78.9,129.9 M73,134c0.2-1.9,1.8-2.8,3.2-3.6c0.4-0.2,0.7-0.4,1.1-0.6c0.1-0.1,0.2-0.2,0.4-0.3
	c0.4-0.3,0.8-0.7,0.9-1.1c0.5-1.2,0.6-2.5,0.6-4.1c0.1-2.6,0.2-6,2.4-11l0,0c0.1-0.3,0.2-0.6,0.3-0.8c0.8-1.9,1.7-3.9,0.4-7.9
	c-0.6-1.9-2.3-2.9-4-4c-2.2-1.4-4.6-2.9-5.2-6.3c-0.2-1.2,0-2.4,0.4-3.6c0.3-0.9,0.7-1.7,1.2-2.5c-0.5,0-0.9-0.1-1.3-0.1
	C73.1,88,72.7,88,72.3,88c-0.7,1.2-1.1,3.2-1,5c0,0.4,0.1,0.7,0.1,1.1c0.1,0.3,0.1,0.6,0.2,0.9v0h0c1,2.9,3.9,4.8,6.4,6.4
	c1.2,0.8,2.4,1.6,3.2,2.3c1.6,1.5,2,3.1,0,5.2c-0.2,0.2-0.6,0.2-0.8,0c-0.1-0.1-0.1-0.1-0.1-0.2c-0.4-0.9-1.2-1.6-2.2-2.2
	c1.5,1.9,2.1,4.1,2.2,6.3c0,0.7,0,1.4-0.1,2.1s-0.2,1.3-0.4,1.9l0,0c-1.6,6.2-5.1,8.8-8.2,10.7c-0.2,0.4-0.2,0.7-0.3,1.1
	c-0.1,0.4-0.1,0.8-0.1,1.2C71.5,131.4,72.2,132.9,73,134 M62.5,103.4c0-0.1,0-0.1,0.1-0.2c0.3-1,0.5-2.2,0.5-3.6c0-0.1,0-0.2,0-0.4
	c0-0.6-0.1-1.2-0.2-1.9c-0.2,1.4-0.6,2.9-1.1,4.4c-0.3,1-0.6,2-0.8,3c0,0.1,0,0.2-0.1,0.3c-0.5,2.5-0.6,5,0.7,7.3
	c-1.3-2.9-0.6-4.9,0.3-7.1C62.1,104.6,62.4,104,62.5,103.4 M65.3,119.7c2.5-2.8,1.2-4.4-0.3-6.5c-1.1-1.5-2.4-3.1-2.8-5.4
	c-0.4,2.2,0,4.5,3.7,8.7c0.2,0.2,0.2,0.5,0.1,0.7c-0.2,0.3-0.5,0.3-0.8,0.2c-5.2-3.3-6.1-7-5.7-10.8c-3.6,4.8-0.7,7.5,1.8,9.7
	c1.3,1.2,2.5,2.3,2.8,3.6l0,0c0.1,0.3,0.1,0.6,0.1,0.9C64.6,120.5,65,120.1,65.3,119.7 M66.2,120.4c-0.2,0.2-0.4,0.4-0.7,0.7
	c-0.8,0.9-1.5,1.8-1.7,2.8l0,0.2c-0.1,0.6-0.3,1.3-0.4,1.9c-0.2,1.3-0.4,2.6-0.1,3.8c0.3-2.1,2.2-3.9,4.5-5.9
	c3.1-2.8,6.8-6,6.6-11.4c-0.1-4.2-2.4-5.9-5-7.9c-1.7-1.3-3.6-2.8-5.1-5c0,0.1,0,0.1,0,0.2c0.2,2.6,2,3.8,3.7,4.9
	c2.1,1.3,4.1,2.6,4.1,5.8c0.1,4.5-2.6,7-5,9.2C66.8,119.9,66.5,120.1,66.2,120.4 M63.6,103.8c-1.2,4.2,0.7,6.6,2.3,8.7
	c1.2,1.6,2.3,3,2.1,4.7c1.7-1.7,3.1-3.8,3-6.9c0-2.7-1.8-3.8-3.6-4.9c-1.3-0.8-2.6-1.6-3.4-3C63.8,102.9,63.7,103.4,63.6,103.8
	 M72.3,70.5c0.2-0.3,0.4-0.6,0.4-0.8c0-0.2,0-0.4-0.1-0.6c-0.1-0.2-0.2-0.3-0.4-0.5c-0.2-0.1-0.4-0.2-0.6-0.2c-0.2,0-0.4,0-0.5,0.1
	c-0.2,0.1-0.4,0.3-0.6,0.7L72.3,70.5L72.3,70.5z M72.6,70.7l1.5,1.1l0.2,0.1c0.1,0.1,0.2,0.1,0.3,0.1c0.1,0,0.2-0.1,0.3-0.2
	c0.1-0.2,0.2-0.4,0.2-0.6s0-0.4-0.1-0.6c-0.1-0.2-0.2-0.3-0.4-0.5c-0.2-0.2-0.4-0.2-0.7-0.3c-0.2,0-0.5,0-0.7,0.2
	C73.1,70.1,72.9,70.3,72.6,70.7 M74.6,63.4l1.9,1.4l0.1-0.1c0.2-0.3,0.3-0.6,0.2-0.8c-0.1-0.3-0.3-0.5-0.6-0.8l0.1-0.1l2.4,1.8
	l-0.1,0.1c-0.3-0.2-0.5-0.3-0.8-0.3c-0.2,0-0.4,0-0.6,0.1s-0.3,0.2-0.4,0.4l1.3,0.9c0.2,0.2,0.4,0.3,0.5,0.3c0.1,0,0.2,0,0.2,0
	s0.2-0.1,0.3-0.2l0.2-0.3c0.3-0.4,0.5-0.8,0.4-1.2c0-0.4-0.2-0.8-0.5-1.2l0.1-0.1l1.3,1.3l-2.9,4l-0.1-0.1l0.1-0.2
	c0.1-0.1,0.2-0.3,0.2-0.4c0-0.1,0-0.2-0.1-0.2c0-0.1-0.2-0.2-0.4-0.3l-3-2.2c-0.2-0.2-0.3-0.2-0.4-0.3c-0.1,0-0.2,0-0.3,0
	c-0.1,0-0.2,0.1-0.3,0.3l-0.1,0.2L73,65l2.8-3.8l1.4,1l-0.1,0.1c-0.4-0.2-0.7-0.3-0.9-0.2c-0.2,0-0.5,0.1-0.7,0.3
	c-0.1,0.1-0.3,0.3-0.6,0.7L74.6,63.4L74.6,63.4z M80.9,59.5l1.3,1c0.2,0.2,0.4,0.3,0.5,0.3s0.2,0,0.3,0c0.1,0,0.2-0.2,0.4-0.4
	l0.1,0.1l-1.7,2.3l-0.1-0.1c0.2-0.2,0.2-0.4,0.3-0.5c0-0.1,0-0.2,0-0.3c0-0.1-0.2-0.2-0.4-0.4l-3-2.2C78.2,59.1,78,59,77.9,59
	c-0.1,0-0.2,0-0.3,0c-0.1,0-0.2,0.2-0.4,0.4l-0.1-0.1l1.6-2.1c0.4-0.5,0.8-0.9,1-1.1c0.3-0.2,0.6-0.3,0.9-0.3c0.3,0,0.6,0.1,0.9,0.3
	c0.3,0.2,0.5,0.6,0.6,1c0,0.3,0,0.5-0.2,0.9l2.4,0.1c0.3,0,0.5,0,0.6,0c0.1,0,0.3-0.1,0.3-0.2l0.1,0.1l-1.1,1.4l-3.2-0.1L80.9,59.5
	L80.9,59.5z M78.7,57.8l2,1.5l0.1-0.2c0.2-0.3,0.4-0.6,0.4-0.8c0.1-0.2,0.1-0.4,0-0.6c-0.1-0.2-0.2-0.4-0.5-0.6
	c-0.3-0.3-0.7-0.4-0.9-0.3c-0.3,0-0.6,0.2-0.8,0.6L78.7,57.8L78.7,57.8z M84.6,49.6l1.2,1l-0.1,0.1c-0.3-0.2-0.6-0.2-0.8-0.2
	c-0.2,0-0.4,0-0.6,0.1c-0.1,0-0.2,0.2-0.4,0.4l-0.3,0.3l3.4,2.7c0.2,0.2,0.4,0.3,0.5,0.3s0.2,0,0.3,0c0.1,0,0.2-0.1,0.3-0.2l0.1-0.2
	l0.1,0.1l-1.8,2.3l-0.1-0.1l0.1-0.2c0.1-0.1,0.2-0.2,0.2-0.4c0-0.1,0-0.2-0.1-0.3c0-0.1-0.2-0.2-0.4-0.4l-3.4-2.7l-0.2,0.3
	c-0.2,0.3-0.3,0.6-0.3,0.8c0,0.3,0.2,0.7,0.5,1l-0.1,0.1l-1.2-1L84.6,49.6L84.6,49.6z M90.3,49.1L89,50.6l0.3,0.5
	c0.1,0.2,0.2,0.3,0.3,0.4c0.1,0.1,0.2,0.1,0.4,0.1c0.1,0,0.2-0.2,0.4-0.4l0.1,0.1l-1.2,1.5l-0.1-0.1c0.1-0.2,0.2-0.4,0.1-0.5
	c0-0.2-0.1-0.5-0.3-0.9l-2.2-4.5l0.1-0.1l4.9,1.4c0.5,0.1,0.8,0.2,0.9,0.2c0.1,0,0.2-0.1,0.4-0.2l0.1,0.1l-1.8,2.1l-0.1-0.1l0.1-0.1
	c0.1-0.2,0.2-0.3,0.2-0.4c0-0.1,0-0.1-0.1-0.2c0,0-0.1-0.1-0.1-0.1c0,0-0.1,0-0.3-0.1L90.3,49.1L90.3,49.1z M90,49l-2.1-0.6l0.9,1.9
	C88.9,50.3,90,49,90,49z M93.9,47.2l-0.1-0.1l0.1-0.2c0.1-0.1,0.2-0.2,0.2-0.3c0-0.1,0-0.2,0-0.3c0-0.1-0.2-0.2-0.4-0.4l-2.9-2.4
	c-0.2-0.2-0.4-0.3-0.4-0.3c-0.1,0-0.2,0-0.3,0s-0.2,0.1-0.3,0.2l-0.1,0.2l-0.1-0.1l1.6-2c0.4-0.5,0.9-0.9,1.3-1.1
	c0.5-0.2,1-0.3,1.5-0.2c0.5,0.1,1,0.3,1.4,0.7c0.3,0.3,0.6,0.5,0.7,0.9c0.2,0.3,0.3,0.6,0.3,0.9s0,0.6-0.1,0.9s-0.2,0.6-0.4,1
	c-0.1,0.2-0.2,0.4-0.5,0.7L93.9,47.2L93.9,47.2z M91.2,42.1l3.4,2.8c0.2,0.2,0.3,0.2,0.3,0.2c0.1,0,0.1,0,0.2,0
	c0.1,0,0.2-0.1,0.3-0.2c0.3-0.4,0.4-0.7,0.3-1.1c-0.1-0.5-0.5-1.1-1.2-1.7c-0.6-0.5-1.1-0.8-1.6-0.9c-0.4-0.1-0.7,0-1,0.1
	C91.7,41.6,91.5,41.8,91.2,42.1 M68.6,78.2l1.6,1.3l-2.8,4.2l-0.1-0.1l0.1-0.2c0.1-0.1,0.1-0.3,0.1-0.4c0-0.1,0-0.2-0.1-0.2
	c0-0.1-0.2-0.2-0.4-0.3l-3.1-2c-0.2-0.2-0.4-0.2-0.5-0.3c-0.1,0-0.2,0-0.3,0.1c-0.1,0.1-0.2,0.1-0.3,0.3l-0.1,0.2l-0.1-0.1l1.7-2.5
	l0.1,0.1l-0.1,0.2c-0.1,0.1-0.1,0.3-0.1,0.4c0,0.1,0,0.2,0.1,0.2c0,0.1,0.2,0.2,0.4,0.3l3,2c0.2,0.2,0.4,0.2,0.5,0.3
	c0.1,0,0.2,0,0.3-0.1c0.1,0,0.2-0.2,0.3-0.4l0.3-0.4c0.2-0.2,0.3-0.5,0.3-0.7s0-0.5-0.1-0.7c-0.1-0.2-0.3-0.6-0.6-0.9L68.6,78.2
	L68.6,78.2z M57.9,85.7c0-0.1,0-0.2,0.1-0.3c1.3-2.3,2.6-4.7,4-7.1c-0.2-0.6-0.5-1.3-0.9-2c-1.2-2.2-2.8-3.6-4.6-5
	c-1.2-0.9-2.3-1.9-3.4-3.1c-0.4-0.5-0.8-1-1.2-1.4c-0.9-1.3-1.6-2.6-2.1-4c-2.1,7.9,3.7,13.4,6.5,16.1c0.3,0.2,0.5,0.5,0.7,0.7
	c0.2,0.2,0.2,0.6,0,0.8c-0.2,0.2-0.6,0.2-0.8,0c-0.2-0.2-0.4-0.4-0.7-0.7c-2.1-2.1-6-5.7-7-10.9c-0.2,4.6,1.2,9,3.6,12.7
	c0.7,1.1,1.6,2.1,2.5,3c0.8,0.8,1.6,1.5,2.4,2.1c0.1-0.2,0.2-0.3,0.4-0.5C57.7,86,57.8,85.8,57.9,85.7 M61.4,89L61.4,89
	C61.4,89,61.5,88.9,61.4,89c0.1-0.1,0.1-0.1,0.1-0.2c0.1-0.2,0.1-0.4,0.1-0.6l0,0c0-0.5-0.2-1-0.6-1.4c-0.3-0.3-0.8-0.6-1.4-0.6l0,0
	c-0.5,0-1,0.2-1.4,0.6c-0.3,0.3-0.6,0.8-0.6,1.4l0,0c0,0.2,0,0.5,0.1,0.7c0,0,0,0.1,0,0.1c0.1,0.1,0.1,0.3,0.2,0.4
	c0.9,0.1,2,0.1,2.7-0.2c0.2-0.1,0.3-0.1,0.4-0.2C61.4,89.1,61.4,89,61.4,89 M54.6,92.2c-0.3-0.1-0.6-0.3-0.9-0.4l0,0
	c-0.7-0.3-1.4-0.6-2-0.7c-0.5-0.1-0.8,0-1,0.1c0,0.1-0.1,0.1-0.1,0.2c0,0.1,0,0.2,0.1,0.3c0.2,0.4,0.8,0.8,1.7,0.9l0,0
	c0.1,0,0.3,0,0.4,0l0,0c0.1,0,0.3,0,0.4,0C53.7,92.5,54.2,92.4,54.6,92.2 M59.9,99c0.4,3-1.4,4.9-3.3,6.8c-1.2,1.2-2.4,2.5-2.9,4
	c-0.5,1.8-0.5,3.8-0.4,5.9c0.1,2.1,0.1,4.3-0.4,6.4l0.3-0.3l0,0c0.2-0.2,0.5-0.2,0.7-0.1l2.5,1.8c0.6-2.6,0.1-4.2-0.5-5.7
	c-0.4-1.2-0.8-2.2-0.6-3.6c0.2-1.1,0.5-2.1,1-3.1l0,0c0.1-0.2,0.2-0.4,0.3-0.6c0.1-0.1,0.1-0.2,0.2-0.3c0.2-1.6,1.1-3.5,3.3-5.8
	c0.2-1,0.5-2.1,0.8-3.1c0.5-1.8,1-3.6,1.2-5.3c-0.5,1.2-1.1,2.2-1.9,2.8C60,98.9,60,98.9,59.9,99 M55.9,98.3L55.9,98.3
	c-0.1,0-0.2-0.1-0.2-0.2c-0.1-0.2,0-0.4,0.2-0.5c1.4-0.5,2.5-1.2,3.5-2.1c0.9-0.8,1.6-1.7,2.2-2.8c-0.1-0.2-0.1-0.3-0.2-0.5
	c0-0.1-0.1-0.3-0.1-0.4c-0.2,0-0.5,0-0.7,0.1c-0.4,0-0.8,0.1-1.2,0.2c-1.4,0.3-2.7,0.8-4,1.7l0,0c-0.5,0.4-1,0.8-1.5,1.3
	c0,0,0,0,0,0c0,0,0.1,0.1,0.1,0.2c0.2,0.3,0.4,0.6,0.4,1c0.1,0.4,0,0.8-0.1,1.1c0,0.1-0.1,0.2-0.1,0.3C54.9,98,55.5,98.2,55.9,98.3
	 M61.2,94.8c-0.4,0.5-0.8,0.9-1.3,1.3c-0.1,0.1-0.3,0.2-0.4,0.4c0,0.2-0.1,0.3-0.2,0.5c-0.2,0.4-0.6,0.8-1,1.1
	c-0.3,0.2-0.7,0.4-1,0.4c0.7,0,1.2-0.1,1.7-0.3c0,0,0.1,0,0.1-0.1c0.1-0.1,0.2-0.1,0.3-0.2C60.3,97.4,60.8,96.3,61.2,94.8
	 M62.7,92.5c0.3-0.4,0.5-0.9,0.5-1.4c0-0.1,0-0.3,0-0.4c0-0.1,0-0.1,0-0.2c-0.4-0.2-0.7-0.4-1.1-0.6C62,90,62,90,61.9,90
	c-0.2,0.1-0.4,0.2-0.7,0.3c-1,0.3-2.4,0.3-3.5,0.2c0,0,0,0,0,0c-0.1,0-0.3,0-0.4-0.1l0,0c-1.6-0.3-2.8-1.1-3.9-1.8
	c-0.8-0.5-1.4-0.9-1.9-0.9c-0.2,0-0.3,0.1-0.5,0.2l0,0c-0.1,0.1-0.2,0.2-0.3,0.4c-0.1,0.2-0.2,0.3-0.3,0.5c-0.5,0.9-1,2.2-0.6,2.7
	l0,0l0,0l0,0l0,0l0,0v0l0,0v0h0l0,0l0,0l0,0l0,0l0,0l0,0c0,0,0,0,0.1,0.1c-0.1-0.2-0.1-0.3-0.1-0.5c0-0.3,0.1-0.5,0.3-0.7
	c0.3-0.3,0.9-0.5,1.7-0.3c0.7,0.1,1.4,0.5,2.2,0.8l0,0c0.5,0.2,1.1,0.5,1.6,0.6c0,0,0,0,0.1,0c0.3,0.1,0.6,0.2,0.9,0.2
	c0.9-0.4,1.8-0.7,2.7-0.9c0.4-0.1,0.8-0.2,1.3-0.2c0.4,0,0.8-0.1,1.3-0.1h0.1c0.3,0,0.6,0.2,0.6,0.5c0,0.3,0.1,0.5,0.1,0.7
	C62.6,92.2,62.6,92.3,62.7,92.5 M64.2,90.6c0.2,1-0.4,2.6-1.2,3.1c1.4,5.4,4.4,7.8,7.1,9.8c2.8,2.2,5.3,4.1,5.5,8.8
	c0.2,5.9-3.7,9.4-7,12.3c-3,2.6-5.4,4.8-3.2,8c0.3,0.2,0.6,0.3,1,0.5c-0.1-0.4-0.2-0.8-0.1-1.2c0.2-2.3,2-3.4,4.3-4.7
	c3-1.8,6.9-4.1,8.5-10.5l0,0c0.1-0.6,0.3-1.2,0.3-1.8c0.1-0.6,0.1-1.3,0.1-1.9c-0.1-3.2-1.6-6.6-5.9-8.7c-1.6-0.7-3.1-1.5-4.2-2.7
	l0,0c-1.7-1.8-3.6-3.9-2.6-11.6C65.9,90.3,64.9,90.5,64.2,90.6 M65.6,89.2c0.3-0.7,0.7-1.3,1.1-2v0l0,0c0.2-0.4,0.8-1.3,1.3-2.4
	c1-1.9,2.3-4.2,2.8-5c0.1-0.2,0.2-0.4,0.2-0.7c0.3-0.9,0.7-1.8,1.1-2.8L71.1,78L70.9,78l0.1-0.2c0.1-0.1,0.1-0.3,0.1-0.4
	c0-0.1,0-0.2-0.1-0.2c0-0.1-0.2-0.2-0.4-0.3l-3.1-2c-0.2-0.2-0.4-0.2-0.5-0.3c-0.1,0-0.2,0-0.3,0.1s-0.2,0.1-0.3,0.3L66.4,75
	l-0.1-0.1l1.6-2.5l0.1,0.1l-0.1,0.2c-0.1,0.1-0.1,0.3-0.1,0.4c0,0.1,0,0.2,0.1,0.2c0,0.1,0.2,0.2,0.4,0.3l3.1,2
	c0.2,0.2,0.4,0.2,0.5,0.3c0.1,0,0.2,0,0.3-0.1c0.1-0.1,0.2-0.1,0.3-0.3l0.1-0.2l0.1,0c0.3-0.5,0.7-1,1.1-1.5l-0.1-0.1
	c0.2-0.2,0.2-0.4,0.2-0.5c0-0.1,0-0.2,0-0.3c0-0.1-0.2-0.2-0.4-0.4l-3-2.1c-0.2-0.2-0.4-0.3-0.5-0.3c-0.1,0-0.2,0-0.3,0.1
	s-0.2,0.2-0.4,0.4l-0.1-0.1l1.6-2.2c0.4-0.5,0.7-0.9,0.9-1c0.2-0.2,0.5-0.2,0.8-0.2c0.3,0,0.5,0.1,0.7,0.2c0.2,0.2,0.4,0.4,0.4,0.7
	c0.1,0.3,0,0.7-0.2,1.2c0.4-0.4,0.8-0.6,1-0.7c0.4-0.1,0.8-0.1,1.1,0.2c0.3,0.2,0.5,0.6,0.6,1c0,0.5-0.2,1.1-0.7,1.8l-1.2,1.8
	c0.2-0.2,0.4-0.4,0.6-0.6c0.4-0.4,0.8-0.8,1.2-1.1c1.3-1.9,2.7-3.9,4-5.8l0,0l0,0c2.9-4.1,6-8,9.2-11.8c4.7-5.7,9.5-11.2,14.5-16.7
	c0.1-0.1,0.1-0.5,0.1-0.8c0-0.3,0-0.6,0-0.9l-5.5-2.1c-2,2-4,4-6,6.1c-2.1,2.2-4.1,4.5-6.1,6.9C76,58.5,66.6,72.1,59.4,85.2
	c0.1,0,0.2,0,0.3,0l0,0c0.8,0,1.6,0.3,2.2,0.9s0.9,1.3,0.9,2.2l0,0c0,0.3,0,0.5-0.1,0.7c0.3,0.2,0.7,0.4,1,0.5
	C64.3,89.5,64.9,89.4,65.6,89.2 M170.4,97.9c0.5,0.2,0.7,0.7,0.5,1.1c-0.2,0.5-0.7,0.7-1.2,0.5c-0.4-0.2-0.5-0.7-0.4-1.2
	C169.5,97.9,170,97.7,170.4,97.9 M170,100.8c0.4,0.2,0.5,0.7,0.4,1.1c-0.2,0.5-0.7,0.7-1.1,0.5c-0.5-0.2-0.7-0.7-0.5-1.2
	C168.9,100.8,169.5,100.6,170,100.8 M169.5,103.6c0.4,0.2,0.5,0.7,0.4,1.2c-0.2,0.4-0.7,0.5-1.2,0.4c-0.4-0.2-0.5-0.7-0.4-1.2
	C168.4,103.6,168.9,103.4,169.5,103.6 M168.8,106.5c0.5,0.2,0.7,0.7,0.4,1.2c-0.2,0.4-0.7,0.5-1.1,0.4c-0.5-0.2-0.7-0.7-0.5-1.2
	C167.9,106.5,168.4,106.3,168.8,106.5 M168,109.3c0.4,0.2,0.5,0.9,0.4,1.2s-0.7,0.5-1.2,0.4c-0.4-0.4-0.5-0.9-0.4-1.2
	C167.2,109.3,167.7,109.2,168,109.3 M167.2,112.2c0.5,0.2,0.5,0.7,0.4,1.2c-0.2,0.4-0.7,0.5-1.2,0.2c-0.4-0.2-0.5-0.7-0.2-1.2
	C166.3,112,166.8,111.8,167.2,112.2 M166.3,115.1c0.5,0.2,0.5,0.7,0.4,1.1c-0.4,0.5-0.9,0.5-1.2,0.4c-0.5-0.4-0.5-0.9-0.4-1.2
	C165.4,114.9,165.9,114.7,166.3,115.1 M165.2,117.7c0.5,0.4,0.5,0.9,0.4,1.2c-0.4,0.4-0.9,0.5-1.2,0.2c-0.5-0.4-0.5-0.9-0.2-1.2
	C164.3,117.6,164.8,117.4,165.2,117.7 M164.1,120.4c0.4,0.4,0.5,0.9,0.2,1.2s-0.9,0.5-1.2,0.2s-0.4-0.9-0.2-1.2
	C163.2,120.2,163.8,120.2,164.1,120.4 M162.9,123.1c0.4,0.4,0.5,0.9,0.2,1.2s-0.9,0.5-1.2,0.2s-0.4-0.9-0.2-1.2
	C162,122.9,162.5,122.7,162.9,123.1 M161.6,125.8c0.4,0.4,0.4,0.9,0,1.3c-0.2,0.4-0.9,0.4-1.2,0s-0.4-0.9,0-1.2
	S161.3,125.4,161.6,125.8 M160.2,128.3c0.4,0.4,0.4,0.9,0,1.2s-0.9,0.4-1.2,0.2c-0.4-0.4-0.4-1.1,0-1.2
	C159.3,128.1,159.8,127.9,160.2,128.3 M158.8,131c0.4,0.4,0.4,0.9,0,1.2c-0.4,0.2-0.9,0.2-1.2-0.2c-0.4-0.4-0.4-0.9,0-1.2
	C157.9,130.6,158.4,130.6,158.8,131 M157.2,133.3c0.4,0.4,0.4,1.1,0,1.2c-0.4,0.4-1.1,0.4-1.2,0c-0.4-0.4-0.4-0.9,0-1.2
	S156.8,132.9,157.2,133.3 M155.5,135.8c0.2,0.4,0.2,0.9-0.2,1.2c-0.4,0.4-0.9,0.4-1.2-0.2c-0.4-0.4-0.2-0.9,0.2-1.2
	C154.7,135.4,155.2,135.4,155.5,135.8 M153.8,138.1c0.4,0.4,0.2,1.1-0.2,1.2c-0.4,0.4-0.9,0.4-1.2-0.2c-0.4-0.4-0.2-0.9,0.2-1.2
	C152.9,137.8,153.4,137.8,153.8,138.1 M152,140.4c0.2,0.4,0.2,0.9-0.2,1.2c-0.5,0.4-1.1,0.2-1.2-0.2c-0.4-0.4-0.2-0.9,0.2-1.2
	S151.6,140.1,152,140.4 M150,142.8c0.4,0.4,0.2,0.9-0.2,1.2c-0.5,0.2-1.1,0-1.2-0.4c-0.4-0.4-0.2-0.9,0.2-1.2
	C149.1,142.2,149.6,142.2,150,142.8 M148,144.9c0.2,0.4,0.2,0.9-0.4,1.2c-0.4,0.2-0.9,0-1.2-0.4c-0.2-0.4,0-0.9,0.4-1.2
	C147.2,144.4,147.7,144.4,148,144.9 M145.9,147c0.4,0.4,0.2,0.9-0.2,1.1c-0.5,0.4-1.1,0.2-1.2-0.2c-0.4-0.5-0.2-1.1,0.4-1.2
	C145.2,146.3,145.7,146.5,145.9,147 M143.8,149c0.4,0.4,0.2,0.9-0.4,1.2c-0.4,0.2-0.9,0-1.1-0.4c-0.4-0.5-0.2-1.1,0.4-1.2
	C143.1,148.5,143.6,148.5,143.8,149 M141.6,151c0.2,0.4,0,0.9-0.4,1.2c-0.5,0.2-1.1,0-1.2-0.5c-0.2-0.4,0-0.9,0.4-1.1
	C140.9,150.2,141.4,150.4,141.6,151 M139.3,152.7c0.4,0.5,0,1.1-0.4,1.2c-0.5,0.2-1.1,0-1.2-0.5c-0.2-0.4,0-0.9,0.5-1.1
	C138.6,152.2,139.1,152.4,139.3,152.7 M137,154.5c0.2,0.5,0,1.1-0.4,1.2c-0.5,0.2-1.1,0-1.2-0.5c-0.2-0.4,0-0.9,0.5-1.1
	C136.3,154,136.8,154.2,137,154.5 M134.7,156.3c0.2,0.5,0,0.9-0.5,1.1c-0.5,0.2-0.9,0-1.1-0.5c-0.2-0.4,0-0.9,0.5-1.1
	C134,155.6,134.5,155.8,134.7,156.3 M132.2,157.9c0.2,0.5,0,1.1-0.5,1.1c-0.4,0.2-0.9,0-1.1-0.5c-0.2-0.4,0-0.9,0.5-1.1
	C131.6,157.2,132,157.6,132.2,157.9 M129.7,159.5c0.2,0.4,0,0.9-0.5,1.1c-0.5,0.2-0.9-0.2-1.1-0.7c-0.2-0.4,0.2-0.9,0.5-1.1
	C129.1,158.8,129.7,159,129.7,159.5 M127.2,161c0.2,0.5-0.2,0.9-0.7,1.1c-0.4,0.2-0.9-0.2-1.1-0.7c0-0.4,0.2-0.9,0.7-1.1
	C126.6,160.3,127,160.4,127.2,161 M124.5,162.2c0.2,0.5-0.2,1.1-0.5,1.1c-0.5,0.2-1.1-0.2-1.1-0.5c-0.2-0.5,0.2-1.1,0.7-1.1
	C123.9,161.5,124.5,161.9,124.5,162.2 M122,163.6c0,0.4-0.4,0.9-0.7,0.9c-0.5,0.2-1.1-0.2-1.1-0.7c-0.2-0.4,0.2-0.9,0.7-0.9
	C121.3,162.8,121.8,163.1,122,163.6 M119.1,164.7c0.2,0.5-0.2,0.9-0.7,1.1c-0.4,0-0.9-0.4-0.9-0.7c-0.2-0.5,0.2-1.1,0.7-1.1
	S119.1,164.2,119.1,164.7 M116.4,165.8c0,0.5-0.4,0.9-0.7,1.1c-0.5,0-0.9-0.4-1.1-0.9c0-0.4,0.4-0.9,0.9-0.9
	C115.9,165.1,116.4,165.4,116.4,165.8 M113.8,166.9c0,0.5-0.4,0.9-0.9,0.9s-0.9-0.4-0.9-0.9c0-0.4,0.4-0.9,0.7-0.9
	C113.2,166,113.6,166.3,113.8,166.9 M110.9,167.8c0,0.4-0.4,0.9-0.9,0.9s-0.9-0.4-0.9-0.9s0.4-0.9,0.9-0.9S110.9,167.2,110.9,167.8
	 M108,168.5c0,0.5-0.4,0.9-0.9,0.9s-0.9-0.4-0.9-0.9s0.4-0.9,0.9-0.9S108,167.9,108,168.5 M105.2,169.2c0,0.5-0.4,0.9-0.9,0.9
	s-0.9-0.5-0.9-0.9c0-0.5,0.5-0.9,0.9-0.9C104.8,168.3,105.2,168.6,105.2,169.2 M102.3,169.7c0,0.5-0.5,0.9-0.9,0.9
	c-0.5,0-0.9-0.5-0.9-0.9c0-0.5,0.5-0.9,0.9-0.9C102,168.8,102.3,169.4,102.3,169.7 M99.5,170.3c-0.2,0.5-0.5,0.9-1.1,0.7
	c-0.4,0-0.7-0.4-0.7-0.9s0.5-0.9,0.9-0.7C99.1,169.4,99.5,169.7,99.5,170.3 M96.4,170.6c0,0.5-0.5,0.9-0.9,0.7
	c-0.5,0-0.9-0.4-0.7-0.9c0-0.5,0.4-0.9,0.9-0.7C96.2,169.7,96.6,170.1,96.4,170.6 M93.6,171c0,0.4-0.5,0.7-1.1,0.7
	c-0.4-0.2-0.7-0.5-0.7-1.1c0.2-0.5,0.5-0.9,1.1-0.7C93.4,169.9,93.6,170.4,93.6,171 M90.7,171.2c-0.2,0.4-0.7,0.7-1.1,0.7
	c-0.5-0.2-0.9-0.7-0.7-1.1c0-0.5,0.5-0.9,1.1-0.7C90.3,170.1,90.7,170.6,90.7,171.2 M87.7,171.2c-0.2,0.5-0.5,0.7-1.1,0.7
	c-0.5-0.2-0.7-0.7-0.7-1.1c0.2-0.5,0.7-0.7,1.1-0.7C87.5,170.3,87.8,170.8,87.7,171.2 M84.8,171.2c-0.2,0.5-0.7,0.7-1.2,0.5
	c-0.4,0-0.7-0.5-0.5-1.1c0.2-0.4,0.7-0.7,1.1-0.5C84.6,170.3,84.8,170.6,84.8,171.2 M81.8,171c-0.2,0.5-0.5,0.7-1.1,0.7
	c-0.5-0.2-0.7-0.7-0.5-1.2c0.2-0.4,0.5-0.7,1.1-0.5S81.9,170.6,81.8,171 M78.9,170.8c-0.2,0.5-0.7,0.7-1.2,0.5
	c-0.4-0.2-0.5-0.7-0.5-1.1c0.2-0.5,0.7-0.7,1.2-0.5C78.7,169.9,79.1,170.4,78.9,170.8 M75.9,170.4c-0.2,0.5-0.7,0.7-1.1,0.5
	c-0.5-0.2-0.7-0.7-0.5-1.1c0.2-0.5,0.7-0.7,1.2-0.5C75.9,169.5,76,170.1,75.9,170.4 M73,170.1c-0.2,0.4-0.7,0.7-1.1,0.4
	c-0.5-0.2-0.7-0.7-0.5-1.1c0.2-0.5,0.7-0.7,1.2-0.5C73,169.2,73.2,169.5,73,170.1 M70.1,169.5c-0.2,0.4-0.7,0.5-1.2,0.4
	c-0.4-0.2-0.5-0.7-0.4-1.1c0.2-0.5,0.7-0.7,1.2-0.5C70.1,168.6,70.3,169.2,70.1,169.5 M67.3,168.8c-0.2,0.5-0.7,0.7-1.2,0.5
	c-0.4-0.4-0.5-0.9-0.4-1.2c0.2-0.5,0.7-0.7,1.2-0.4C67.3,167.9,67.5,168.5,67.3,168.8 M64.4,168.1c-0.2,0.5-0.7,0.7-1.2,0.4
	c-0.4-0.2-0.5-0.7-0.4-1.2c0.4-0.4,0.9-0.5,1.2-0.2C64.4,167.2,64.6,167.7,64.4,168.1 M61.6,167.4c-0.2,0.4-0.7,0.5-1.2,0.2
	c-0.4-0.2-0.5-0.7-0.2-1.2c0.2-0.4,0.7-0.5,1.2-0.2C61.7,166.3,61.9,166.9,61.6,167.4 M58.7,166.5c-0.2,0.4-0.7,0.4-1.1,0.2
	c-0.5-0.4-0.5-0.9-0.4-1.2c0.4-0.4,0.9-0.5,1.2-0.2C58.9,165.4,59.1,166,58.7,166.5 M56,165.4c-0.4,0.4-0.9,0.4-1.2,0.2
	c-0.4-0.4-0.5-0.9-0.2-1.2s0.9-0.5,1.2-0.2C56.2,164.4,56.4,165.1,56,165.4 M53.3,164.2c-0.4,0.5-0.9,0.5-1.2,0.2
	c-0.4-0.2-0.5-0.9-0.2-1.2s0.9-0.4,1.2-0.2C53.5,163.3,53.7,163.8,53.3,164.2 M50.7,163.1c-0.4,0.4-0.9,0.4-1.2,0s-0.5-0.9-0.2-1.2
	s0.9-0.4,1.2,0C50.8,162,51,162.8,50.7,163.1 M48,161.7c-0.4,0.4-0.9,0.4-1.2,0.2c-0.4-0.4-0.4-0.9,0-1.2s0.9-0.5,1.2-0.2
	S48.3,161.3,48,161.7 M45.5,160.3c-0.4,0.4-0.9,0.4-1.2,0.2c-0.4-0.4-0.4-0.9,0-1.2c0.2-0.4,0.9-0.4,1.2-0.2
	C45.8,159.4,45.8,159.9,45.5,160.3 M42.8,158.8c-0.2,0.4-0.9,0.4-1.2,0c-0.2-0.4-0.2-0.9,0.2-1.2s0.9-0.4,1.2,0
	S43.2,158.5,42.8,158.8 M40.5,157.2c-0.4,0.4-1.1,0.4-1.2,0c-0.4-0.4-0.4-0.9,0-1.2s0.9-0.4,1.2,0S40.8,156.9,40.5,157.2 M38,155.6
	c-0.4,0.4-0.9,0.2-1.2-0.2c-0.4-0.4-0.2-0.9,0.2-1.2c0.4-0.2,0.9-0.2,1.2,0.2C38.3,154.7,38.3,155.2,38,155.6 M35.7,153.8
	c-0.4,0.4-1.1,0.2-1.2-0.2c-0.4-0.4-0.4-0.9,0.2-1.2c0.4-0.2,0.9-0.2,1.2,0.2C36,152.9,36,153.5,35.7,153.8 M33.3,152
	c-0.4,0.4-0.9,0.2-1.2-0.2c-0.4-0.4-0.2-0.9,0.2-1.2c0.4-0.4,0.9-0.2,1.2,0.2S33.7,151.7,33.3,152 M31,150.1
	c-0.4,0.4-0.9,0.2-1.2-0.2c-0.2-0.4,0-0.9,0.4-1.2s0.9-0.2,1.2,0.2C31.6,149.4,31.6,149.9,31,150.1 M28.9,148.1
	c-0.4,0.4-0.9,0.2-1.2-0.2c-0.2-0.5,0-1.1,0.4-1.2c0.4-0.4,0.9-0.2,1.2,0.2C29.4,147.4,29.4,147.9,28.9,148.1 M26.7,146.1
	c-0.4,0.2-0.9,0-1.1-0.4c-0.4-0.5-0.2-1.1,0.2-1.2c0.5-0.2,1.1-0.2,1.2,0.4C27.5,145.3,27.3,145.8,26.7,146.1 M24.8,144
	c-0.4,0.2-0.9,0-1.2-0.4c-0.2-0.5,0-1.1,0.4-1.2c0.5-0.2,1.1,0,1.2,0.4S25.3,143.6,24.8,144 M22.8,141.7c-0.4,0.4-0.9,0.2-1.1-0.4
	c-0.4-0.4-0.2-0.9,0.4-1.2c0.4-0.2,0.9,0,1.2,0.5C23.5,141,23.4,141.5,22.8,141.7 M21,139.5c-0.5,0.2-1.1,0-1.2-0.5
	c-0.2-0.4,0-0.9,0.5-1.1c0.4-0.2,0.9,0,1.1,0.4C21.6,138.8,21.4,139.4,21,139.5 M19.2,137.2c-0.5,0.2-1.1-0.2-1.2-0.5
	c-0.2-0.5,0-0.9,0.5-1.2c0.4-0.2,0.9,0.2,1.1,0.5C19.8,136.5,19.6,137,19.2,137.2 M17.4,134.7c-0.5,0.2-0.9,0-1.1-0.5
	c-0.2-0.4,0-0.9,0.5-1.1c0.4-0.2,0.9,0,1.1,0.5S18,134.5,17.4,134.7 M15.8,132.4c-0.5,0-0.9-0.2-1.1-0.7c-0.2-0.4,0-0.9,0.5-1.1
	c0.4-0.2,0.9,0.2,1.1,0.5C16.6,131.7,16.4,132.2,15.8,132.4 M14.2,129.9c-0.4,0-0.9-0.2-1.1-0.7c-0.2-0.4,0.2-0.9,0.7-1.1
	c0.4-0.2,0.9,0.2,1.1,0.5C14.9,129.2,14.8,129.7,14.2,129.9 M12.8,127.2c-0.4,0.2-0.9-0.2-1.1-0.5c0-0.5,0.2-1.1,0.7-1.1
	c0.4-0.2,0.9,0.2,1.1,0.5C13.5,126.7,13.3,127.2,12.8,127.2 M11.5,124.7c-0.5,0-1.1-0.2-1.1-0.7c-0.2-0.5,0.2-0.9,0.5-1.1
	c0.5-0.2,1.1,0.2,1.1,0.7C12.3,124,11.9,124.6,11.5,124.7 M10.1,122.1c-0.4,0-0.9-0.4-0.9-0.7c-0.2-0.5,0.2-0.9,0.7-1.1
	c0.4,0,0.9,0.2,0.9,0.7C11,121.5,10.6,121.9,10.1,122.1 M9,119.4c-0.5,0-0.9-0.4-1.1-0.7c0-0.5,0.4-1.1,0.7-1.1
	c0.5,0,1.1,0.2,1.1,0.7S9.6,119.2,9,119.4 M8,116.5c-0.5,0.2-0.9-0.2-1.1-0.7c0-0.5,0.4-0.9,0.9-0.9c0.4-0.2,0.9,0.2,0.9,0.7
	S8.3,116.5,8,116.5 M6.9,113.8c-0.5,0-0.9-0.4-0.9-0.9c0-0.4,0.4-0.9,0.9-0.9c0.4,0,0.9,0.4,0.9,0.9C7.8,113.3,7.4,113.8,6.9,113.8
	 M6,111c-0.4,0-0.9-0.4-0.9-0.9c0-0.4,0.4-0.9,0.9-0.9s0.9,0.4,0.9,0.9S6.5,111,6,111 M5.3,108.1c-0.5,0-0.9-0.4-0.9-0.9
	c0-0.4,0.4-0.9,0.9-0.9s0.9,0.5,0.9,0.9C6.2,107.8,5.8,108.1,5.3,108.1 M4.6,105.3c-0.5,0-0.9-0.4-0.9-0.9s0.5-0.9,0.9-0.9
	c0.5,0.2,0.9,0.5,0.9,1.1C5.5,104.9,5.1,105.3,4.6,105.3 M4.1,102.4c-0.5,0-0.9-0.4-0.9-0.9s0.5-0.9,0.9-0.9c0.5,0,0.9,0.5,0.9,1.1
	C4.9,102.1,4.4,102.4,4.1,102.4 M3.5,99.5c-0.5,0-0.9-0.5-0.7-0.9c0-0.5,0.4-0.9,0.9-0.9s0.9,0.5,0.7,1.1C4.4,99.2,4,99.5,3.5,99.5
	 M141.9,140.8l-2,2l-1.6-3.4L141.9,140.8z M143.3,145.6l-0.2-0.2c-0.7,0.7-1.2,0.7-1.6,0.4c-0.2-0.2-0.4-0.4-0.5-0.7l-0.7-1.6
	l2.1-2.3l2.1,0.7c0.2,0.2,0.4,0.4,0.7,0.5c0.2,0.2,0.2,0.5-0.2,0.9l-0.5,0.5l0.4,0.2l4.3-4.3l-0.4-0.4c-0.4,0.4-0.5,0.5-1.2,0.2
	l-10.9-4.5L136,136l4.5,9.8c0.7,1.2,0.7,1.6,0.2,2.1l0.4,0.2L143.3,145.6L143.3,145.6z M117.1,160.4c0.5,1.2,0.4,1.6-0.7,2.1
	l0.2,0.4l6.1-3c3-1.4,3.4-3.2,2.5-4.8c-0.7-1.6-2.1-2.1-3.8-1.6c0.9-0.9,1.6-2,0.9-3.4c-0.7-1.6-2.3-2.3-5-0.9l-6.1,2.9l0.2,0.4
	c1.1-0.5,1.6-0.4,2.1,0.7L117.1,160.4L117.1,160.4z M116.2,150.2c1.4-0.4,2.3,0.2,2.9,1.4c0.7,1.4,0.4,2.3-0.7,3L116.2,150.2
	L116.2,150.2z M118.7,155.2c1.6-0.7,2.7,0.2,3.2,1.2c0.9,1.6,0.7,2.7-0.2,3.2c-0.5,0.2-0.9,0.2-1.4-0.9L118.7,155.2L118.7,155.2z
	 M72.8,161.7c-0.4,4.1,2.3,6.4,6.1,6.8c3.8,0.2,6.8-1.8,7-5.9c0.4-4.1-2.3-6.2-6.1-6.6C76,155.8,73,157.6,72.8,161.7 M76.5,162
	c0.2-3.9,1.4-5.4,3.2-5.4c1.6,0.2,2.7,1.8,2.3,5.7c-0.2,3.9-1.4,5.4-3.2,5.4C77.2,167.6,76.2,165.9,76.5,162 M41.2,147.4
	c-2.3,3.4-1.1,6.8,2.1,8.8c3,2.1,6.6,1.8,8.9-1.6c2.1-3.4,0.9-6.8-2.1-8.8C46.9,143.6,43.3,144,41.2,147.4 M44.2,149.3
	c2.3-3.2,4.1-3.9,5.4-3c1.4,0.9,1.6,2.9-0.5,6.2c-2.1,3.2-3.9,3.9-5.4,3S42.1,152.7,44.2,149.3 M137.6,150.8l-0.2-0.4
	c-1.1,0.7-1.6,0.7-2.3-0.4l-4.8-6.6c-0.7-1.1-0.5-1.4,0.4-2.1l-0.2-0.4l-5.5,4.1l0.2,0.4c0.9-0.7,1.4-0.9,2.3,0.2l4.8,6.6
	c0.7,1.1,0.5,1.6-0.5,2.3l0.4,0.2L137.6,150.8L137.6,150.8z M99.2,167.4l2.5-10.4l1.4,7.7c0.2,1.2-0.2,1.6-1.4,1.8l0.2,0.4l6.8-1.1
	l-0.2-0.4c-1.1,0.2-1.6,0-1.8-1.2l-1.4-8c-0.2-1.4,0.2-1.8,1.4-2v-0.4l-5.2,0.9l-2,7.9l-4.3-6.8l-5.2,0.9l0.2,0.4
	c1.1-0.2,1.6,0,1.8,1.2l1.4,8c0.2,1.2-0.2,1.6-1.4,1.8v0.4l4.1-0.5v-0.5c-1.2,0.4-1.8,0-2-1.2l-1.4-8H93l5.7,9.3L99.2,167.4
	L99.2,167.4z M64.6,165.6l2-4.1l-0.2-0.2c-0.9,1.4-2.3,3.2-4.6,2.5c-0.9-0.4-1.1-0.7-0.9-1.4l2.9-7.9c0.5-1.2,1.1-1.2,2.1-0.9
	l0.2-0.4l-6.6-2.3v0.4c1.1,0.4,1.4,0.7,0.9,2l-2.7,7.7c-0.5,1.2-1.1,1.2-2.1,0.9l-0.2,0.4L64.6,165.6L64.6,165.6z M34.7,146
	c-1.1,0.2-2.9,0.4-4.1-0.7c-1.6-1.6-0.5-3.8,1.6-5.9c2-2.1,4.1-3.2,5.7-1.8c1.2,1.2,1.2,2.9,0.2,4.3l0.4,0.4l2.7-2.9l-0.4-0.2
	c-0.4,0.2-0.7,0.4-0.9,0.2c-0.4-0.5-0.7-1.8-2-3c-2.3-2.3-5.7-2.5-8.6,0.4c-2.7,3-2.5,6.2-0.2,8.6c1.4,1.2,3.2,2,4.8,1.6L34.7,146z
	 M152.2,119.2c1.4,0.5,3.2-0.2,3.9-1.6c0.5-1.4,0-3.2-1.6-3.9c-1.4-0.7-3.2,0-3.9,1.6C149.9,116.7,150.6,118.5,152.2,119.2
	 M145.6,46.5c-1.1,0.7-1.6,0.5-2.3-0.5l-0.2,0.4l3.6,5.7c1.8,2.9,3.6,3,5.2,2c1.4-0.9,1.8-2.3,1.1-3.9c0.9,0.9,2.3,1.4,3.4,0.7
	c1.6-1.1,2.1-2.7,0.5-5.2l-3.6-5.7l-0.4,0.2c0.7,0.9,0.7,1.4-0.4,2.1L145.6,46.5L145.6,46.5z M155.6,44.7c0.5,1.2,0.2,2.1-1.1,3
	c-1.4,0.7-2.3,0.5-3-0.5L155.6,44.7L155.6,44.7z M151,47.6c0.9,1.4,0,2.7-1.1,3.4c-1.4,0.9-2.5,1.1-3,0.2c-0.4-0.5-0.4-0.9,0.7-1.4
	L151,47.6L151,47.6z M89,2.8c0.2-0.5,0.7-0.7,1.1-0.5c0.5,0.2,0.7,0.5,0.7,1.1c-0.2,0.5-0.7,0.7-1.2,0.5C89.2,3.7,88.9,3.3,89,2.8
	 M92.1,3c0-0.5,0.5-0.7,1.1-0.5c0.4,0.2,0.7,0.5,0.5,1.1c-0.2,0.5-0.7,0.7-1.1,0.5C92.1,3.9,91.9,3.4,92.1,3 M94.9,3.2
	c0.2-0.4,0.7-0.7,1.1-0.5c0.5,0.2,0.7,0.7,0.5,1.1c-0.2,0.5-0.5,0.7-1.1,0.5C94.9,4.2,94.7,3.7,94.9,3.2 M97.8,3.5
	C98,3,98.5,2.8,99,3c0.4,0.2,0.7,0.7,0.5,1.2c-0.2,0.4-0.7,0.5-1.2,0.4C98,4.4,97.6,3.9,97.8,3.5 M100.8,3.9
	c0.2-0.4,0.7-0.5,1.1-0.4c0.5,0.2,0.7,0.7,0.5,1.1c-0.2,0.5-0.7,0.7-1.2,0.5C100.8,5,100.6,4.4,100.8,3.9 M103.7,4.4
	c0.2-0.4,0.7-0.5,1.1-0.4c0.5,0.2,0.7,0.7,0.5,1.2c-0.2,0.4-0.7,0.5-1.2,0.4C103.7,5.5,103.5,5,103.7,4.4 M106.5,5.1
	c0.2-0.5,0.7-0.7,1.2-0.4c0.4,0.2,0.5,0.7,0.4,1.1c-0.4,0.5-0.9,0.7-1.2,0.5C106.5,6,106.3,5.5,106.5,5.1 M109.4,5.8
	c0.2-0.4,0.7-0.5,1.2-0.4c0.4,0.2,0.5,0.9,0.2,1.2c-0.2,0.4-0.7,0.5-1.1,0.4C109.2,6.7,109.2,6.2,109.4,5.8 M112.2,6.7
	c0.2-0.5,0.7-0.5,1.2-0.4c0.4,0.2,0.5,0.7,0.2,1.2c-0.2,0.4-0.7,0.5-1.2,0.2C112.1,7.6,111.9,7.1,112.2,6.7 M114.9,7.6
	c0.4-0.5,0.9-0.5,1.2-0.4c0.4,0.4,0.5,0.9,0.4,1.2c-0.4,0.5-0.9,0.5-1.2,0.4C114.7,8.5,114.7,8,114.9,7.6 M117.8,8.7
	c0.2-0.5,0.7-0.5,1.2-0.4c0.4,0.4,0.4,0.9,0.2,1.2c-0.4,0.5-0.9,0.5-1.2,0.2C117.6,9.6,117.4,9.1,117.8,8.7 M120.5,9.8
	c0.4-0.4,0.9-0.5,1.2-0.2s0.4,0.9,0.2,1.2c-0.4,0.4-0.9,0.4-1.2,0.2C120.3,10.7,120.1,10.1,120.5,9.8 M123.1,11
	c0.4-0.5,0.9-0.5,1.2-0.2s0.4,0.9,0.2,1.2c-0.4,0.4-0.9,0.4-1.2,0.2C122.8,11.9,122.8,11.4,123.1,11 M125.8,12.3
	c0.2-0.4,0.9-0.4,1.2,0c0.4,0.2,0.4,0.9,0,1.2s-0.9,0.4-1.2,0S125.5,12.6,125.8,12.3 M128.3,13.7c0.4-0.4,0.9-0.4,1.2,0
	s0.4,0.9,0,1.2s-0.9,0.4-1.2,0C128,14.6,128,14.1,128.3,13.7 M130.8,15.1c0.4-0.4,0.9-0.4,1.2,0c0.4,0.4,0.4,0.9,0,1.2
	s-0.9,0.4-1.2,0S130.5,15.5,130.8,15.1 M133.3,16.7c0.4-0.4,0.9-0.4,1.2,0s0.4,1.1,0,1.2c-0.4,0.4-0.9,0.4-1.2,0
	S133,17.1,133.3,16.7 M135.8,18.4c0.4-0.4,0.9-0.2,1.2,0.2s0.2,0.9-0.2,1.2c-0.4,0.4-0.9,0.2-1.2-0.2S135.5,18.7,135.8,18.4
	 M138.1,20.1c0.4-0.4,0.9-0.2,1.2,0.2s0.2,0.9-0.2,1.2c-0.4,0.4-0.9,0.2-1.2-0.2S137.8,20.5,138.1,20.1 M140.5,21.9
	c0.4-0.2,0.9-0.2,1.2,0.2c0.2,0.5,0.2,1.1-0.2,1.2c-0.4,0.4-1.1,0.2-1.2-0.2C139.9,22.8,140.1,22.3,140.5,21.9 M142.6,23.9
	c0.5-0.4,1.1-0.2,1.2,0.2c0.4,0.5,0.2,1.1-0.2,1.2c-0.4,0.4-0.9,0.2-1.2-0.2C142.2,24.8,142.2,24.2,142.6,23.9 M144.9,25.8
	c0.4-0.2,0.9-0.2,1.1,0.4c0.4,0.4,0.2,0.9-0.2,1.2c-0.4,0.2-1.1,0-1.2-0.4S144.4,26.2,144.9,25.8 M146.9,28c0.5-0.4,1.1-0.2,1.2,0.2
	c0.4,0.5,0.2,1.1-0.4,1.2c-0.4,0.4-0.9,0.2-1.1-0.4C146.3,28.7,146.5,28.2,146.9,28 M149,30.1c0.4-0.4,0.9-0.2,1.1,0.4
	c0.4,0.4,0.2,0.9-0.4,1.1c-0.4,0.4-0.9,0.2-1.1-0.4C148.3,30.8,148.5,30.3,149,30.1 M154.6,36.9c0.5-0.2,1.1,0,1.2,0.4
	c0.2,0.5-0.2,1.1-0.5,1.2c-0.5,0.2-1.1,0-1.2-0.5S154.2,37.1,154.6,36.9 M156.3,39.2c0.4-0.2,0.9,0,1.1,0.5c0.2,0.5,0,0.9-0.5,1.1
	c-0.4,0.2-0.9,0-1.1-0.5C155.6,39.9,155.8,39.4,156.3,39.2 M157.9,41.7c0.4-0.2,0.9,0,1.1,0.5c0.2,0.4,0,0.9-0.5,1.1
	s-0.9-0.2-1.1-0.5C157.2,42.3,157.4,41.7,157.9,41.7 M159.6,44.2c0.4-0.2,0.9,0,1.1,0.5c0,0.5-0.2,0.9-0.7,1.1
	c-0.4,0.2-0.9-0.2-1.1-0.5C158.7,44.8,159,44.2,159.6,44.2 M161,46.7c0.4-0.2,0.9,0.2,1.1,0.7c0,0.4-0.2,0.9-0.7,1.1
	c-0.5,0-0.9-0.2-1.1-0.7C160.1,47.3,160.4,46.9,161,46.7 M162.2,49.4c0.5-0.2,1.1,0.2,1.1,0.5c0.2,0.5-0.2,1.1-0.7,1.1
	c-0.4,0.2-0.9-0.2-1.1-0.7C161.5,50,161.9,49.4,162.2,49.4 M163.5,51.9c0.5,0,1.1,0.4,1.1,0.7c0.2,0.5-0.2,1.1-0.7,1.1
	c-0.5,0.2-0.9-0.2-1.1-0.7C162.8,52.5,163.1,52.1,163.5,51.9 M164.7,54.6c0.5,0,0.9,0.4,1.1,0.9c0,0.4-0.4,0.9-0.9,0.9
	c-0.4,0.2-0.9-0.2-0.9-0.7C163.8,55.1,164.2,54.8,164.7,54.6 M165.8,57.5c0.5,0,0.9,0.4,1.1,0.7c0,0.5-0.4,0.9-0.9,1.1
	c-0.5,0-0.9-0.4-0.9-0.9C164.9,58,165.3,57.5,165.8,57.5 M166.9,60.2c0.4,0,0.9,0.4,0.9,0.9s-0.4,0.9-0.9,0.9
	c-0.4,0-0.9-0.4-0.9-0.7C166,60.7,166.3,60.3,166.9,60.2 M167.8,63c0.4,0,0.9,0.4,0.9,0.9s-0.4,0.9-0.9,0.9s-0.9-0.4-0.9-0.9
	S167.2,63,167.8,63 M168.5,65.9c0.5,0,0.9,0.4,0.9,0.9s-0.4,0.9-0.9,0.9s-0.9-0.4-0.9-0.9S167.9,65.9,168.5,65.9 M169.2,68.7
	c0.5,0,0.9,0.4,0.9,0.9c-0.2,0.5-0.5,0.9-1.1,0.9c-0.4,0-0.7-0.5-0.7-0.9C168.3,69.1,168.7,68.7,169.2,68.7 M169.7,71.6
	c0.5,0,0.9,0.5,0.9,0.9c-0.2,0.5-0.5,0.9-1.1,0.9c-0.4,0-0.7-0.5-0.7-0.9C168.8,71.9,169.2,71.6,169.7,71.6 M170.3,74.5
	c0.5,0.2,0.7,0.5,0.7,1.1c0,0.4-0.5,0.7-0.9,0.7c-0.5,0-0.9-0.5-0.9-0.9C169.4,74.8,169.7,74.5,170.3,74.5 M170.6,77.5
	c0.5,0,0.9,0.4,0.7,0.9c0,0.5-0.5,0.9-0.9,0.7c-0.5,0-0.9-0.4-0.9-0.9C169.7,77.7,170.1,77.3,170.6,77.5 M171,80.4
	c0.4,0,0.7,0.5,0.7,1.1c-0.2,0.4-0.7,0.7-1.1,0.7c-0.5-0.2-0.9-0.5-0.7-1.1C169.9,80.5,170.5,80.2,171,80.4 M171.2,83.2
	c0.4,0.2,0.7,0.7,0.5,1.1c0,0.5-0.5,0.9-1.1,0.7c-0.4,0-0.7-0.5-0.5-1.1C170.1,83.6,170.6,83.2,171.2,83.2 M171.2,86.3
	c0.5,0,0.7,0.5,0.7,1.1c-0.2,0.4-0.7,0.7-1.1,0.5c-0.5,0-0.9-0.5-0.7-1.1C170.3,86.4,170.6,86.1,171.2,86.3 M171.2,89.1
	c0.5,0.2,0.7,0.7,0.5,1.2c0,0.4-0.5,0.7-1.1,0.5c-0.4-0.2-0.7-0.7-0.5-1.1C170.1,89.3,170.6,89.1,171.2,89.1 M171,92.2
	c0.5,0.2,0.7,0.7,0.5,1.1c0,0.5-0.5,0.7-1.1,0.5c-0.4-0.2-0.7-0.5-0.5-1.1C170.1,92.2,170.6,92,171,92.2 M170.8,95
	c0.4,0.2,0.7,0.7,0.5,1.2c-0.2,0.4-0.7,0.7-1.1,0.5c-0.5-0.2-0.7-0.7-0.5-1.2C169.7,95.2,170.3,94.8,170.8,95 M3.3,96.8
	c-0.5-0.2-0.9-0.5-0.7-1.1c0-0.5,0.5-0.9,0.9-0.7c0.5,0,0.9,0.5,0.7,0.9C4.2,96.5,3.9,96.8,3.3,96.8 M3,93.8c-0.4,0-0.7-0.5-0.7-0.9
	C2.4,92.3,2.8,92,3.3,92C3.9,92.2,4,92.7,4,93.1C4,93.6,3.5,94,3,93.8 M2.8,90.9c-0.4-0.2-0.7-0.5-0.7-1.1c0.2-0.5,0.7-0.7,1.1-0.7
	c0.5,0.2,0.9,0.5,0.7,1.1C3.9,90.7,3.3,90.9,2.8,90.9 M2.8,87.9c-0.5,0-0.7-0.5-0.7-1.1c0.2-0.4,0.7-0.7,1.1-0.5
	c0.5,0,0.7,0.5,0.7,1.1C3.7,87.7,3.2,88,2.8,87.9 M2.8,85c-0.5-0.2-0.7-0.7-0.5-1.1c0-0.5,0.5-0.7,1.1-0.7c0.4,0.2,0.7,0.7,0.5,1.1
	C3.7,84.8,3.3,85.2,2.8,85 M3,82c-0.5,0-0.7-0.5-0.7-1.1c0.2-0.4,0.7-0.7,1.2-0.5c0.4,0.2,0.7,0.7,0.5,1.1C3.9,82,3.3,82.1,3,82
	 M3.2,79.1c-0.5-0.2-0.7-0.7-0.5-1.1c0.2-0.5,0.7-0.7,1.1-0.5c0.5,0.2,0.7,0.5,0.5,1.1C4.1,79.1,3.5,79.3,3.2,79.1 M3.5,76.3
	C3,76.1,2.8,75.5,3,75c0.2-0.4,0.7-0.7,1.1-0.5c0.5,0.2,0.7,0.7,0.5,1.2C4.4,76.1,3.9,76.4,3.5,76.3 M3.9,73.2
	c-0.4-0.2-0.7-0.7-0.4-1.1c0.2-0.5,0.7-0.7,1.1-0.5c0.5,0.2,0.7,0.7,0.5,1.2C5,73.2,4.4,73.4,3.9,73.2 M4.4,70.4
	c-0.4-0.2-0.5-0.7-0.4-1.2c0.2-0.4,0.7-0.5,1.1-0.4c0.5,0.2,0.7,0.7,0.5,1.2C5.5,70.4,5,70.5,4.4,70.4 M5.1,67.5
	c-0.5-0.2-0.7-0.7-0.4-1.2c0.2-0.4,0.7-0.5,1.1-0.4c0.5,0.4,0.7,0.9,0.4,1.2C6,67.5,5.5,67.7,5.1,67.5 M5.8,64.6
	c-0.5-0.2-0.7-0.7-0.4-1.2c0.2-0.4,0.7-0.5,1.2-0.2c0.4,0.2,0.5,0.7,0.2,1.1C6.7,64.8,6.2,64.8,5.8,64.6 M6.6,61.8
	c-0.4-0.2-0.5-0.7-0.2-1.2c0.2-0.4,0.7-0.5,1.2-0.2c0.4,0.2,0.5,0.7,0.2,1.2C7.6,62,7.1,62.1,6.6,61.8 M7.6,59.1
	c-0.5-0.4-0.5-0.9-0.4-1.2c0.4-0.4,0.9-0.5,1.2-0.4c0.4,0.4,0.5,0.9,0.2,1.2C8.5,59.3,8,59.3,7.6,59.1 M8.5,56.2
	c-0.4-0.2-0.4-0.7-0.2-1.2c0.4-0.4,0.9-0.4,1.2-0.2c0.4,0.4,0.5,0.9,0.2,1.2C9.6,56.4,8.9,56.6,8.5,56.2 M9.8,53.6
	c-0.5-0.4-0.5-0.9-0.2-1.2c0.2-0.4,0.9-0.4,1.2-0.2c0.4,0.4,0.4,0.9,0.2,1.2C10.7,53.7,10.1,53.9,9.8,53.6 M10.8,50.9
	c-0.4-0.4-0.4-0.9,0-1.2s0.9-0.4,1.2-0.2c0.4,0.4,0.4,0.9,0,1.2C11.9,51.2,11.4,51.2,10.8,50.9 M12.3,48.2c-0.4-0.4-0.4-0.9-0.2-1.2
	c0.4-0.4,0.9-0.4,1.2,0s0.5,0.9,0.2,1.2S12.6,48.6,12.3,48.2 M13.7,45.7c-0.4-0.4-0.4-0.9-0.2-1.2c0.4-0.4,0.9-0.4,1.2,0
	s0.4,0.9,0.2,1.2C14.6,46.1,14.1,46.1,13.7,45.7 M15.1,43.2c-0.4-0.4-0.4-0.9,0-1.2s0.9-0.4,1.2,0s0.4,0.9,0,1.2
	S15.5,43.6,15.1,43.2 M16.7,40.7c-0.4-0.4-0.4-0.9,0-1.2s0.9-0.4,1.2,0s0.4,0.9,0,1.2S17.1,41.1,16.7,40.7 M18.3,38.2
	c-0.4-0.4-0.2-0.9,0.2-1.2s0.9-0.2,1.2,0.2c0.2,0.4,0.2,0.9-0.2,1.2S18.7,38.6,18.3,38.2 M20.1,35.9c-0.4-0.4-0.2-0.9,0.2-1.2
	s0.9-0.2,1.2,0.2c0.2,0.4,0.2,0.9-0.2,1.2S20.5,36.2,20.1,35.9 M21.9,33.6c-0.4-0.4-0.2-0.9,0.2-1.2c0.4-0.2,1.1-0.2,1.2,0.2
	c0.4,0.4,0.2,1.1-0.2,1.2C22.8,34.1,22.3,33.9,21.9,33.6 M23.9,31.2c-0.4-0.4-0.2-0.9,0.2-1.1c0.4-0.4,1.1-0.2,1.2,0.2
	c0.4,0.4,0.2,0.9-0.2,1.2C24.6,31.8,24.1,31.8,23.9,31.2 M25.8,29.1c-0.4-0.4-0.2-0.9,0.2-1.1c0.5-0.4,1.1-0.2,1.2,0.2
	c0.4,0.4,0.2,1.1-0.2,1.2C26.6,29.6,26,29.6,25.8,29.1 M27.8,27.1c-0.2-0.5,0-1.1,0.4-1.2c0.5-0.2,1.1-0.2,1.2,0.4
	c0.2,0.4,0.2,0.9-0.4,1.1C28.7,27.7,28.2,27.5,27.8,27.1 M29.9,25c-0.2-0.4,0-0.9,0.4-1.1c0.5-0.4,1.1-0.2,1.2,0.4
	c0.2,0.4,0,0.9-0.4,1.1C30.8,25.7,30.3,25.5,29.9,25 M32.3,23c-0.4-0.4-0.2-0.9,0.4-1.1c0.4-0.4,0.9,0,1.2,0.4
	c0.2,0.4,0,0.9-0.5,1.2C33,23.8,32.4,23.6,32.3,23 M34.4,21.2c-0.2-0.5,0-1.1,0.5-1.2c0.4-0.2,0.9,0,1.1,0.5c0.4,0.4,0,0.9-0.4,1.1
	C35.1,22,34.6,21.6,34.4,21.2 M36.7,19.5c-0.2-0.5,0.2-1.1,0.5-1.2c0.5-0.2,1.1,0.2,1.2,0.5c0.2,0.5-0.2,0.9-0.5,1.2
	C37.4,20.2,36.9,19.8,36.7,19.5 M39.2,17.7c-0.2-0.4,0-0.9,0.5-1.1c0.4-0.2,0.9,0,1.1,0.5c0.2,0.4,0,0.9-0.5,1.1
	C39.9,18.4,39.4,18.2,39.2,17.7 M41.5,16.1c0-0.4,0.2-0.9,0.7-1.1c0.4-0.2,0.9,0.2,1.1,0.5c0.2,0.5-0.2,1.1-0.5,1.1
	C42.2,16.8,41.7,16.6,41.5,16.1 M44,14.6c0-0.5,0.2-1.1,0.7-1.2c0.5,0,0.9,0.2,1.1,0.7c0.2,0.4-0.2,0.9-0.5,1.1
	C44.7,15.4,44.2,15,44,14.6 M46.7,13c-0.2-0.4,0.2-0.9,0.5-1.1c0.5,0,1.1,0.2,1.1,0.7c0.2,0.5-0.2,0.9-0.5,1.1
	C47.2,13.9,46.7,13.6,46.7,13 M49.2,11.8c0-0.5,0.4-1.1,0.7-1.1c0.5-0.2,1.1,0.2,1.1,0.7c0.2,0.4-0.2,0.9-0.7,1.1
	C49.9,12.5,49.4,12.1,49.2,11.8 M51.9,10.5c0-0.5,0.4-1.1,0.7-1.1c0.5-0.2,1.1,0.2,1.1,0.7s-0.2,0.9-0.7,1.1
	C52.4,11.2,52.1,10.9,51.9,10.5 M54.6,9.3c0-0.5,0.4-0.9,0.9-1.1c0.4,0,0.9,0.4,0.9,0.9c0.2,0.4-0.2,0.9-0.7,0.9
	C55.1,10.2,54.7,9.8,54.6,9.3 M57.4,8.2c-0.2-0.5,0.2-0.9,0.7-0.9C58.7,7.1,59,7.5,59.2,8c0,0.5-0.4,0.9-0.9,0.9
	C57.8,9.1,57.4,8.7,57.4,8.2 M60.1,7.1c0-0.4,0.4-0.9,0.9-0.9c0.4,0,0.9,0.4,0.9,0.9S61.5,8,61,8C60.6,8,60.1,7.7,60.1,7.1 M63,6.2
	c0-0.4,0.4-0.9,0.9-0.9c0.4,0,0.9,0.4,0.9,0.9s-0.4,0.9-0.9,0.9S63,6.8,63,6.2 M65.8,5.5c0-0.5,0.4-0.9,0.9-0.9
	c0.4,0,0.9,0.4,0.9,0.9s-0.5,0.9-0.9,0.9C66.2,6.4,65.8,6.1,65.8,5.5 M71.5,4.3c0-0.4,0.4-0.9,0.9-0.9s0.9,0.5,0.9,0.9
	c0,0.5-0.4,0.9-0.9,0.9S71.5,4.8,71.5,4.3 M77.2,3.6c0-0.5,0.5-0.9,0.9-0.9C78.7,2.7,79,3,79,3.6s-0.4,0.9-0.9,0.9
	C77.8,4.5,77.2,4.1,77.2,3.6 M68.7,4.8c0-0.4,0.4-0.9,0.9-0.9c0.4,0,0.9,0.5,0.9,0.9c0,0.5-0.5,0.9-0.9,0.9
	C69,5.7,68.7,5.4,68.7,4.8 M74.4,3.9c0-0.5,0.4-0.9,0.9-0.9s0.9,0.4,0.9,0.9c0,0.4-0.4,0.9-0.9,0.9S74.4,4.3,74.4,3.9 M80.3,3.2
	c0-0.4,0.4-0.9,0.9-0.9c0.4,0,0.9,0.5,0.9,0.9c0,0.5-0.5,0.9-0.9,0.9C80.6,4.1,80.3,3.8,80.3,3.2 M83.1,3c0-0.4,0.4-0.7,0.9-0.7
	s0.9,0.4,0.9,0.7c0,0.5-0.4,0.9-0.9,0.9S83.1,3.6,83.1,3 M86.2,3c0-0.5,0.4-0.9,0.9-0.9C87.4,2.2,88,2.5,88,3s-0.5,0.9-0.9,0.9
	C86.5,3.9,86.2,3.6,86.2,3 M160.6,87.9V85l3.6,1.4L160.6,87.9z M156.2,85.4h0.4c0-1.1,0.4-1.4,0.9-1.4c0.2,0,0.5,0.2,0.9,0.4
	l1.8,0.5V88l-2.1,0.7c-0.2,0.2-0.5,0.2-0.7,0.2c-0.5,0-0.7-0.2-0.7-0.7v-0.7h-0.4v6.1h0.4c0-0.5,0.2-0.7,0.9-0.9l10.9-4.3v-1.1
	l-10.2-4.1c-1.2-0.4-1.4-0.7-1.6-1.4h-0.4L156.2,85.4L156.2,85.4z M139.6,25.7c1.2,1.1,0.9,2.1,0,3.2c-1.1,1.4-2,1.8-3.2,0.9
	L139.6,25.7L139.6,25.7z M133.9,35.7l0.2-0.4c-1.1-0.7-1.2-1.2-0.4-2.3l2.1-2.7l1.1,0.7c2.1,1.8,4.3,1.8,5.5,0.4
	c1.4-1.8,0.9-3.6-1.6-5.5l-5-3.9l-0.2,0.2c0.9,0.7,1.1,1.2,0.4,2.3l-5.2,6.2c-0.9,1.1-1.4,1.1-2.3,0.2l-0.2,0.4L133.9,35.7
	L133.9,35.7z M114.4,11.4c2,0.7,2.5,1.6,1.6,3.6c-0.7,1.8-1.6,2-3.4,1.2L114.4,11.4L114.4,11.4z M117.8,24.8l0.2-0.4
	c-0.7-0.4-0.9-0.7-1.1-1.4l-0.7-5c1.6,0,2.7-0.4,3.2-2c0.9-2-0.2-3.6-3.2-4.6l-6.4-2.5v0.4c1.1,0.4,1.2,0.7,0.9,2l-3,7.7
	c-0.4,1.2-0.9,1.2-2,0.9l-0.2,0.4l6.4,2.5l0.2-0.4c-1.1-0.5-1.4-0.9-0.9-2.1l1.2-3.2h0.4l0.9,6.2L117.8,24.8L117.8,24.8z M91.9,13.6
	L89,13.4l1.6-3.4C90.6,10,91.9,13.6,91.9,13.6z M89,17.9v-0.4c-1.1,0-1.2-0.4-1.2-0.9c0-0.2,0.2-0.5,0.4-0.9l0.7-1.6l3.2,0.2
	l0.5,2.1c0.2,0.2,0.2,0.5,0.2,0.7c0,0.4-0.4,0.7-0.7,0.5h-0.7v0.4l6.1,0.5v-0.5c-0.5,0-0.7-0.2-0.9-0.9L93,6.1h-1.2l-4.5,9.6
	c-0.7,1.2-0.9,1.6-1.6,1.6v0.4L89,17.9L89,17.9z M42.4,20c2.5-1.6,4.5-0.2,5.9,2.1c2,2.9,2.1,5.2,0.7,6.1c-0.5,0.4-0.9,0.4-1.4-0.5
	L42.4,20L42.4,20z M44.6,29.8c0.7,1.1,0.4,1.6-0.5,2.1l0.2,0.4l5.4-3.6c3.2-2,4.3-5.2,2.1-8.4c-2.1-3.4-5.5-3.8-8.8-1.6l-5.4,3.4
	l0.2,0.4c1.1-0.7,1.6-0.7,2.3,0.4L44.6,29.8L44.6,29.8z M144.9,29.5l-0.4,0.2c0.7,0.9,0.9,1.4-0.2,2.3l-4.8,4.1
	c-2.1,1.8-1.8,4.1,0,6.1c1.8,2.3,3.9,2.9,6.1,1.1l4.8-3.9c1.1-0.9,1.6-0.7,2.3,0.2l0.4-0.4l-2.7-2.9l-0.2,0.2
	c0.5,0.9,0.5,1.4-0.4,2.1l-4.8,4.1c-1.6,1.4-3.4,0.9-4.3-0.2c-0.7-0.9-0.9-2,0.5-3.2l5.4-4.5c1.1-0.9,1.6-0.7,2.3,0.2l0.4-0.2
	L144.9,29.5L144.9,29.5z M127.6,30.5l2.3-2.7l-0.4-0.2c-2,1.8-3.2,1.2-4.1,0.7l-1.4-0.7c-0.5-0.4-0.5-0.7-0.2-1.2l2.1-3.6
	c1.4,0.9,1.6,1.6,0.7,3.4l0.4,0.2l3-5l-0.4-0.2c-1.2,1.6-2,2-3.4,1.1l2.5-4.1l1.6,0.9c1.6,1.1,2,2.1,1.2,3.8l0.2,0.2l1.8-2.9
	l-8.9-5.4l-0.2,0.4c0.9,0.5,1.2,1.1,0.5,2.1l-4.3,7c-0.7,1.1-1.2,1.1-2.1,0.5l-0.2,0.4L127.6,30.5L127.6,30.5z M84.4,17.7l-0.2-4.6
	h-0.4c-0.2,1.6-0.5,3.9-3,4.3c-1.1,0-1.2,0-1.2-0.9l-0.9-8.4c-0.2-1.2,0.2-1.6,1.4-1.6V6.1l-7,0.7v0.4c1.2-0.2,1.8,0,1.8,1.4l0.9,8
	c0.2,1.2-0.2,1.6-1.4,1.8v0.4L84.4,17.7L84.4,17.7z M64.7,21.3L64,17.7l-0.5,0.2c0.5,2.7-0.7,3.4-1.8,3.9l-1.4,0.5
	c-0.5,0.2-0.9,0.2-1.1-0.5l-1.6-3.8c1.6-0.7,2.1-0.4,3.2,1.4l0.4-0.2l-2.3-5.4l-0.4,0.2c0.5,1.8,0.4,2.5-1.2,3.2l-1.8-4.5l1.8-0.7
	c1.8-0.7,2.7-0.4,3.6,1.2l0.4-0.2l-1.2-3l-9.6,4.1l0.2,0.4c1.1-0.5,1.6-0.4,2.1,0.9l3,7.3c0.5,1.2,0.2,1.8-0.9,2.1l0.2,0.4
	L64.7,21.3L64.7,21.3z M15.8,91.7c1.2,0,1.4,0.4,1.6,1.6h0.4l-0.2-7c0-3.2-1.4-4.3-3.4-4.3c-1.8,0-2.7,1.1-3,2.9
	c-0.4-1.2-1.1-2.3-2.5-2.3c-2,0-3.2,1.2-3.2,4.1l0.2,6.8H6c0-1.2,0.4-1.6,1.6-1.8H15.8L15.8,91.7z M6.2,88.2c0.2-1.4,1.1-2,2.5-2
	c1.6,0,2.1,0.5,2.3,2C11,88.2,6.2,88.2,6.2,88.2z M11.7,88.2c0-1.8,1.2-2.5,2.5-2.5c1.8,0,2.9,0.5,2.9,1.4c0,0.5-0.2,0.9-1.4,0.9
	L11.7,88.2z M14.2,75.1l-0.5,2.7l-3.2-2L14.2,75.1L14.2,75.1z M18.3,78.2H18c-0.2,1.1-0.5,1.2-1.1,1.2c-0.4-0.2-0.5-0.2-0.9-0.4
	l-1.6-0.9l0.5-3.2l2.1-0.5h0.7c0.5,0,0.5,0.4,0.5,0.7L18.2,76h0.5l0.9-6.1h-0.4c-0.2,0.5-0.4,0.7-1.1,0.9L6.7,73.3l-0.2,1.1l9.5,5.5
	c1.1,0.7,1.4,0.9,1.2,1.6l0.5,0.2L18.3,78.2L18.3,78.2z M20.8,66l-0.2-0.2c-0.5,1.1-0.9,1.4-2.1,0.9l-7.3-2.7l12-4.1l0.4-1.1
	l-9.5-3.6c-1.2-0.4-1.4-0.9-1.1-2l-0.2-0.2l-1.4,3.9h0.4c0.4-1.1,0.7-1.4,2-0.9l5.2,1.8l-9.1,3l-1.6,4.6l0.4,0.2
	c0.4-0.9,0.5-1.1,1.4-1.2l8.2,3c1.2,0.4,1.4,0.9,1.1,2l0.4,0.2C19.6,69.8,20.8,66,20.8,66z M24.2,44.6c3.2,2.5,6.6,1.6,8.9-1.4
	s2.5-6.4-0.9-8.9c-3.2-2.7-6.6-1.8-8.9,1.2S21,41.9,24.2,44.6 M26.5,41.6c-3-2.5-3.6-4.3-2.5-5.5c0.9-1.4,2.9-1.4,6.1,1.1
	c3,2.5,3.6,4.3,2.5,5.5C31.5,44.1,29.8,44.1,26.5,41.6 M26.2,46.9c0.4,1.1,1.1,2.7,0.2,4.1c-1.1,2-3.4,1.6-6.1,0
	c-2.5-1.4-4.1-3.2-3-5.2c0.9-1.4,2.5-1.8,4.1-1.2l0.2-0.4l-3.2-1.8L18,42.6c0.4,0.4,0.7,0.5,0.5,0.9c-0.4,0.5-1.6,1.1-2.5,2.7
	c-1.8,2.9-1.1,6.1,2.5,8c3.6,2.1,6.6,1.1,8.2-1.8c0.9-1.6,1.1-3.6,0.5-5L26.2,46.9L26.2,46.9z M159.6,81.7c-0.9-0.5-2.5-1.6-2.7-3.2
	c-0.4-2.1,1.8-3.2,4.8-3.6c3-0.4,5.4,0,5.5,2.3c0.2,1.6-0.9,2.9-2.5,3.4V81l3.8-0.4v-0.4c-0.5-0.2-0.7-0.2-0.7-0.5
	c-0.2-0.5,0.5-1.8,0.4-3.6c-0.5-3.4-2.9-5.5-7-5c-3.9,0.5-5.9,3.2-5.5,6.4c0.4,1.8,1.2,3.4,2.7,4.3L159.6,81.7L159.6,81.7z
	 M154.9,72.5l0.4-0.2c-0.4-1.1-0.2-1.6,1.1-2l7.9-2.1c1.2-0.4,1.6,0,2,1.2l0.4-0.2l-1.8-6.6h-0.4c0.4,1.2,0.2,1.8-1.1,2l-7.9,2.1
	c-1.2,0.4-1.8,0-2-1.1h-0.4L154.9,72.5L154.9,72.5z M152.8,64.6l4.3-1.4v-0.4c-1.6,0.4-3.9,0.5-5-1.6c-0.4-0.9-0.4-1.2,0.5-1.6
	l7.7-3.2c1.2-0.5,1.6-0.2,2.1,0.9l0.4-0.2l-2.9-6.2h-0.4c0.5,1.1,0.5,1.6-0.7,2.1l-7.5,3.2c-1.2,0.5-1.6,0.2-2.1-0.9l-0.4,0.2
	L152.8,64.6L152.8,64.6z M154.1,35.1l-4-0.3l-0.5-0.6l2.8-1.2L154.1,35.1L154.1,35.1z M86.9,20.6L86.9,20.6c-18.3,0-35,7.4-47,19.4
	c-12,12-19.5,28.6-19.5,47l0,0c0,18.3,7.4,35,19.5,47s28.6,19.5,47,19.5l0,0c18.4,0,35-7.4,47-19.5s19.4-28.6,19.4-47l0,0
	c0-18.4-7.4-35-19.4-47C121.9,28,105.3,20.6,86.9,20.6 M86.9,19.7L86.9,19.7c18.7,0,35.6,7.5,47.7,19.7
	c12.2,12.2,19.7,29.1,19.7,47.8l0,0c0,18.6-7.5,35.5-19.7,47.7c-12.2,12.2-29,19.8-47.7,19.8l0,0c-18.6,0-35.5-7.6-47.7-19.8
	s-19.8-29.1-19.8-47.7l0,0c0-18.7,7.6-35.6,19.8-47.8C51.4,27.2,68.3,19.7,86.9,19.7L86.9,19.7L86.9,19.7z M86.9,0L86.9,0
	c24.1,0,45.8,9.7,61.6,25.5S174,63,174,87.1l0,0c0,24-9.7,45.7-25.5,61.4C132.7,164.3,111,174,86.9,174l0,0
	c-24,0-45.7-9.7-61.4-25.5S0,111.1,0,87.1l0,0c0-24.1,9.7-45.8,25.5-61.6C41.2,9.7,62.9,0,86.9,0 M86.9,1L86.9,1
	c-23.7,0-45.2,9.6-60.7,25.2C10.6,41.8,1,63.3,1,87.1l0,0c0,23.7,9.6,45.2,25.2,60.7s37,25.2,60.7,25.2l0,0
	c23.8,0,45.3-9.6,60.9-25.2s25.2-37,25.2-60.7l0,0c0-23.8-9.6-45.3-25.2-60.9C132.2,10.6,110.7,1,86.9,1L86.9,1z M19.2,113.7
	c-1.6,0.7-2.3,2.3-1.6,3.9c0.7,1.4,2.5,2.1,3.9,1.4c1.6-0.5,2.1-2.3,1.6-3.9C22.4,113.7,20.7,113,19.2,113.7 M122.9,88
	c-0.5,0.3-0.8,0.5-1.1,0.7c-0.2,0.2-0.3,0.3-0.4,0.5v0.5l0,0c0,0.1,0.3,0.5,0.6,0.9c0.7,1,1.7,2.3,1.7,3.8l0,0v0.1
	c-0.1,0.8-0.4,2-1.4,2.8c-0.2,0.2-0.4,0.3-0.6,0.5c-0.2,0.2-0.5,0.3-0.8,0.4c-2.1,0.7-4.2,1.5-6.2,2.3c-2,0.8-4,1.7-6,2.6l0,0
	c-0.1,0.1-0.3,0.1-0.3,0.3v0c-0.4,2.8-0.8,7.5-0.7,12.2c0,0.9,0.1,1.8,0.1,2.7c0.1,0.8,0.1,1.7,0.2,2.5l0,0c0.3,2.5,1,4.5,1.7,5.7
	c0.1,0.2,0.3,0.4,0.4,0.6c0.1,0.1,0.2,0.2,0.3,0.3c0.4,0.3,1,0.6,1.6,0.9c2.7,1.6,6.4,3.8,8.3,6.8l0,0c0.2,0.2,0.1,0.6-0.2,0.7
	c-2.1,1.5-4.7,2.1-7.5,2.2c-2.7,0.1-5.6-0.2-8.4-0.6c-3.3-0.5-6.8-2-10.2-3.5c-1.4-0.6-2.8-1.2-4.1-1.7l0,0
	c-0.7-0.3-1.6-0.5-2.4-0.6c-0.2,0-0.3,0-0.5,0c-0.2,0-0.3,0-0.5,0h0c-0.3,0-0.7,0.1-1.1,0.1c0,0,0,0,0,0c-0.2,0-0.4,0.1-0.7,0.1
	c-0.9,0.1-1.7,0.3-2.4,0.2h0c-0.2,0-0.3-0.1-0.5-0.1h0c-0.7-0.1-1.3-0.2-1.9-0.4c-0.7-0.2-1.3-0.4-1.9-0.7c-0.4,0.2-0.8,0.5-1.2,0.7
	c-1.5,0.9-3,1.7-2.6,4c0,0.2,0,0.4-0.1,0.5c-0.2,0.2-0.6,0.2-0.8,0c-1.4-1.3-2.8-3.6-2.9-6c0-0.5,0-1,0.1-1.4l0,0
	c-1.8,1.1-3.1,2-3.2,3.6c0,0.3,0,0.6,0.1,0.8c0.1,0.3,0.3,0.5,0.6,0.8c0,0,0,0,0,0s0,0,0,0h0v0l0,0l0,0v0h0v0h0l0,0.1l0,0v0l0,0
	c0,0.1,0,0.2,0,0.2l0,0v0l0,0v0c0,0,0,0,0,0.1l0,0c0,0,0,0,0,0.1l0,0v0l0,0v0l0,0c0,0.1-0.1,0.1-0.1,0.1l0,0v0h0v0h0v0h0v0h0v0h0v0
	h0v0h0c-0.1,0.1-0.2,0.1-0.3,0.1c-5.8-1.1-5.9-5-5.2-8.8c0.1-0.7,0.3-1.3,0.4-1.9c0.3-1.5,0.6-2.8,0.4-3.6l0,0
	c-0.2-0.9-1.3-1.9-2.5-3c-1.5-1.4-3.2-2.9-3.8-4.8c-0.3,0.7-0.5,1.4-0.6,2.1c-0.2,1.1,0.2,2,0.5,3.1c0.6,1.8,1.3,3.8,0.3,7.1
	c-0.1,0.3-0.4,0.4-0.7,0.4c0,0-0.1,0-0.2-0.1l-2.8-2l-2,1.9c-0.2,0.2-0.6,0.2-0.8,0c-0.2-0.2-0.2-0.5-0.1-0.7
	c1.6-2.4,1.6-5.4,1.5-8.4c-0.1-2.2-0.1-4.3,0.5-6.2c0.5-1.8,1.8-3.1,3.1-4.4c1.6-1.6,3.1-3.2,3-5.5c-1.3,0.4-3,0.2-5.1-0.8l0,0
	c-0.1,0-0.1-0.1-0.2-0.1c-0.4-0.4-0.3-0.9-0.2-1.4c0.1-0.2,0.1-0.5,0.1-0.7c0-0.2-0.2-0.4-0.2-0.5c-0.3-0.5-0.6-1,0-1.6
	c0.1-0.1,0.2-0.2,0.3-0.3c-1.1,0-2.2-0.3-3.2-0.8c-0.3-0.2-0.6-0.3-0.8-0.5c-0.2-0.2-0.5-0.4-0.7-0.6l0,0c-0.7-0.9-0.2-2.7,0.5-3.9
	c0.1-0.2,0.3-0.4,0.4-0.6c0.1-0.2,0.3-0.3,0.4-0.5h0c0.6-0.7,1.2-0.8,1.9-0.6c0.7,0.2,1.4,0.6,2.2,1.1c0.8,0.5,1.6,1,2.5,1.3
	c-0.1-0.3-0.1-0.6-0.1-0.8l0,0c0-0.2,0-0.4,0.1-0.6c-1-0.7-1.9-1.5-2.8-2.4c-1-1-1.8-2.1-2.6-3.2c-3.7-5.5-5.1-12.9-2.4-19.8v0
	c0.2-0.4,0.4-0.8,0.6-1.3c-0.3-1.6-0.2-3.2,0.2-4.8c0.7-3,2.5-6.1,5.6-9.3l0,0l0,0l0,0c0,0,0,0,0,0c0.7-0.7,1.5-1.5,2.3-2.2
	c1.2-1.1,2.6-2.2,4.2-3.3c2.4-1.8,5.1-3.2,7.8-4.3l0,0l0,0c1.8-0.7,3.6-1.3,5.5-1.8c0,0,0,0,0.1,0c0.9-0.2,1.8-0.5,2.7-0.6
	c1.1-0.2,2.3-0.4,3.4-0.6c1.2-0.2,2.3-0.3,3.5-0.4l0,0c0.5,0,1-0.1,1.4-0.2c0.1,0,0.1,0,0.2,0l0,0c0.4-0.1,0.8-0.1,1.2-0.2
	c0.7-0.1,1.3-0.2,2-0.3c0.1,0,0.2,0,0.2,0c1.6-0.2,3.6-0.1,6.8,0.7c0.3-0.3,0.6-0.6,0.9-0.9c0,0,0,0,0,0l0,0
	c0.2-0.2,0.4-0.2,0.6-0.1l6.2,2.4c1-0.2,2.1-0.3,3.1-0.2c1,0.2,2,0.7,2.8,1.8c0.6,0.2,1.6,0.7,2.1,1.2c0.1,0.1,0.2,0.3,0.3,0.4
	c0.1,0.2,0.2,0.4,0.1,0.6l0,0c0,0,0,0,0,0c-0.3,1.4-0.6,2.4-1.2,3.3c0,0,0,0.1-0.1,0.1c0.7,1.5,1.4,2.8,2.2,4.2
	c2.2,4.2,4.4,8.4,4.8,13.5c0.3,4,3.7,8.8,6.1,12.2c0.3,0.4,0.6,0.9,0.9,1.3l0,0c0.1,0.2,0.3,0.4,0.5,0.6c0.9,1.1,1.9,2.3,0.9,4.1
	c0,0,0,0.1-0.1,0.1c-0.3,0.4-0.7,0.7-1.2,0.9c-0.5,0.2-1,0.3-1.5,0.5l0,0c-0.6,0.1-1.1,0.4-1.4,0.8c0,0.1-0.1,0.1-0.1,0.2
	c0,0.1,0,0.1,0,0.2l0,0c0,0.4,0.3,0.7,0.6,1c0.5,0.5,0.9,1,0.6,1.9v0c-0.1,0.3-0.5,0.6-0.9,0.9c-0.1,0.1-0.3,0.2-0.5,0.4
	c0.3,0.4,0.6,0.9,0.8,1.4c0,0.1,0.1,0.3,0.1,0.4c0,0.2,0,0.3,0,0.4c-0.1,0.4-0.3,0.7-0.5,0.9L122.9,88L122.9,88z"/>
</svg>
