<?xml version="1.0" encoding="utf-8"?>
<!-- Generator: Adobe Illustrator 21.1.0, SVG Export Plug-In . SVG Version: 6.00 Build 0)  -->
<svg version="1.1" xmlns="http://www.w3.org/2000/svg" xmlns:xlink="http://www.w3.org/1999/xlink" x="0px" y="0px"
	 viewBox="0 0 3920.1 333.6" style="enable-background:new 0 0 3920.1 333.6;" xml:space="preserve">
<style type="text/css">
	.st0{fill:none;}
</style>
<g id="uniandes">
	<g>
		<g>
			<g>
				<path class="st0" d="M3088.6,274.8c-47.2,30.6-96.2,28.9-96.2,28.9s-1.3-6.3-0.8-17c0.5-10.8,6.4-7.8,10.7-16.3
					c1.5-3.1,2.9-5.2,5.3-12.5c0.1-0.3-2.8-52-3.6-73.9c-0.4-11.8-2.6-31.5-5.2-50.7c-1.5-11.4-5-20.4-6.6-31.1
					c-2.3-15.6-5-33.1-5-33.1c-1.9,5-4.7,23.5-7.4,44.4c-1.3,10.1-2.7,20.7-3.9,30.6c-2.6,21-9.2,77.1-10.2,80.2
					c-1.5,4.6-1.7-1.2-1.7-1.2s3.9-58.9,5-84.7c0.6-12.6,1.5-26.5,3.1-39.8c1.2-10,2.7-19.7,4.7-28.3c0,0,6.7-20.4,8.9-20.8
					c2.2-0.4,9.9,12.9,12.6,24.6c6,26.6,9.5,30,14,58c4.3,26.6,8.3,48.8,8.8,52.4c1.9,13.2,1,54.3-2.3,70.7c-0.8,4.5-1,6.1-3.9,9.1
					c-6.9,6.9-11.7,15.2-11.7,20.6c0,5.4-0.9,5.3,0.4,8.4c0,0,9,13.5,60.9-17.4c0,0,16.2-8.5,16.2-27.2V59.1c0,0-51.4-17.4-91-17.4
					c-39.6,0-89.2,17.3-89.2,17.3v188.7c0,11.6,1.7,32.6,18.3,40c0,0-44.2-14.3-44.2-40.2V43.1c0,0,67.4-12.4,115.1-12.4
					c47.7,0,116.3,12.4,116.3,12.4v204.7C3105.9,265.4,3088.6,274.8,3088.6,274.8"/>
			</g>
			<g>
				<path class="st0" d="M3232.6,216c-11.4,6.1-26,9.1-43.8,9.1c-29.5,0-44.3-12.8-44.3-38.5v-77.9h25.8V188
					c0,12.9,6.4,19.3,19.3,19.3c7,0,12.8-1.3,17.2-3.8v-94.9h25.8V216z"/>
				<path class="st0" d="M3344.9,222.8h-25.8v-81c0-12.7-6.9-19.1-20.6-19.1c-6.5,0-12.5,1.1-17.8,3.2v96.9h-25.8v-108
					c11.7-5.5,26.6-8.3,44.7-8.3c16,0,27.8,3.5,35.4,10.6c6.6,5.9,9.9,14,9.9,24.4V222.8z"/>
				<path class="st0" d="M3395.1,76.1c0,3.5-1.4,6.5-4.1,9c-2.8,2.5-6.1,3.7-10.1,3.7c-4,0-7.3-1.2-10.1-3.7c-2.8-2.5-4.1-5.5-4.1-9
					c0-3.6,1.4-6.6,4.1-9.1c2.7-2.5,6.1-3.8,10.1-3.8c3.9,0,7.3,1.2,10.1,3.7C3393.7,69.4,3395.1,72.5,3395.1,76.1 M3393.8,222.8
					h-25.8V108.6h25.8V222.8z"/>
				<path class="st0" d="M3499.5,216.7c-10.3,5.5-24.1,8.3-41.3,8.3c-31.1,0-46.6-11.6-46.6-34.7c0-13.8,6.3-24.2,18.8-31.1
					c9.9-5.4,24.9-9,44.9-11v-6.1c0-12.6-7.6-18.9-22.7-18.9c-9.4,0-19,2.3-28.6,7l-5.9-14.8c11.9-5.8,24.9-8.7,39.2-8.7
					c28.1,0,42.2,13.2,42.2,39.4V216.7z M3475.3,207.4v-47.1c-13.5,1.7-23.2,4.3-28.8,7.8c-7,4.4-10.6,11.5-10.6,21.2
					c0,14.2,8,21.2,23.9,21.2C3465.9,210.5,3471,209.5,3475.3,207.4"/>
				<path class="st0" d="M3611.7,222.8h-25.8v-81c0-12.7-6.9-19.1-20.6-19.1c-6.5,0-12.5,1.1-17.8,3.2v96.9h-25.8v-108
					c11.7-5.5,26.6-8.3,44.7-8.3c16,0,27.8,3.5,35.4,10.6c6.6,5.9,10,14,10,24.4V222.8z"/>
				<path class="st0" d="M3722.9,216.7c-9.9,5.5-23.2,8.3-39.8,8.3c-16.8,0-29.9-5.1-39.2-15.3c-9.3-10.2-14-24.4-14-42.6
					c0-18.4,4.7-33,14-43.9c9-10.4,21.1-15.7,36.1-15.7c6.7,0,12.4,0.7,17.2,2.1V63.4h25.8V216.7z M3697.1,205.9v-82.2
					c-3.4-1-7.2-1.5-11.4-1.5c-20.1,0-30.1,14.5-30.1,43.4c0,28.5,9.4,42.8,28.2,42.8C3689.9,208.4,3694.4,207.5,3697.1,205.9"/>
				<path class="st0" d="M3835.3,165l-69.9,10.2c2.1,21.2,12.5,31.8,31.1,31.8c11,0,20.6-2.1,28.8-6.4l6.1,16.3
					c-9.7,5.4-22.3,8.1-37.7,8.1c-16.4,0-29.3-5.2-38.8-15.5c-9.4-10.3-14.2-25-14.2-44.1c0-18.5,4.3-32.9,13-43.3
					c8.7-10.4,20.6-15.6,35.7-15.6c15.3,0,26.8,5,34.8,14.9C3832.2,131.4,3835.8,145.9,3835.3,165 M3811.1,154.8
					c0-21.6-7.5-32.4-22.4-32.4c-7.9,0-14,3.2-18.2,9.5c-4.7,6.9-6.8,16.9-6.6,30.1L3811.1,154.8z"/>
				<path class="st0" d="M3918.6,190c0,9.6-3.7,17.8-11.2,24.6c-7.5,6.8-17.3,10.1-29.4,10.1c-13,0-23.5-2.8-31.5-8.3l6.8-16.5
					c5.5,4.3,12.6,6.5,21.4,6.5c5.2,0,9.5-1.5,12.7-4.6c3.3-3,4.9-6.9,4.9-11.5c0-4.8-1.3-8.6-3.8-11.3c-2.5-2.8-6.8-5.2-12.9-7.5
					c-17.4-6.6-26-17.3-26-32c0-9.3,3.4-17.1,10.1-23.5c6.7-6.4,15.4-9.5,26.2-9.5c11.6,0,21.5,2.7,29.7,8l-6.4,15
					c-5.2-4.2-11.3-6.3-18.2-6.3c-5.1,0-9.1,1.4-12,4.3c-2.9,2.9-4.3,6.5-4.3,10.7c0,7.5,5.6,13.5,16.9,18
					C3909.5,163.6,3918.6,174.9,3918.6,190"/>
			</g>
		</g>
	</g>
</g>
<g id="C">
</g>
<g id="A_1_">
</g>
<g id="D">
</g>
<g id="A">
</g>
<g id="B">
</g>
<g id="_x35_">
</g>
<g id="_x34_">
</g>
<g id="_x33_">
</g>
<g id="_x32_">
</g>
<g id="_x31_">
	<g>
		<g>
			<path class="st0" d="M2583.9,122.6c-24.3-15.7-60.8-1.1-60.8,32.5c0,35.2,38.7,49.3,62.3,31.4l16.1,18.4
				c-11.2,9.3-25.7,15-41.4,15c-35.7,0-64.8-29.1-64.8-64.8c0-35.7,29.1-64.8,64.8-64.8c15,0,28.9,5.2,40,13.7L2583.9,122.6z"/>
		</g>
		<g>
			<path class="st0" d="M2216.9,194.1h-51.7l-11.8,23.2h-28l63.7-125.2h7.3l59.1,125.2h-27.7L2216.9,194.1z M2205.1,169.1l-13-27.9
				l-14.1,27.9H2205.1z"/>
		</g>
		<g>
			<path class="st0" d="M1819.3,92.1c8.4,0,16.6,1.6,24.3,4.8c7.5,3.2,14.1,7.7,19.8,13.4c5.9,5.9,10.3,12.5,13.4,20
				c3.4,7.7,5,15.9,5,24.3c0,8.6-1.6,16.8-5,24.5c-3,7.5-7.5,14.1-13.4,19.8c-5.7,5.7-12.3,10.4-19.8,13.4c-7.7,3.4-15.9,5-24.3,5
				h-25.2v-0.2h-10.2v-125H1819.3z M1819.3,192.3c20.7,0,37.5-17,37.5-37.7c0-20.7-16.8-37.5-37.5-37.5h-10.3v75.2H1819.3z"/>
		</g>
		<g>
			<path class="st0" d="M1501.7,194.2h-51.7l-11.8,23.2h-28l63.7-125.2h7.3l59.1,125.2h-27.7L1501.7,194.2z M1489.9,169.2l-13-27.9
				l-14.1,27.9H1489.9z"/>
		</g>
		<g>
			<path class="st0" d="M1112.1,92.4c20.2,0,36.6,16.4,36.6,36.6c0,7.7-2.3,14.6-6.4,20.5c9.1,7,14.8,17.9,14.8,30
				c0,21.1-16.9,37.9-37.8,37.9h-41.2v-125H1112.1z M1111.1,141.9c7,0,14.5-5.7,14.5-14.5s-7.5-14.1-14.5-14.1h-10.9v28.6H1111.1z
				 M1118.9,196.2c8.4,0,15.3-6.6,15.3-15c0-8.4-7-15.2-15.3-15.2h-18.2v30.2H1118.9z"/>
		</g>
		<path class="st0" d="M2715,0.6h-333.5V334l0,0H2715l0,0L2715,0.6L2715,0.6z M2675.4,240.8h-261.2V68.2h261.2V240.8z"/>
		<path class="st0" d="M2357.1,0.4h-333.5v333.5l0,0h333.5l0,0L2357.1,0.4L2357.1,0.4z M2317.5,240.6h-261.2V68.1h261.2V240.6z"/>
		<path class="st0" d="M1999.6,0.4h-333.5v333.5l0,0h333.5l0,0L1999.6,0.4L1999.6,0.4z M1959.9,240.6h-261.2V68.1h261.2V240.6z"/>
		<path class="st0" d="M1641.9,0.6h-333.5V334l0,0h333.5l0,0L1641.9,0.6L1641.9,0.6z M1602.2,240.8h-261.2V68.2h261.2V240.8z"/>
		<path class="st0" d="M1284.3,0.6H950.8V334l0,0h333.5l0,0L1284.3,0.6L1284.3,0.6z M1244.7,240.8H983.5V68.2h261.2V240.8z"/>
	</g>
</g>
<g id="bnc">
	<path class="st0" d="M0-1.1v315.2l21.5,20.6l77.5-76.8L98.9,98.7l34.2,0L133,257.9l77.6,76.8l21.5-20.6V-1.1H0z M210.5,302.3
		l-55.4-53.8l-0.1-171.7H77l-0.1,171.7l-55.4,53.8V20.4h189V302.3z"/>
	<path class="st0" d="M286.5,86.2V8.7h11.6c5.2,0,9.3,0.4,12.4,1.2c3.1,0.8,5.7,2.2,7.9,4.1c2.2,2,3.9,4.4,5.2,7.4c1.3,3,2,6,2,9
		c0,5.6-2.1,10.3-6.4,14.1c4.1,1.4,7.4,3.9,9.7,7.4c2.4,3.5,3.6,7.5,3.6,12.1c0,6.1-2.1,11.2-6.4,15.4c-2.6,2.6-5.5,4.4-8.7,5.4
		c-3.5,1-7.9,1.5-13.2,1.5L286.5,86.2L286.5,86.2L286.5,86.2z M298.1,42h3.7c4.3,0,7.5-1,9.6-2.9c2-1.9,3-4.8,3-8.5
		c0-3.6-1-6.4-3.1-8.3c-2.1-1.9-5.1-2.8-9-2.8h-4.1L298.1,42L298.1,42z M298.1,75.2h7.2c5.3,0,9.2-1,11.6-3.1
		c2.6-2.2,3.9-5.1,3.9-8.5c0-3.3-1.2-6.2-3.8-8.4c-2.4-2.2-6.8-3.4-13.1-3.4h-5.9L298.1,75.2L298.1,75.2z"/>
	<path class="st0" d="M343.3,17c0-2,0.7-3.7,2.2-5.1c1.4-1.4,3.2-2.2,5.2-2.2c2,0,3.8,0.7,5.2,2.2c1.4,1.4,2.2,3.1,2.2,5.2
		s-0.7,3.8-2.2,5.2c-1.4,1.4-3.1,2.2-5.2,2.2c-2,0-3.8-0.7-5.2-2.2C344.1,20.8,343.3,19,343.3,17z M356.3,37.3v48.9h-11.3V37.3
		H356.3z"/>
	<path class="st0" d="M381.9,1.4V43c4.5-4.7,9.6-7,15.3-7c6.6,0,12.1,2.5,16.5,7.4c4.4,4.9,6.6,11,6.6,18.3c0,7.5-2.2,13.7-6.6,18.7
		c-4.4,4.9-9.9,7.3-16.6,7.3c-5.7,0-10.7-2.2-15.2-6.5v5.1h-11.3V1.4C370.6,1.4,381.9,1.4,381.9,1.4z M408.8,62.1
		c0-4.7-1.3-8.5-3.8-11.4c-2.6-3-5.8-4.5-9.7-4.5c-4.1,0-7.5,1.5-10.1,4.4c-2.6,2.9-3.9,6.6-3.9,11.2c0,4.7,1.3,8.5,3.8,11.4
		c2.5,2.9,5.9,4.4,10,4.4c3.9,0,7.2-1.5,9.7-4.4C407.5,70.2,408.8,66.5,408.8,62.1z"/>
	<path class="st0" d="M443.5,1.4v84.7h-11.3V1.4H443.5z"/>
	<path class="st0" d="M456.1,17c0-2,0.7-3.7,2.2-5.1c1.4-1.4,3.2-2.2,5.2-2.2c2,0,3.8,0.7,5.2,2.2c1.4,1.4,2.2,3.1,2.2,5.2
		s-0.7,3.8-2.2,5.2c-1.4,1.4-3.1,2.2-5.2,2.2c-2,0-3.8-0.7-5.2-2.2C456.8,20.8,456.1,19,456.1,17z M469.1,37.3v48.9h-11.3V37.3
		H469.1z"/>
	<path class="st0" d="M481.1,61.4c0-7.1,2.5-13.1,7.6-18s11.2-7.4,18.5-7.4c7.3,0,13.5,2.5,18.6,7.5c5,5,7.5,11.1,7.5,18.4
		c0,7.3-2.5,13.5-7.6,18.4c-5.1,4.9-11.3,7.4-18.7,7.4c-7.3,0-13.5-2.5-18.4-7.5C483.6,75.1,481.1,68.9,481.1,61.4z M492.6,61.6
		c0,4.9,1.3,8.7,3.9,11.6c2.7,2.9,6.2,4.3,10.6,4.3c4.4,0,7.9-1.4,10.6-4.3c2.6-2.8,4-6.6,4-11.4s-1.3-8.5-4-11.4
		c-2.7-2.9-6.2-4.3-10.6-4.3c-4.3,0-7.8,1.4-10.5,4.3C494,53.3,492.6,57,492.6,61.6z"/>
	<path class="st0" d="M557.4,47.8v38.3h-11.3V47.8h-4.8V37.3h4.8V19.4h11.3v17.9h8.8v10.5H557.4z"/>
	<path class="st0" d="M619.3,64.4h-35c0.3,4,1.6,7.2,3.9,9.6c2.3,2.3,5.3,3.5,8.9,3.5c2.8,0,5.1-0.7,7-2c1.8-1.3,3.9-3.8,6.2-7.4
		l9.5,5.3c-1.5,2.5-3,4.7-4.7,6.4c-1.6,1.8-3.4,3.3-5.3,4.4c-1.9,1.2-3.9,2-6.1,2.5c-2.2,0.5-4.5,0.8-7.1,0.8
		c-7.3,0-13.1-2.3-17.6-7c-4.4-4.7-6.6-11-6.6-18.8c0-7.7,2.1-14,6.4-18.8c4.3-4.7,10-7.1,17.2-7.1c7.2,0,12.9,2.3,17.1,6.9
		c4.1,4.5,6.2,10.9,6.2,18.9L619.3,64.4z M607.7,55.1c-1.6-6-5.4-9-11.4-9c-1.4,0-2.7,0.2-3.9,0.6c-1.2,0.4-2.3,1-3.3,1.8
		s-1.8,1.7-2.5,2.8c-0.7,1.1-1.2,2.4-1.6,3.8H607.7z"/>
	<path class="st0" d="M669.6,39.4v15c-2.6-3.1-4.9-5.3-6.9-6.5c-2-1.2-4.4-1.8-7.1-1.8c-4.2,0-7.8,1.5-10.6,4.5
		c-2.8,3-4.2,6.7-4.2,11.2c0,4.6,1.4,8.3,4.1,11.3c2.7,2.9,6.2,4.4,10.5,4.4c2.7,0,5.1-0.6,7.2-1.8c2-1.1,4.4-3.3,7.1-6.6V84
		c-4.6,2.4-9.2,3.6-13.7,3.6c-7.6,0-13.9-2.4-19-7.3c-5.1-4.9-7.6-11-7.6-18.3s2.6-13.4,7.7-18.5c5.1-5,11.5-7.5,19-7.5
		C660.8,35.9,665.4,37.1,669.6,39.4z"/>
	<path class="st0" d="M716.6,37.3h11.3v48.9h-11.3V81c-4.7,4.3-9.6,6.5-15,6.5c-6.8,0-12.3-2.4-16.8-7.3c-4.4-5-6.6-11.2-6.6-18.7
		c0-7.3,2.2-13.4,6.6-18.3c4.4-4.9,9.9-7.3,16.5-7.3c5.7,0,10.8,2.3,15.3,7L716.6,37.3L716.6,37.3z M689.8,61.6
		c0,4.7,1.2,8.5,3.8,11.4c2.6,3,5.8,4.5,9.7,4.5c4.2,0,7.6-1.4,10.1-4.3c2.6-3,3.9-6.8,3.9-11.3c0-4.6-1.3-8.4-3.9-11.3
		c-2.6-2.9-5.9-4.4-10-4.4c-3.9,0-7.1,1.5-9.7,4.4C691.1,53.5,689.8,57.2,689.8,61.6z"/>
	<g>
		<path class="st0" d="M286.5,193.1v-82.7l56.5,59.1v-53.8h11.7v82.2l-56.5-58.9v54.2L286.5,193.1L286.5,193.1z"/>
		<path class="st0" d="M408.1,144.2h11.3v48.9h-11.3V188c-4.7,4.4-9.6,6.5-15,6.5c-6.8,0-12.3-2.4-16.8-7.3
			c-4.4-5-6.6-11.2-6.6-18.7c0-7.3,2.2-13.4,6.6-18.3c4.4-4.9,9.9-7.3,16.5-7.3c5.7,0,10.8,2.3,15.3,7L408.1,144.2L408.1,144.2z
			 M381.3,168.5c0,4.7,1.3,8.5,3.8,11.4c2.6,3,5.8,4.5,9.7,4.5c4.2,0,7.6-1.4,10.1-4.3c2.6-3,3.9-6.8,3.9-11.3s-1.3-8.4-3.9-11.3
			c-2.6-2.9-5.9-4.4-10-4.4c-3.9,0-7.1,1.5-9.7,4.4C382.6,160.4,381.3,164.1,381.3,168.5z"/>
		<path class="st0" d="M471.7,146.3v15c-2.6-3.1-4.9-5.3-6.9-6.5c-2-1.2-4.4-1.8-7.1-1.8c-4.2,0-7.8,1.5-10.6,4.5
			c-2.8,3-4.2,6.7-4.2,11.2c0,4.6,1.4,8.3,4.1,11.3c2.7,2.9,6.2,4.4,10.5,4.4c2.7,0,5.1-0.6,7.2-1.8c2-1.1,4.4-3.3,7.1-6.6v14.9
			c-4.6,2.4-9.2,3.6-13.7,3.6c-7.6,0-13.9-2.4-19-7.3c-5.1-4.9-7.6-11-7.6-18.3c0-7.3,2.6-13.4,7.7-18.5c5.1-5,11.5-7.5,19-7.5
			C462.9,142.9,467.4,144,471.7,146.3z"/>
		<path class="st0" d="M480.9,123.9c0-2,0.7-3.7,2.2-5.1c1.4-1.4,3.2-2.2,5.2-2.2c2,0,3.8,0.7,5.2,2.2c1.4,1.4,2.2,3.1,2.2,5.2
			c0,2-0.7,3.8-2.2,5.2c-1.4,1.4-3.1,2.2-5.2,2.2c-2,0-3.8-0.7-5.2-2.2C481.6,127.7,480.9,126,480.9,123.9z M493.9,144.2v48.9h-11.3
			v-48.9H493.9z"/>
		<path class="st0" d="M505.9,168.3c0-7.1,2.5-13.1,7.6-18c5.1-4.9,11.2-7.4,18.5-7.4c7.3,0,13.5,2.5,18.6,7.5
			c5,5,7.5,11.1,7.5,18.4c0,7.3-2.5,13.5-7.6,18.4c-5.1,4.9-11.3,7.4-18.7,7.4c-7.3,0-13.5-2.5-18.4-7.5
			C508.4,182,505.9,175.8,505.9,168.3z M517.4,168.5c0,4.9,1.3,8.7,3.9,11.6c2.7,2.9,6.2,4.3,10.6,4.3c4.4,0,7.9-1.4,10.6-4.3
			c2.6-2.8,4-6.6,4-11.4s-1.3-8.5-4-11.4c-2.7-2.9-6.2-4.3-10.6-4.3c-4.3,0-7.8,1.4-10.5,4.3C518.8,160.2,517.4,163.9,517.4,168.5z"
			/>
		<path class="st0" d="M570,144.2h11.3v4.5c4-3.9,8.4-5.9,13.3-5.9c5.7,0,10.1,1.8,13.3,5.4c2.7,3,4.1,8,4.1,14.9v30h-11.3v-27.3
			c0-4.8-0.7-8.1-2-10c-1.3-1.9-3.7-2.8-7.1-2.8c-3.7,0-6.4,1.2-8,3.7c-1.5,2.4-2.3,6.7-2.3,12.8v23.5H570V144.2L570,144.2z"/>
		<path class="st0" d="M662.3,144.2h11.3v48.9h-11.3V188c-4.6,4.4-9.6,6.5-15,6.5c-6.8,0-12.3-2.4-16.8-7.3
			c-4.4-5-6.6-11.2-6.6-18.7c0-7.3,2.2-13.4,6.6-18.3c4.4-4.9,9.9-7.3,16.5-7.3c5.7,0,10.8,2.3,15.3,7L662.3,144.2L662.3,144.2z
			 M635.5,168.5c0,4.7,1.2,8.5,3.8,11.4c2.6,3,5.8,4.5,9.7,4.5c4.2,0,7.6-1.4,10.1-4.3c2.6-3,3.9-6.8,3.9-11.3s-1.3-8.4-3.9-11.3
			c-2.6-2.9-5.9-4.4-10-4.4c-3.9,0-7.1,1.5-9.7,4.4C636.8,160.4,635.5,164.1,635.5,168.5z"/>
		<path class="st0" d="M699.2,108.3v84.7h-11.3v-84.7H699.2z"/>
	</g>
	<g>
		<path class="st0" d="M751.6,106.3h7.2v53.9h-7.2v-3.3c-2.8,2.8-6,4.1-9.6,4.1c-4.2,0-7.8-1.6-10.6-4.7c-2.8-3.2-4.2-7.1-4.2-11.9
			c0-4.6,1.4-8.5,4.2-11.6c2.8-3.1,6.2-4.7,10.4-4.7c3.6,0,6.9,1.5,9.8,4.5V106.3z M734.6,144.5c0,3,0.8,5.4,2.4,7.3
			c1.6,1.9,3.7,2.8,6.2,2.8c2.7,0,4.8-0.9,6.5-2.7c1.6-1.9,2.5-4.3,2.5-7.2c0-2.9-0.8-5.3-2.5-7.2c-1.6-1.9-3.8-2.8-6.4-2.8
			c-2.5,0-4.5,0.9-6.2,2.8C735.4,139.4,734.6,141.7,734.6,144.5z"/>
		<path class="st0" d="M796.2,146.3H774c0.2,2.6,1,4.6,2.5,6.1c1.5,1.5,3.4,2.2,5.7,2.2c1.8,0,3.3-0.4,4.4-1.3
			c1.1-0.9,2.5-2.4,3.9-4.7l6.1,3.4c-0.9,1.6-1.9,3-3,4.1c-1,1.1-2.2,2.1-3.4,2.8c-1.2,0.7-2.5,1.3-3.9,1.6
			c-1.4,0.3-2.9,0.5-4.5,0.5c-4.6,0-8.4-1.5-11.2-4.5c-2.8-3-4.2-7-4.2-11.9c0-4.9,1.4-8.9,4.1-11.9c2.7-3,6.4-4.5,10.9-4.5
			c4.6,0,8.2,1.5,10.9,4.4c2.6,2.9,4,6.9,4,12L796.2,146.3z M788.9,140.4c-1-3.8-3.4-5.7-7.3-5.7c-0.9,0-1.7,0.1-2.5,0.4
			s-1.5,0.6-2.1,1.1c-0.6,0.5-1.2,1.1-1.6,1.8c-0.4,0.7-0.8,1.5-1,2.4H788.9z"/>
	</g>
	<g>
		<path class="st0" d="M343.7,226.7v13.8c-6.8-5.7-13.7-8.5-21-8.5c-8,0-14.7,2.9-20.1,8.6c-5.5,5.7-8.2,12.6-8.2,20.9
			c0,8.1,2.7,15,8.2,20.6s12.2,8.4,20.2,8.4c4.1,0,7.6-0.7,10.5-2c1.6-0.7,3.3-1.6,5-2.7c1.7-1.1,3.5-2.5,5.4-4.1v14.1
			c-6.7,3.8-13.7,5.7-21.1,5.7c-11.1,0-20.5-3.9-28.3-11.6c-7.8-7.8-11.7-17.2-11.7-28.2c0-9.9,3.3-18.7,9.8-26.4
			c8-9.5,18.4-14.2,31.1-14.2C330.5,221,337.2,222.9,343.7,226.7z"/>
		<path class="st0" d="M354,275.2c0-7.1,2.5-13.1,7.6-18c5-4.9,11.2-7.4,18.5-7.4c7.3,0,13.5,2.5,18.6,7.5c5,5,7.5,11.1,7.5,18.4
			c0,7.3-2.5,13.5-7.6,18.4c-5.1,4.9-11.3,7.4-18.7,7.4c-7.3,0-13.5-2.5-18.4-7.5C356.5,288.9,354,282.7,354,275.2z M365.5,275.4
			c0,4.9,1.3,8.7,3.9,11.6c2.7,2.9,6.2,4.3,10.6,4.3c4.4,0,7.9-1.4,10.6-4.3c2.6-2.8,4-6.6,4-11.4c0-4.7-1.3-8.5-4-11.4
			c-2.7-2.9-6.2-4.3-10.6-4.3c-4.3,0-7.8,1.4-10.5,4.3C366.9,267.2,365.5,270.9,365.5,275.4z"/>
		<path class="st0" d="M429.3,215.3V300H418v-84.7H429.3z"/>
		<path class="st0" d="M441.3,275.2c0-7.1,2.5-13.1,7.6-18c5-4.9,11.2-7.4,18.5-7.4c7.3,0,13.5,2.5,18.6,7.5c5,5,7.5,11.1,7.5,18.4
			c0,7.3-2.5,13.5-7.6,18.4c-5.1,4.9-11.3,7.4-18.7,7.4c-7.3,0-13.5-2.5-18.4-7.5C443.8,288.9,441.3,282.7,441.3,275.2z
			 M452.9,275.4c0,4.9,1.3,8.7,3.9,11.6c2.7,2.9,6.2,4.3,10.6,4.3c4.4,0,7.9-1.4,10.6-4.3c2.6-2.8,4-6.6,4-11.4
			c0-4.7-1.3-8.5-4-11.4c-2.7-2.9-6.2-4.3-10.6-4.3c-4.3,0-7.8,1.4-10.5,4.3C454.2,267.2,452.9,270.9,452.9,275.4z"/>
		<path class="st0" d="M505.4,251.1h11.3v4.5c2.2-2.3,4-3.8,5.6-4.6c1.6-0.8,3.7-1.2,6.2-1.2c5.5,0,9.9,2.4,13.1,7.2
			c3.5-4.8,8.3-7.2,14.4-7.2c11,0,16.5,6.7,16.5,20V300h-11.3v-27.1c0-4.7-0.6-8-1.7-9.9c-1.2-2-3.1-3-5.8-3c-3.1,0-5.4,1.2-6.8,3.5
			c-1.4,2.3-2.1,6.1-2.1,11.3V300h-11.3v-27c0-8.7-2.5-13-7.5-13c-3.2,0-5.5,1.2-7,3.6c-1.5,2.4-2.2,6.1-2.2,11.2V300h-11.3
			L505.4,251.1L505.4,251.1z"/>
		<path class="st0" d="M597.9,215.3v41.5c4.5-4.7,9.6-7,15.3-7c6.6,0,12.1,2.5,16.5,7.4c4.4,4.9,6.6,11,6.6,18.3
			c0,7.5-2.2,13.7-6.6,18.7c-4.4,4.9-9.9,7.3-16.6,7.3c-5.7,0-10.7-2.2-15.2-6.5v5.1h-11.3v-84.7H597.9z M624.8,275.9
			c0-4.7-1.3-8.5-3.8-11.4c-2.6-3-5.8-4.5-9.7-4.5c-4.1,0-7.5,1.5-10.1,4.4c-2.6,2.9-3.9,6.6-3.9,11.2c0,4.7,1.3,8.5,3.8,11.4
			c2.5,2.9,5.9,4.4,10,4.4c3.9,0,7.2-1.5,9.7-4.4C623.5,284,624.8,280.3,624.8,275.9z"/>
		<path class="st0" d="M646.6,230.8c0-2,0.7-3.7,2.2-5.1c1.4-1.4,3.2-2.2,5.2-2.2c2,0,3.8,0.7,5.2,2.2c1.4,1.4,2.2,3.1,2.2,5.2
			c0,2-0.7,3.8-2.2,5.2c-1.4,1.4-3.1,2.2-5.2,2.2c-2,0-3.8-0.7-5.2-2.2C647.3,234.7,646.6,232.9,646.6,230.8z M659.6,251.1V300
			h-11.3v-48.9H659.6z"/>
		<path class="st0" d="M709.9,251.1h11.3V300h-11.3v-5.1c-4.7,4.4-9.7,6.5-15,6.5c-6.8,0-12.3-2.4-16.8-7.3
			c-4.4-5-6.6-11.2-6.6-18.7c0-7.3,2.2-13.4,6.6-18.3c4.4-4.9,9.9-7.3,16.5-7.3c5.7,0,10.8,2.3,15.3,7L709.9,251.1L709.9,251.1z
			 M683.1,275.4c0,4.7,1.3,8.5,3.8,11.4c2.6,3,5.8,4.5,9.7,4.5c4.2,0,7.6-1.4,10.1-4.3c2.6-3,3.9-6.7,3.9-11.3
			c0-4.6-1.3-8.4-3.9-11.3c-2.6-2.9-5.9-4.4-10-4.4c-3.9,0-7.1,1.5-9.7,4.4C684.4,267.4,683.1,271,683.1,275.4z"/>
	</g>
</g>
</svg>
