<!-- Generator: Adobe Illustrator 21.1.0, SVG Export Plug-In . SVG Version: 6.00 Build 0)  -->
<svg version="1.1" id="Layer_1" xmlns="http://www.w3.org/2000/svg" xmlns:xlink="http://www.w3.org/1999/xlink" x="0px" y="0px"
	 viewBox="0 0 1044 273" style="enable-background:new 0 0 1044 273;" xml:space="preserve">
<style type="text/css">
	.st0{fill:none;}
</style>
<g>
	<path class="st0" d="M214,244.1c-47.2,30.6-96.2,28.9-96.2,28.9s-1.3-6.3-0.8-17c0.5-10.8,6.4-7.8,10.7-16.3
		c1.5-3.1,2.9-5.2,5.3-12.5c0.1-0.3-2.8-52-3.6-73.9c-0.4-11.8-2.6-31.5-5.2-50.7c-1.5-11.4-5-20.4-6.6-31.1
		c-2.3-15.6-5-33.1-5-33.1c-1.9,5-4.7,23.5-7.4,44.4c-1.3,10.1-2.7,20.7-3.9,30.6c-2.6,21-9.2,77.1-10.2,80.2
		c-1.5,4.6-1.7-1.2-1.7-1.2s3.9-58.9,5-84.7c0.6-12.6,1.5-26.5,3.1-39.8c1.2-10,2.7-19.7,4.7-28.3c0,0,6.7-20.4,8.9-20.8
		c2.2-0.4,9.9,12.9,12.6,24.6c6,26.6,9.5,30,14,58c4.3,26.6,8.3,48.8,8.8,52.4c1.9,13.2,1,54.3-2.3,70.7c-0.8,4.5-1,6.1-3.9,9.1
		c-6.9,6.9-11.7,15.2-11.7,20.6c0,5.4-0.9,5.3,0.4,8.4c0,0,9,13.5,60.9-17.4c0,0,16.2-8.5,16.2-27.2V28.4c0,0-51.4-17.4-91-17.4
		S25.9,28.3,25.9,28.3V217c0,11.6,1.7,32.6,18.3,40c0,0-44.2-14.3-44.2-40.2V12.4C0,12.4,67.4,0,115.1,0
		c47.7,0,116.3,12.4,116.3,12.4v204.7C231.3,234.7,214,244.1,214,244.1"/>
</g>
<g>
	<path class="st0" d="M358,185.3c-11.4,6.1-26,9.1-43.8,9.1c-29.5,0-44.3-12.8-44.3-38.5V78h25.8v79.3c0,12.9,6.4,19.3,19.3,19.3
		c7,0,12.8-1.3,17.2-3.8V77.9H358V185.3z"/>
	<path class="st0" d="M470.3,192.1h-25.8v-81c0-12.7-6.9-19.1-20.6-19.1c-6.5,0-12.5,1.1-17.8,3.2v96.9h-25.8v-108
		c11.7-5.5,26.6-8.3,44.7-8.3c16,0,27.8,3.5,35.4,10.6c6.6,5.9,9.9,14,9.9,24.4L470.3,192.1L470.3,192.1z"/>
	<path class="st0" d="M520.5,45.4c0,3.5-1.4,6.5-4.1,9c-2.8,2.5-6.1,3.7-10.1,3.7s-7.3-1.2-10.1-3.7s-4.1-5.5-4.1-9
		c0-3.6,1.4-6.6,4.1-9.1c2.7-2.5,6.1-3.8,10.1-3.8c3.9,0,7.3,1.2,10.1,3.7C519.1,38.7,520.5,41.8,520.5,45.4 M519.2,192.1h-25.8
		V77.9h25.8V192.1z"/>
	<path class="st0" d="M624.9,186c-10.3,5.5-24.1,8.3-41.3,8.3c-31.1,0-46.6-11.6-46.6-34.7c0-13.8,6.3-24.2,18.8-31.1
		c9.9-5.4,24.9-9,44.9-11v-6.1c0-12.6-7.6-18.9-22.7-18.9c-9.4,0-19,2.3-28.6,7l-5.9-14.8c11.9-5.8,24.9-8.7,39.2-8.7
		c28.1,0,42.2,13.2,42.2,39.4L624.9,186L624.9,186z M600.7,176.7v-47.1c-13.5,1.7-23.2,4.3-28.8,7.8c-7,4.4-10.6,11.5-10.6,21.2
		c0,14.2,8,21.2,23.9,21.2C591.3,179.8,596.4,178.8,600.7,176.7"/>
	<path class="st0" d="M737.1,192.1h-25.8v-81c0-12.7-6.9-19.1-20.6-19.1c-6.5,0-12.5,1.1-17.8,3.2v96.9h-25.8v-108
		c11.7-5.5,26.6-8.3,44.7-8.3c16,0,27.8,3.5,35.4,10.6c6.6,5.9,10,14,10,24.4L737.1,192.1L737.1,192.1z"/>
	<path class="st0" d="M848.3,186c-9.9,5.5-23.2,8.3-39.8,8.3c-16.8,0-29.9-5.1-39.2-15.3s-14-24.4-14-42.6c0-18.4,4.7-33,14-43.9
		c9-10.4,21.1-15.7,36.1-15.7c6.7,0,12.4,0.7,17.2,2.1V32.7h25.8V186H848.3z M822.5,175.2V93c-3.4-1-7.2-1.5-11.4-1.5
		C791,91.5,781,106,781,134.9c0,28.5,9.4,42.8,28.2,42.8C815.3,177.7,819.8,176.8,822.5,175.2"/>
	<path class="st0" d="M960.7,134.3l-69.9,10.2c2.1,21.2,12.5,31.8,31.1,31.8c11,0,20.6-2.1,28.8-6.4l6.1,16.3
		c-9.7,5.4-22.3,8.1-37.7,8.1c-16.4,0-29.3-5.2-38.8-15.5c-9.4-10.3-14.2-25-14.2-44.1c0-18.5,4.3-32.9,13-43.3s20.6-15.6,35.7-15.6
		c15.3,0,26.8,5,34.8,14.9C957.6,100.7,961.2,115.2,960.7,134.3 M936.5,124.1c0-21.6-7.5-32.4-22.4-32.4c-7.9,0-14,3.2-18.2,9.5
		c-4.7,6.9-6.8,16.9-6.6,30.1L936.5,124.1z"/>
	<path class="st0" d="M1044,159.3c0,9.6-3.7,17.8-11.2,24.6s-17.3,10.1-29.4,10.1c-13,0-23.5-2.8-31.5-8.3l6.8-16.5
		c5.5,4.3,12.6,6.5,21.4,6.5c5.2,0,9.5-1.5,12.7-4.6c3.3-3,4.9-6.9,4.9-11.5c0-4.8-1.3-8.6-3.8-11.3c-2.5-2.8-6.8-5.2-12.9-7.5
		c-17.4-6.6-26-17.3-26-32c0-9.3,3.4-17.1,10.1-23.5c6.7-6.4,15.4-9.5,26.2-9.5c11.6,0,21.5,2.7,29.7,8l-6.4,15
		c-5.2-4.2-11.3-6.3-18.2-6.3c-5.1,0-9.1,1.4-12,4.3c-2.9,2.9-4.3,6.5-4.3,10.7c0,7.5,5.6,13.5,16.9,18
		C1034.9,132.9,1044,144.2,1044,159.3"/>
</g>
</svg>
