<!-- Generator: Adobe Illustrator 21.1.0, SVG Export Plug-In . SVG Version: 6.00 Build 0)  -->
<svg version="1.1" id="Layer_1" xmlns="http://www.w3.org/2000/svg" xmlns:xlink="http://www.w3.org/1999/xlink" x="0px" y="0px"
	 viewBox="0 0 1754.5 482" style="enable-background:new 0 0 1754.5 482;" xml:space="preserve">
<style type="text/css">
	.st0{fill:none;}
</style>
<g id="C">
	<g>
		<path class="st0" d="M1624.1,121.5c-24.1-15.6-60.5-1.1-60.5,32.3c0,35,38.5,49,61.9,31.3l16,18.3c-11.2,9.2-25.6,14.9-41.2,14.9
			c-35.5,0-64.4-28.9-64.4-64.5c0-35.5,28.9-64.5,64.4-64.5c14.9,0,28.7,5.2,39.7,13.7L1624.1,121.5z"/>
	</g>
</g>
<g id="A_1_">
	<g>
		<path class="st0" d="M1259.2,192.6h-51.5l-11.7,23.1h-27.9l63.3-124.5h7.3l58.7,124.5H1270L1259.2,192.6z M1247.5,167.7l-13-27.7
			l-14,27.7H1247.5z"/>
	</g>
</g>
<g id="D">
	<g>
		<path class="st0" d="M863.7,91.2c8.3,0,16.5,1.6,24.1,4.8c7.5,3.2,14,7.6,19.7,13.3c5.9,5.9,10.3,12.4,13.3,19.9
			c3.4,7.6,5,15.8,5,24.2c0,8.5-1.6,16.7-5,24.3c-3,7.5-7.5,14-13.3,19.7c-5.7,5.7-12.2,10.3-19.7,13.3c-7.6,3.4-15.8,5-24.1,5h-25
			v-0.2h-10.1V91.2H863.7z M863.7,190.8c20.6,0,37.3-16.9,37.3-37.5S884.3,116,863.7,116h-10.3v74.8H863.7z"/>
	</g>
</g>
<g id="A">
	<g>
		<path class="st0" d="M547.8,192.7h-51.5l-11.7,23.1h-27.9L520,91.3h7.3L586,215.8h-27.5L547.8,192.7z M536.1,167.9l-13-27.7
			l-14,27.7H536.1z"/>
	</g>
</g>
<g id="B">
	<g>
		<path class="st0" d="M160.4,91.5c20.1,0,36.4,16.3,36.4,36.4c0,7.6-2.3,14.6-6.4,20.4c9,6.9,14.7,17.8,14.7,29.8
			c0,21-16.9,37.6-37.6,37.6h-41V91.5H160.4z M159.4,140.7c6.9,0,14.4-5.7,14.4-14.4s-7.5-14-14.4-14h-10.8v28.4H159.4z
			 M167.2,194.7c8.3,0,15.3-6.6,15.3-14.9s-6.9-15.1-15.3-15.1h-18.1v30H167.2z"/>
	</g>
</g>
<g id="_x35_">
	<path class="st0" d="M1754.5,0.1h-331.7v331.7l0,0h331.7l0,0V0.1L1754.5,0.1z M1715.1,239h-259.8V67.4h259.8L1715.1,239L1715.1,239
		z"/>
</g>
<g id="_x34_">
	<path class="st0" d="M1398.6,0H1067v331.7l0,0h331.7l0,0L1398.6,0L1398.6,0z M1359.2,238.9h-259.8V67.3h259.8V238.9z"/>
</g>
<g id="_x33_">
	<path class="st0" d="M1043,0H711.3v331.7l0,0H1043l0,0V0L1043,0z M1003.6,238.9H743.8V67.3h259.8V238.9z"/>
</g>
<g id="_x32_">
	<path class="st0" d="M687.3,0.1H355.6v331.7l0,0h331.7l0,0L687.3,0.1L687.3,0.1z M647.9,239H388.1V67.4h259.8V239z"/>
</g>
<g id="_x31_">
	<path class="st0" d="M331.7,0.1H0v331.7l0,0h331.7l0,0V0.1L331.7,0.1z M292.2,239H32.5V67.4h259.8L292.2,239L292.2,239z"/>
</g>
<path class="st0" d="M42.9,437.3c0,2.2-0.4,4.2-1.3,5.9c-0.9,1.7-2.1,3.1-3.7,4.3c-1.6,1.1-3.4,2-5.5,2.6c-2.1,0.6-4.3,0.9-6.6,0.9
	H0v-53.2h28.5c1.8,0,3.5,0.4,5,1.2c1.5,0.8,2.8,1.8,3.8,3.1c1,1.3,1.9,2.7,2.4,4.3c0.6,1.6,0.9,3.3,0.9,4.9c0,2.6-0.7,5-1.9,7.3
	c-1.3,2.3-3.2,4-5.7,5.1c3,0.9,5.5,2.5,7.2,4.8C42,430.9,42.9,433.8,42.9,437.3z M10.3,406.6V420h13.8c1.7,0,3.2-0.6,4.5-1.8
	c1.2-1.2,1.8-2.8,1.8-4.9c0-2-0.6-3.7-1.7-4.9c-1.1-1.2-2.5-1.8-4.2-1.8H10.3z M32.4,435.3c0-0.9-0.2-1.9-0.5-2.7
	c-0.3-0.9-0.8-1.6-1.3-2.3c-0.6-0.6-1.2-1.2-1.9-1.5c-0.7-0.4-1.6-0.6-2.5-0.6H10.3v14h15.4c0.9,0,1.8-0.2,2.7-0.5
	c0.8-0.3,1.5-0.8,2.1-1.5c0.6-0.6,1.1-1.4,1.4-2.2C32.3,437.2,32.4,436.3,32.4,435.3z"/>
<path class="st0" d="M60.7,451.7c-1.9,0-3.7-0.3-5.3-0.9c-1.6-0.6-3.1-1.5-4.3-2.6c-1.2-1.1-2.1-2.4-2.8-3.9c-0.7-1.5-1-3.1-1-4.9
	c0-1.8,0.4-3.6,1.2-5.1s2-2.9,3.4-4c1.5-1.1,3.2-2,5.3-2.6c2-0.6,4.3-0.9,6.7-0.9c1.7,0,3.5,0.2,5.1,0.4c1.7,0.3,3.2,0.7,4.5,1.3
	v-2.2c0-2.6-0.7-4.6-2.2-6c-1.5-1.4-3.7-2.1-6.6-2.1c-2.1,0-4.1,0.4-6.1,1.1c-2,0.8-4,1.8-6.1,3.3l-3.1-6.4c5-3.3,10.5-5,16.3-5
	c5.6,0,10,1.4,13.2,4.2c3.1,2.8,4.7,6.8,4.7,12v12.2c0,1,0.2,1.8,0.6,2.2c0.4,0.4,1,0.7,1.8,0.8v8.5c-1.7,0.3-3.2,0.5-4.4,0.5
	c-1.9,0-3.4-0.4-4.4-1.3c-1-0.8-1.7-2-1.9-3.4l-0.2-2.2c-1.7,2.3-3.9,4-6.4,5.2C66.2,451.1,63.5,451.7,60.7,451.7z M63.5,444.4
	c1.7,0,3.3-0.3,4.8-0.9c1.5-0.6,2.7-1.4,3.6-2.4c1.1-0.8,1.6-1.8,1.6-2.8v-4.5c-1.2-0.4-2.5-0.8-3.9-1.1c-1.4-0.3-2.7-0.4-4-0.4
	c-2.6,0-4.7,0.6-6.4,1.8c-1.6,1.2-2.5,2.7-2.5,4.5c0,1.7,0.6,3.1,1.9,4.2C60,443.8,61.6,444.4,63.5,444.4z"/>
<path class="st0" d="M129.5,451h-10v-22c0-3.1-0.6-5.4-1.6-6.9c-1.1-1.4-2.6-2.2-4.6-2.2c-1,0-2,0.2-3.1,0.6c-1,0.4-2,1-3,1.7
	c-0.9,0.7-1.8,1.6-2.5,2.6c-0.7,1-1.3,2.1-1.6,3.3V451H93v-39.3h9.1v7.3c1.4-2.5,3.5-4.4,6.3-5.8c2.7-1.4,5.8-2.1,9.3-2.1
	c2.4,0,4.4,0.4,6,1.3c1.5,0.9,2.7,2.1,3.6,3.5c0.8,1.4,1.4,3.1,1.8,4.9c0.3,1.8,0.5,3.7,0.5,5.6V451z"/>
<path class="st0" d="M135.8,431.3c0-2.7,0.5-5.3,1.4-7.8c0.9-2.4,2.3-4.6,4.1-6.4c1.8-1.8,4-3.3,6.5-4.4c2.5-1.1,5.4-1.6,8.6-1.6
	c4.3,0,8,0.9,11,2.8c3,1.8,5.3,4.3,6.8,7.3l-9.8,3c-0.8-1.4-2-2.6-3.4-3.3c-1.4-0.8-2.9-1.2-4.6-1.2c-1.4,0-2.8,0.3-4,0.9
	c-1.2,0.6-2.3,1.4-3.3,2.4c-0.9,1-1.6,2.3-2.2,3.7c-0.5,1.4-0.8,3-0.8,4.8c0,1.7,0.3,3.3,0.8,4.8c0.5,1.4,1.3,2.7,2.2,3.7
	c0.9,1,2,1.9,3.3,2.4c1.2,0.6,2.6,0.9,4,0.9c1.8,0,3.5-0.4,5-1.3c1.5-0.9,2.6-2,3.2-3.3l9.8,3c-1.3,3-3.6,5.4-6.7,7.3
	c-3.1,1.9-6.8,2.8-11.2,2.8c-3.2,0-6.1-0.5-8.6-1.6c-2.5-1.1-4.7-2.6-6.5-4.5c-1.8-1.9-3.2-4-4.2-6.5
	C136.3,436.6,135.8,434,135.8,431.3z"/>
<path class="st0" d="M198.3,451.7c-3.2,0-6.1-0.5-8.6-1.6c-2.5-1.1-4.7-2.6-6.5-4.5c-1.8-1.9-3.1-4-4.1-6.5c-0.9-2.4-1.4-5-1.4-7.7
	c0-2.7,0.5-5.3,1.4-7.8c0.9-2.4,2.3-4.6,4.1-6.5c1.8-1.9,3.9-3.4,6.5-4.5c2.5-1.1,5.4-1.6,8.6-1.6c3.2,0,6.1,0.5,8.6,1.6
	c2.5,1.1,4.7,2.6,6.4,4.5c1.8,1.9,3.1,4,4.1,6.5c0.9,2.4,1.4,5,1.4,7.8c0,2.7-0.5,5.3-1.4,7.7c-0.9,2.4-2.3,4.6-4,6.5
	c-1.7,1.9-3.9,3.4-6.4,4.5C204.4,451.2,201.5,451.7,198.3,451.7z M188,431.4c0,1.7,0.3,3.3,0.8,4.8c0.5,1.4,1.2,2.7,2.2,3.7
	c0.9,1,2,1.9,3.3,2.4c1.2,0.6,2.6,0.9,4,0.9c1.4,0,2.8-0.3,4-0.9c1.2-0.6,2.3-1.4,3.3-2.4c0.9-1,1.6-2.3,2.2-3.7
	c0.5-1.4,0.8-3,0.8-4.8c0-1.7-0.3-3.3-0.8-4.7c-0.5-1.4-1.2-2.7-2.2-3.7c-0.9-1-2-1.9-3.3-2.4c-1.2-0.6-2.6-0.9-4-0.9
	c-1.4,0-2.8,0.3-4,0.9c-1.2,0.6-2.3,1.4-3.3,2.5c-0.9,1-1.6,2.3-2.2,3.7C188.3,428.1,188,429.7,188,431.4z"/>
<path class="st0" d="M259.8,451.7c-2.7,0-5.2-0.5-7.5-1.6c-2.3-1-4.3-2.5-5.9-4.3c-1.6-1.8-2.9-4-3.9-6.5c-0.9-2.5-1.4-5.1-1.4-8
	c0-2.8,0.4-5.5,1.3-7.9c0.9-2.4,2.1-4.6,3.6-6.4c1.5-1.8,3.4-3.3,5.5-4.3c2.1-1,4.5-1.6,7-1.6c2.9,0,5.5,0.7,7.8,2.1
	c2.3,1.4,4.1,3.2,5.4,5.5v-22.3h10v43.2c0,1,0.2,1.8,0.5,2.2c0.3,0.4,0.9,0.7,1.8,0.8v8.5c-1.7,0.3-3.2,0.5-4.3,0.5
	c-1.8,0-3.3-0.4-4.4-1.3c-1.1-0.9-1.8-2.1-1.9-3.5l-0.2-2.5c-1.4,2.5-3.4,4.4-5.9,5.7C265.1,451.1,262.5,451.7,259.8,451.7z
	 M262.4,443.2c0.9,0,1.9-0.2,2.9-0.5c1-0.3,1.9-0.8,2.8-1.4c0.8-0.6,1.6-1.3,2.3-2.1c0.7-0.8,1.2-1.7,1.5-2.6v-9.4
	c-0.4-1.1-1-2.1-1.7-3c-0.7-0.9-1.5-1.7-2.5-2.4c-0.9-0.7-1.9-1.2-2.9-1.6c-1-0.4-2-0.6-3-0.6c-1.5,0-2.9,0.3-4.2,1
	c-1.3,0.6-2.4,1.5-3.3,2.7c-0.9,1.1-1.6,2.4-2.1,3.9c-0.5,1.5-0.7,2.9-0.7,4.5c0,1.6,0.3,3.2,0.8,4.6c0.5,1.4,1.3,2.6,2.2,3.7
	c0.9,1,2.1,1.9,3.4,2.5C259.4,442.9,260.8,443.2,262.4,443.2z"/>
<path class="st0" d="M310.1,451.7c-3.1,0-6-0.5-8.5-1.6c-2.5-1.1-4.7-2.5-6.5-4.4c-1.8-1.8-3.2-4-4.2-6.4c-1-2.4-1.5-5-1.5-7.7
	c0-2.8,0.5-5.4,1.4-7.9c0.9-2.5,2.3-4.6,4.1-6.5c1.8-1.9,4-3.4,6.6-4.5c2.6-1.1,5.5-1.6,8.7-1.6c3.2,0,6.1,0.5,8.6,1.6
	c2.5,1.1,4.7,2.6,6.4,4.4c1.8,1.8,3.1,4,4,6.4c0.9,2.4,1.4,5,1.4,7.6c0,0.7,0,1.3,0,1.9c0,0.6-0.1,1.1-0.2,1.5H300
	c0.2,1.5,0.5,2.9,1.1,4.1c0.6,1.2,1.4,2.2,2.3,3.1c0.9,0.8,2,1.5,3.2,1.9c1.2,0.4,2.4,0.7,3.7,0.7c2,0,3.9-0.5,5.7-1.5
	c1.8-1,3-2.3,3.6-3.9l8.6,2.4c-1.4,3-3.8,5.5-6.9,7.4C318.3,450.8,314.5,451.7,310.1,451.7z M320.3,428c-0.3-2.9-1.3-5.3-3.3-7.1
	c-1.9-1.8-4.3-2.7-7-2.7c-1.3,0-2.6,0.2-3.8,0.7c-1.2,0.5-2.2,1.1-3.1,2c-0.9,0.9-1.6,1.9-2.2,3.1c-0.6,1.2-0.9,2.5-1,4H320.3z"/>
<path class="st0" d="M368.5,397.8h9.1l20.2,53.2h-10.6l-4.9-13.3h-18.6l-4.9,13.3h-10.6L368.5,397.8z M380.5,430.4l-7.3-20.9
	l-7.6,20.9H380.5z"/>
<path class="st0" d="M426.2,420.4c-3,0.1-5.8,0.6-8.2,1.8c-2.4,1.1-4.1,2.8-5.2,5.1V451h-10v-39.3h9.2v8.4c0.7-1.3,1.5-2.6,2.5-3.6
	c0.9-1.1,2-2,3.1-2.8c1.1-0.8,2.2-1.4,3.3-1.8c1.1-0.4,2.2-0.6,3.3-0.6c0.5,0,1,0,1.2,0c0.3,0,0.5,0,0.8,0.1V420.4z"/>
<path class="st0" d="M427.4,431.3c0-2.7,0.5-5.3,1.4-7.8c0.9-2.4,2.3-4.6,4.1-6.4c1.8-1.8,4-3.3,6.5-4.4c2.5-1.1,5.4-1.6,8.6-1.6
	c4.3,0,8,0.9,11,2.8c3,1.8,5.3,4.3,6.8,7.3l-9.8,3c-0.8-1.4-2-2.6-3.4-3.3c-1.4-0.8-2.9-1.2-4.6-1.2c-1.4,0-2.8,0.3-4,0.9
	c-1.2,0.6-2.3,1.4-3.3,2.4c-0.9,1-1.6,2.3-2.2,3.7c-0.5,1.4-0.8,3-0.8,4.8c0,1.7,0.3,3.3,0.8,4.8c0.5,1.4,1.3,2.7,2.2,3.7
	c0.9,1,2,1.9,3.3,2.4c1.2,0.6,2.6,0.9,4,0.9c1.8,0,3.5-0.4,5-1.3c1.5-0.9,2.6-2,3.2-3.3l9.8,3c-1.3,3-3.6,5.4-6.7,7.3
	c-3.1,1.9-6.8,2.8-11.2,2.8c-3.2,0-6.1-0.5-8.6-1.6c-2.5-1.1-4.7-2.6-6.5-4.5c-1.8-1.9-3.2-4-4.2-6.5
	C427.9,436.6,427.4,434,427.4,431.3z"/>
<path class="st0" d="M508.6,451h-10v-22c0-3.1-0.6-5.4-1.7-6.9c-1.1-1.5-2.8-2.2-4.9-2.2c-0.9,0-1.8,0.2-2.8,0.6
	c-1,0.4-1.9,1-2.8,1.7c-0.9,0.7-1.7,1.6-2.5,2.6c-0.7,1-1.3,2.1-1.6,3.3V451h-10v-54.7h10V419c1.4-2.5,3.4-4.5,5.9-5.9
	c2.5-1.4,5.2-2.1,8.2-2.1c2.5,0,4.6,0.4,6.2,1.3c1.6,0.9,2.8,2,3.7,3.5c0.9,1.5,1.5,3.1,1.9,4.9c0.3,1.8,0.5,3.7,0.5,5.7V451z"/>
<path class="st0" d="M526.9,451l-14.5-39.3h10.3l10,31.1l10-31.1h9.4L537.8,451H526.9z"/>
<path class="st0" d="M574.2,451.7c-3.2,0-6.1-0.5-8.6-1.6c-2.5-1.1-4.7-2.6-6.5-4.5c-1.8-1.9-3.1-4-4.1-6.5c-0.9-2.4-1.4-5-1.4-7.7
	c0-2.7,0.5-5.3,1.4-7.8c0.9-2.4,2.3-4.6,4.1-6.5c1.8-1.9,3.9-3.4,6.5-4.5c2.5-1.1,5.4-1.6,8.6-1.6c3.2,0,6.1,0.5,8.6,1.6
	c2.5,1.1,4.7,2.6,6.4,4.5c1.8,1.9,3.1,4,4.1,6.5c0.9,2.4,1.4,5,1.4,7.8c0,2.7-0.5,5.3-1.4,7.7c-0.9,2.4-2.3,4.6-4,6.5
	c-1.7,1.9-3.9,3.4-6.4,4.5C580.3,451.2,577.4,451.7,574.2,451.7z M564,431.4c0,1.7,0.3,3.3,0.8,4.8c0.5,1.4,1.2,2.7,2.2,3.7
	c0.9,1,2,1.9,3.3,2.4c1.2,0.6,2.6,0.9,4,0.9c1.4,0,2.8-0.3,4-0.9c1.2-0.6,2.3-1.4,3.3-2.4c0.9-1,1.6-2.3,2.2-3.7
	c0.5-1.4,0.8-3,0.8-4.8c0-1.7-0.3-3.3-0.8-4.7c-0.5-1.4-1.2-2.7-2.2-3.7c-0.9-1-2-1.9-3.3-2.4c-1.2-0.6-2.6-0.9-4-0.9
	c-1.4,0-2.8,0.3-4,0.9c-1.2,0.6-2.3,1.4-3.3,2.5c-0.9,1-1.6,2.3-2.2,3.7C564.2,428.1,564,429.7,564,431.4z"/>
<path class="st0" d="M616.4,451.7c-3.3,0-6.5-0.5-9.7-1.6c-3.1-1-5.8-2.5-8.1-4.5l3.7-6.3c2.4,1.7,4.7,3,7,3.9
	c2.3,0.9,4.5,1.3,6.8,1.3c2,0,3.6-0.4,4.7-1.1c1.1-0.7,1.7-1.8,1.7-3.2c0-1.4-0.7-2.4-2-3.1c-1.3-0.6-3.5-1.4-6.6-2.2
	c-2.5-0.7-4.7-1.4-6.5-2c-1.8-0.6-3.2-1.4-4.3-2.2c-1.1-0.8-1.9-1.8-2.4-2.8c-0.5-1.1-0.7-2.4-0.7-3.9c0-2,0.4-3.8,1.2-5.4
	c0.8-1.6,1.9-3,3.3-4.1c1.4-1.1,3-2,4.9-2.6c1.9-0.6,3.9-0.9,6.1-0.9c2.9,0,5.7,0.4,8.3,1.3c2.6,0.9,4.9,2.2,7.1,4.1l-4,6.1
	c-2-1.5-3.9-2.6-5.8-3.3c-1.9-0.7-3.7-1-5.6-1c-1.7,0-3.1,0.4-4.3,1c-1.1,0.7-1.7,1.8-1.7,3.4c0,0.7,0.1,1.3,0.4,1.7
	c0.3,0.4,0.7,0.9,1.3,1.2c0.6,0.4,1.4,0.7,2.4,1c1,0.3,2.2,0.7,3.6,1c2.7,0.7,5,1.4,6.9,2.1c1.9,0.7,3.5,1.5,4.7,2.4
	c1.2,0.9,2.1,1.9,2.7,3.1c0.6,1.2,0.9,2.6,0.9,4.2c0,3.8-1.4,6.9-4.3,9.1C625.1,450.6,621.3,451.7,616.4,451.7z"/>
<path class="st0" d="M657.7,451v-53.2h19.3c4.3,0,8.2,0.7,11.4,2.1c3.3,1.4,6,3.3,8.2,5.7c2.2,2.4,3.8,5.2,4.9,8.4
	c1.1,3.2,1.6,6.7,1.6,10.3c0,4-0.6,7.7-1.8,11c-1.2,3.3-3,6.1-5.3,8.4c-2.3,2.3-5.1,4.1-8.3,5.4c-3.2,1.3-6.8,1.9-10.8,1.9H657.7z
	 M692.9,424.3c0-2.5-0.4-4.9-1-7c-0.7-2.1-1.7-4-3.1-5.5c-1.3-1.5-3-2.7-5-3.6c-2-0.8-4.2-1.3-6.7-1.3h-9v35.1h9
	c2.5,0,4.8-0.4,6.8-1.3c2-0.9,3.6-2.1,4.9-3.7c1.3-1.6,2.3-3.4,3-5.6C692.5,429.1,692.9,426.8,692.9,424.3z"/>
<path class="st0" d="M710.4,406.2v-10h10v10H710.4z M710.4,451v-39.3h10V451H710.4z"/>
<path class="st0" d="M744.9,451.2c-2.6,0-5-0.5-7.2-1.6c-2.1-1-4-2.5-5.6-4.3c-1.6-1.8-2.8-3.9-3.6-6.3c-0.8-2.4-1.3-4.9-1.3-7.6
	c0-2.8,0.4-5.5,1.3-7.9c0.9-2.4,2.1-4.6,3.7-6.4c1.6-1.8,3.5-3.3,5.8-4.3c2.2-1,4.7-1.6,7.4-1.6c3,0,5.7,0.7,8,2.1
	c2.3,1.4,4.2,3.2,5.7,5.5v-6.9h8.8v37.4c0,2.9-0.6,5.5-1.6,7.8c-1.1,2.3-2.6,4.2-4.5,5.8c-1.9,1.6-4.2,2.8-6.9,3.7
	c-2.7,0.8-5.6,1.3-8.7,1.3c-4.3,0-7.9-0.7-10.8-2.1c-2.9-1.4-5.4-3.4-7.5-6l5.5-5.3c1.5,1.8,3.4,3.3,5.7,4.3c2.3,1,4.7,1.6,7.2,1.6
	c1.5,0,3-0.2,4.5-0.6c1.4-0.4,2.7-1.1,3.8-2c1.1-0.9,2-2,2.6-3.4c0.6-1.4,0.9-3,0.9-4.9v-4.9c-1.3,2.2-3.1,4-5.5,5.2
	C750.1,450.6,747.6,451.2,744.9,451.2z M748.2,443.2c1.1,0,2.1-0.2,3.1-0.5c1-0.3,1.9-0.8,2.8-1.4c0.8-0.6,1.6-1.3,2.2-2.1
	c0.6-0.8,1.1-1.6,1.5-2.5v-9.4c-0.9-2.3-2.3-4.1-4.2-5.5c-1.9-1.4-3.9-2.1-6-2.1c-1.5,0-2.9,0.3-4.2,1c-1.2,0.7-2.3,1.6-3.2,2.7
	c-0.9,1.1-1.6,2.4-2.1,3.9c-0.5,1.4-0.7,2.9-0.7,4.5c0,1.6,0.3,3.1,0.8,4.5c0.5,1.4,1.3,2.6,2.3,3.7c1,1,2.1,1.9,3.4,2.5
	C745.3,442.9,746.7,443.2,748.2,443.2z"/>
<path class="st0" d="M777,406.2v-10h10v10H777z M777,451v-39.3h10V451H777z"/>
<path class="st0" d="M819.7,449c-1.3,0.6-3,1.2-4.9,1.8c-1.9,0.6-4,0.9-6.1,0.9c-1.4,0-2.7-0.2-3.9-0.5c-1.2-0.3-2.3-0.9-3.2-1.7
	c-0.9-0.8-1.7-1.8-2.2-3c-0.6-1.2-0.8-2.7-0.8-4.5v-22.6h-5.2v-7.7h5.2V399h10v12.7h8.2v7.7h-8.2v19.2c0,1.4,0.4,2.4,1.1,3
	c0.7,0.6,1.6,0.9,2.7,0.9s2.1-0.2,3.1-0.5c1-0.3,1.8-0.6,2.4-0.9L819.7,449z"/>
<path class="st0" d="M835.6,451.7c-1.9,0-3.7-0.3-5.3-0.9c-1.6-0.6-3.1-1.5-4.3-2.6c-1.2-1.1-2.1-2.4-2.8-3.9c-0.7-1.5-1-3.1-1-4.9
	c0-1.8,0.4-3.6,1.2-5.1c0.8-1.6,2-2.9,3.4-4c1.5-1.1,3.2-2,5.3-2.6c2-0.6,4.3-0.9,6.7-0.9c1.7,0,3.5,0.2,5.1,0.4
	c1.7,0.3,3.2,0.7,4.5,1.3v-2.2c0-2.6-0.7-4.6-2.2-6c-1.5-1.4-3.7-2.1-6.6-2.1c-2.1,0-4.1,0.4-6.1,1.1c-2,0.8-4,1.8-6.1,3.3l-3.1-6.4
	c5-3.3,10.5-5,16.3-5c5.6,0,10,1.4,13.2,4.2c3.1,2.8,4.7,6.8,4.7,12v12.2c0,1,0.2,1.8,0.6,2.2c0.4,0.4,1,0.7,1.8,0.8v8.5
	c-1.7,0.3-3.2,0.5-4.4,0.5c-1.9,0-3.4-0.4-4.4-1.3c-1-0.8-1.7-2-1.9-3.4l-0.2-2.2c-1.7,2.3-3.9,4-6.4,5.2
	C841.1,451.1,838.5,451.7,835.6,451.7z M838.5,444.4c1.7,0,3.3-0.3,4.8-0.9c1.5-0.6,2.7-1.4,3.6-2.4c1.1-0.8,1.6-1.8,1.6-2.8v-4.5
	c-1.2-0.4-2.5-0.8-3.9-1.1c-1.4-0.3-2.7-0.4-4-0.4c-2.6,0-4.7,0.6-6.4,1.8c-1.6,1.2-2.5,2.7-2.5,4.5c0,1.7,0.6,3.1,1.9,4.2
	C835,443.8,836.6,444.4,838.5,444.4z"/>
<path class="st0" d="M867.8,396.3h10v42.1c0,1.5,0.3,2.6,1,3.4c0.7,0.8,1.7,1.2,3,1.2c0.6,0,1.3-0.1,2-0.3c0.7-0.2,1.4-0.4,2.1-0.8
	l1.3,7.6c-1.3,0.7-2.9,1.1-4.7,1.5c-1.8,0.3-3.4,0.5-4.9,0.5c-3.1,0-5.6-0.8-7.3-2.5c-1.7-1.7-2.6-4.1-2.6-7.2V396.3z"/>
<path class="st0" d="M909.9,451.7c-3.1,0-6-0.5-8.5-1.6c-2.5-1.1-4.7-2.5-6.5-4.4c-1.8-1.8-3.2-4-4.2-6.4c-1-2.4-1.5-5-1.5-7.7
	c0-2.8,0.5-5.4,1.4-7.9c0.9-2.5,2.3-4.6,4.1-6.5c1.8-1.9,4-3.4,6.6-4.5c2.6-1.1,5.5-1.6,8.7-1.6s6.1,0.5,8.6,1.6
	c2.5,1.1,4.7,2.6,6.4,4.4c1.8,1.8,3.1,4,4,6.4c0.9,2.4,1.4,5,1.4,7.6c0,0.7,0,1.3,0,1.9c0,0.6-0.1,1.1-0.2,1.5h-30.3
	c0.2,1.5,0.5,2.9,1.1,4.1c0.6,1.2,1.4,2.2,2.3,3.1c0.9,0.8,2,1.5,3.2,1.9c1.2,0.4,2.4,0.7,3.7,0.7c2,0,3.9-0.5,5.7-1.5
	c1.8-1,3-2.3,3.6-3.9l8.6,2.4c-1.5,3-3.8,5.5-6.9,7.4C918.1,450.8,914.3,451.7,909.9,451.7z M920.1,428c-0.3-2.9-1.3-5.3-3.3-7.1
	c-1.9-1.8-4.3-2.7-7-2.7c-1.3,0-2.6,0.2-3.8,0.7c-1.2,0.5-2.2,1.1-3.1,2c-0.9,0.9-1.6,1.9-2.2,3.1c-0.6,1.2-0.9,2.5-1,4H920.1z"/>
<path class="st0" d="M951.4,451.7c-3.3,0-6.5-0.5-9.7-1.6c-3.1-1-5.8-2.5-8.1-4.5l3.7-6.3c2.4,1.7,4.7,3,7,3.9
	c2.3,0.9,4.5,1.3,6.8,1.3c2,0,3.6-0.4,4.7-1.1c1.1-0.7,1.7-1.8,1.7-3.2c0-1.4-0.7-2.4-2-3.1c-1.3-0.6-3.5-1.4-6.6-2.2
	c-2.5-0.7-4.7-1.4-6.5-2c-1.8-0.6-3.2-1.4-4.3-2.2c-1.1-0.8-1.9-1.8-2.4-2.8c-0.5-1.1-0.7-2.4-0.7-3.9c0-2,0.4-3.8,1.2-5.4
	c0.8-1.6,1.9-3,3.3-4.1c1.4-1.1,3-2,4.9-2.6c1.9-0.6,3.9-0.9,6.1-0.9c2.9,0,5.7,0.4,8.3,1.3c2.6,0.9,4.9,2.2,7.1,4.1l-4,6.1
	c-2-1.5-3.9-2.6-5.8-3.3c-1.9-0.7-3.7-1-5.6-1c-1.7,0-3.1,0.4-4.3,1c-1.1,0.7-1.7,1.8-1.7,3.4c0,0.7,0.1,1.3,0.4,1.7
	c0.3,0.4,0.7,0.9,1.3,1.2c0.6,0.4,1.4,0.7,2.4,1c1,0.3,2.2,0.7,3.6,1c2.7,0.7,5,1.4,6.9,2.1c1.9,0.7,3.5,1.5,4.7,2.4
	c1.2,0.9,2.1,1.9,2.7,3.1c0.6,1.2,0.9,2.6,0.9,4.2c0,3.8-1.4,6.9-4.3,9.1C960.2,450.6,956.3,451.7,951.4,451.7z"/>
<path class="st0" d="M1008.1,451.7c-2.7,0-5.2-0.5-7.5-1.6c-2.3-1-4.3-2.5-5.9-4.3c-1.6-1.8-2.9-4-3.9-6.5c-0.9-2.5-1.4-5.1-1.4-8
	c0-2.8,0.4-5.5,1.3-7.9c0.9-2.4,2.1-4.6,3.6-6.4c1.5-1.8,3.4-3.3,5.5-4.3c2.1-1,4.5-1.6,7-1.6c2.9,0,5.5,0.7,7.8,2.1
	c2.3,1.4,4.1,3.2,5.4,5.5v-22.3h10v43.2c0,1,0.2,1.8,0.5,2.2c0.3,0.4,0.9,0.7,1.8,0.8v8.5c-1.7,0.3-3.2,0.5-4.3,0.5
	c-1.8,0-3.3-0.4-4.4-1.3c-1.1-0.9-1.8-2.1-1.9-3.5l-0.2-2.5c-1.5,2.5-3.4,4.4-5.9,5.7C1013.3,451.1,1010.7,451.7,1008.1,451.7z
	 M1010.7,443.2c0.9,0,1.9-0.2,2.9-0.5c1-0.3,1.9-0.8,2.8-1.4c0.8-0.6,1.6-1.3,2.3-2.1c0.7-0.8,1.2-1.7,1.5-2.6v-9.4
	c-0.4-1.1-1-2.1-1.7-3c-0.7-0.9-1.5-1.7-2.5-2.4c-0.9-0.7-1.9-1.2-2.9-1.6c-1-0.4-2-0.6-3-0.6c-1.5,0-2.9,0.3-4.2,1
	c-1.3,0.6-2.4,1.5-3.3,2.7c-0.9,1.1-1.6,2.4-2.1,3.9c-0.5,1.5-0.7,2.9-0.7,4.5c0,1.6,0.3,3.2,0.8,4.6c0.5,1.4,1.3,2.6,2.2,3.7
	c0.9,1,2.1,1.9,3.4,2.5C1007.6,442.9,1009.1,443.2,1010.7,443.2z"/>
<path class="st0" d="M1058.3,451.7c-3.1,0-6-0.5-8.5-1.6c-2.5-1.1-4.7-2.5-6.5-4.4c-1.8-1.8-3.2-4-4.2-6.4c-1-2.4-1.5-5-1.5-7.7
	c0-2.8,0.5-5.4,1.4-7.9c0.9-2.5,2.3-4.6,4.1-6.5c1.8-1.9,4-3.4,6.6-4.5c2.6-1.1,5.5-1.6,8.7-1.6c3.2,0,6.1,0.5,8.6,1.6
	c2.5,1.1,4.7,2.6,6.4,4.4c1.8,1.8,3.1,4,4,6.4c0.9,2.4,1.4,5,1.4,7.6c0,0.7,0,1.3,0,1.9c0,0.6-0.1,1.1-0.2,1.5h-30.3
	c0.2,1.5,0.5,2.9,1.1,4.1s1.4,2.2,2.3,3.1c0.9,0.8,2,1.5,3.2,1.9c1.2,0.4,2.4,0.7,3.7,0.7c2,0,3.9-0.5,5.7-1.5c1.8-1,3-2.3,3.6-3.9
	l8.6,2.4c-1.5,3-3.8,5.5-6.9,7.4C1066.5,450.8,1062.7,451.7,1058.3,451.7z M1068.5,428c-0.3-2.9-1.3-5.3-3.3-7.1
	c-1.9-1.8-4.3-2.7-7-2.7c-1.3,0-2.6,0.2-3.8,0.7c-1.2,0.5-2.2,1.1-3.1,2c-0.9,0.9-1.6,1.9-2.2,3.1c-0.6,1.2-0.9,2.5-1,4H1068.5z"/>
<path class="st0" d="M1116.8,397.8h9.1l20.2,53.2h-10.6l-4.9-13.3H1112l-4.9,13.3h-10.6L1116.8,397.8z M1128.7,430.4l-7.3-20.9
	l-7.6,20.9H1128.7z"/>
<path class="st0" d="M1174.4,420.4c-3,0.1-5.8,0.6-8.2,1.8c-2.4,1.1-4.1,2.8-5.2,5.1V451h-10v-39.3h9.2v8.4c0.7-1.3,1.5-2.6,2.5-3.6
	c0.9-1.1,2-2,3.1-2.8c1.1-0.8,2.2-1.4,3.3-1.8c1.1-0.4,2.2-0.6,3.3-0.6c0.5,0,1,0,1.2,0c0.3,0,0.5,0,0.8,0.1V420.4z"/>
<path class="st0" d="M1203.6,449c-1.3,0.6-3,1.2-4.9,1.8c-1.9,0.6-4,0.9-6.1,0.9c-1.4,0-2.7-0.2-3.9-0.5c-1.2-0.3-2.3-0.9-3.2-1.7
	c-0.9-0.8-1.7-1.8-2.2-3c-0.6-1.2-0.8-2.7-0.8-4.5v-22.6h-5.2v-7.7h5.2V399h10v12.7h8.2v7.7h-8.2v19.2c0,1.4,0.4,2.4,1.1,3
	c0.7,0.6,1.6,0.9,2.7,0.9c1,0,2.1-0.2,3.1-0.5c1-0.3,1.8-0.6,2.4-0.9L1203.6,449z"/>
<path class="st0" d="M1226,451.7c-3.1,0-6-0.5-8.5-1.6c-2.5-1.1-4.7-2.5-6.5-4.4c-1.8-1.8-3.2-4-4.2-6.4c-1-2.4-1.5-5-1.5-7.7
	c0-2.8,0.5-5.4,1.4-7.9c0.9-2.5,2.3-4.6,4.1-6.5c1.8-1.9,4-3.4,6.6-4.5c2.6-1.1,5.5-1.6,8.7-1.6c3.2,0,6.1,0.5,8.6,1.6
	c2.5,1.1,4.7,2.6,6.4,4.4c1.8,1.8,3.1,4,4,6.4c0.9,2.4,1.4,5,1.4,7.6c0,0.7,0,1.3,0,1.9c0,0.6-0.1,1.1-0.2,1.5H1216
	c0.2,1.5,0.5,2.9,1.1,4.1s1.4,2.2,2.3,3.1c0.9,0.8,2,1.5,3.2,1.9c1.2,0.4,2.4,0.7,3.7,0.7c2,0,3.9-0.5,5.7-1.5c1.8-1,3-2.3,3.6-3.9
	l8.6,2.4c-1.5,3-3.8,5.5-6.9,7.4C1234.2,450.8,1230.4,451.7,1226,451.7z M1236.2,428c-0.3-2.9-1.3-5.3-3.3-7.1
	c-1.9-1.8-4.3-2.7-7-2.7c-1.3,0-2.6,0.2-3.8,0.7c-1.2,0.5-2.2,1.1-3.1,2c-0.9,0.9-1.6,1.9-2.2,3.1c-0.6,1.2-0.9,2.5-1,4H1236.2z"/>
<path class="st0" d="M1267.6,451.7c-3.3,0-6.5-0.5-9.7-1.6c-3.1-1-5.8-2.5-8.1-4.5l3.7-6.3c2.4,1.7,4.7,3,7,3.9
	c2.3,0.9,4.5,1.3,6.8,1.3c2,0,3.6-0.4,4.7-1.1c1.1-0.7,1.7-1.8,1.7-3.2c0-1.4-0.7-2.4-2-3.1c-1.3-0.6-3.5-1.4-6.6-2.2
	c-2.5-0.7-4.7-1.4-6.5-2c-1.8-0.6-3.2-1.4-4.3-2.2c-1.1-0.8-1.9-1.8-2.4-2.8c-0.5-1.1-0.7-2.4-0.7-3.9c0-2,0.4-3.8,1.2-5.4
	c0.8-1.6,1.9-3,3.3-4.1c1.4-1.1,3-2,4.9-2.6c1.9-0.6,3.9-0.9,6.1-0.9c2.9,0,5.7,0.4,8.3,1.3c2.6,0.9,4.9,2.2,7.1,4.1l-4,6.1
	c-2-1.5-3.9-2.6-5.8-3.3c-1.9-0.7-3.7-1-5.6-1c-1.7,0-3.1,0.4-4.3,1c-1.1,0.7-1.7,1.8-1.7,3.4c0,0.7,0.1,1.3,0.4,1.7
	c0.3,0.4,0.7,0.9,1.3,1.2c0.6,0.4,1.4,0.7,2.4,1c1,0.3,2.2,0.7,3.6,1c2.7,0.7,5,1.4,6.9,2.1c1.9,0.7,3.5,1.5,4.7,2.4
	c1.2,0.9,2.1,1.9,2.7,3.1c0.6,1.2,0.9,2.6,0.9,4.2c0,3.8-1.4,6.9-4.3,9.1C1276.3,450.6,1272.5,451.7,1267.6,451.7z"/>
<path class="st0" d="M1326.2,451.7c-3.1,0-6-0.5-8.5-1.6c-2.5-1.1-4.7-2.5-6.5-4.4c-1.8-1.8-3.2-4-4.2-6.4c-1-2.4-1.5-5-1.5-7.7
	c0-2.8,0.5-5.4,1.4-7.9c0.9-2.5,2.3-4.6,4.1-6.5c1.8-1.9,4-3.4,6.6-4.5c2.6-1.1,5.5-1.6,8.7-1.6c3.2,0,6.1,0.5,8.6,1.6
	c2.5,1.1,4.7,2.6,6.4,4.4c1.8,1.8,3.1,4,4,6.4c0.9,2.4,1.4,5,1.4,7.6c0,0.7,0,1.3,0,1.9c0,0.6-0.1,1.1-0.2,1.5h-30.3
	c0.2,1.5,0.5,2.9,1.1,4.1s1.4,2.2,2.3,3.1c0.9,0.8,2,1.5,3.2,1.9c1.2,0.4,2.4,0.7,3.7,0.7c2,0,3.9-0.5,5.7-1.5c1.8-1,3-2.3,3.6-3.9
	l8.6,2.4c-1.5,3-3.8,5.5-6.9,7.4C1334.3,450.8,1330.6,451.7,1326.2,451.7z M1336.4,428c-0.3-2.9-1.3-5.3-3.3-7.1
	c-1.9-1.8-4.3-2.7-7-2.7c-1.3,0-2.6,0.2-3.8,0.7c-1.2,0.5-2.2,1.1-3.1,2c-0.9,0.9-1.6,1.9-2.2,3.1c-0.6,1.2-0.9,2.5-1,4H1336.4z"/>
<path class="st0" d="M1389.3,451h-10v-22c0-3.1-0.5-5.4-1.6-6.9c-1.1-1.4-2.6-2.2-4.6-2.2c-1,0-2,0.2-3.1,0.6c-1,0.4-2,1-3,1.7
	c-0.9,0.7-1.8,1.6-2.5,2.6c-0.7,1-1.3,2.1-1.6,3.3V451h-10v-39.3h9.1v7.3c1.4-2.5,3.5-4.4,6.3-5.8c2.7-1.4,5.8-2.1,9.3-2.1
	c2.4,0,4.4,0.4,6,1.3c1.5,0.9,2.7,2.1,3.6,3.5c0.8,1.4,1.4,3.1,1.8,4.9c0.3,1.8,0.5,3.7,0.5,5.6V451z"/>
<path class="st0" d="M1413.8,424c0-3.2,0.6-6.5,1.8-9.6c1.2-3.2,2.9-6,5.1-8.5c2.2-2.5,5-4.5,8.2-6.1c3.2-1.5,6.9-2.3,11.1-2.3
	c4.9,0,9.1,1.1,12.7,3.2c3.6,2.1,6.2,4.9,8,8.4l-7.9,5.5c-0.7-1.5-1.5-2.8-2.5-3.8c-1-1-2.1-1.8-3.2-2.4c-1.1-0.6-2.3-1-3.6-1.3
	c-1.2-0.3-2.5-0.4-3.7-0.4c-2.6,0-4.9,0.5-6.8,1.6c-1.9,1-3.5,2.4-4.8,4.1c-1.3,1.7-2.2,3.6-2.9,5.7c-0.7,2.1-1,4.2-1,6.3
	c0,2.3,0.4,4.6,1.1,6.8c0.8,2.2,1.8,4.1,3.2,5.7c1.4,1.6,3,3,4.9,4s4,1.5,6.3,1.5c1.2,0,2.4-0.2,3.7-0.4c1.3-0.3,2.5-0.8,3.7-1.4
	c1.2-0.6,2.3-1.5,3.3-2.5c1-1,1.8-2.3,2.4-3.7l8.5,4.9c-0.9,2-2.1,3.8-3.6,5.3c-1.6,1.5-3.3,2.8-5.3,3.9c-2,1-4.1,1.8-6.3,2.4
	c-2.2,0.5-4.4,0.8-6.6,0.8c-3.8,0-7.3-0.8-10.4-2.4c-3.1-1.6-5.9-3.7-8.1-6.3c-2.3-2.6-4-5.5-5.3-8.8
	C1414.5,430.7,1413.8,427.4,1413.8,424z"/>
<path class="st0" d="M1485.6,451.7c-3.2,0-6.1-0.5-8.6-1.6c-2.5-1.1-4.7-2.6-6.5-4.5c-1.8-1.9-3.1-4-4.1-6.5c-0.9-2.4-1.4-5-1.4-7.7
	c0-2.7,0.5-5.3,1.4-7.8c0.9-2.4,2.3-4.6,4.1-6.5c1.8-1.9,3.9-3.4,6.5-4.5c2.5-1.1,5.4-1.6,8.6-1.6c3.2,0,6.1,0.5,8.6,1.6
	c2.5,1.1,4.7,2.6,6.4,4.5c1.8,1.9,3.1,4,4.1,6.5c0.9,2.4,1.4,5,1.4,7.8c0,2.7-0.5,5.3-1.4,7.7c-0.9,2.4-2.3,4.6-4,6.5
	c-1.7,1.9-3.9,3.4-6.4,4.5C1491.7,451.2,1488.8,451.7,1485.6,451.7z M1475.4,431.4c0,1.7,0.3,3.3,0.8,4.8c0.5,1.4,1.2,2.7,2.2,3.7
	c0.9,1,2,1.9,3.3,2.4s2.6,0.9,4,0.9c1.4,0,2.8-0.3,4-0.9c1.2-0.6,2.3-1.4,3.3-2.4c0.9-1,1.6-2.3,2.2-3.7c0.5-1.4,0.8-3,0.8-4.8
	c0-1.7-0.3-3.3-0.8-4.7c-0.5-1.4-1.2-2.7-2.2-3.7c-0.9-1-2-1.9-3.3-2.4c-1.2-0.6-2.6-0.9-4-0.9c-1.5,0-2.8,0.3-4,0.9
	c-1.2,0.6-2.3,1.4-3.3,2.5c-0.9,1-1.6,2.3-2.2,3.7C1475.6,428.1,1475.4,429.7,1475.4,431.4z"/>
<path class="st0" d="M1512.8,396.3h10v42.1c0,1.5,0.3,2.6,1,3.4c0.7,0.8,1.7,1.2,3,1.2c0.6,0,1.3-0.1,2-0.3c0.7-0.2,1.4-0.4,2.1-0.8
	l1.3,7.6c-1.3,0.7-2.9,1.1-4.7,1.5c-1.8,0.3-3.4,0.5-4.9,0.5c-3.1,0-5.6-0.8-7.3-2.5c-1.7-1.7-2.6-4.1-2.6-7.2V396.3z"/>
<path class="st0" d="M1554.8,451.7c-3.2,0-6.1-0.5-8.6-1.6c-2.5-1.1-4.7-2.6-6.5-4.5c-1.8-1.9-3.1-4-4.1-6.5c-0.9-2.4-1.4-5-1.4-7.7
	c0-2.7,0.5-5.3,1.4-7.8c0.9-2.4,2.3-4.6,4.1-6.5c1.8-1.9,3.9-3.4,6.5-4.5c2.5-1.1,5.4-1.6,8.6-1.6c3.2,0,6.1,0.5,8.6,1.6
	c2.5,1.1,4.7,2.6,6.4,4.5c1.8,1.9,3.1,4,4.1,6.5c0.9,2.4,1.4,5,1.4,7.8c0,2.7-0.5,5.3-1.4,7.7c-0.9,2.4-2.3,4.6-4,6.5
	c-1.7,1.9-3.9,3.4-6.4,4.5C1560.9,451.2,1558,451.7,1554.8,451.7z M1544.5,431.4c0,1.7,0.3,3.3,0.8,4.8c0.5,1.4,1.2,2.7,2.2,3.7
	c0.9,1,2,1.9,3.3,2.4c1.2,0.6,2.6,0.9,4,0.9c1.4,0,2.8-0.3,4-0.9c1.2-0.6,2.3-1.4,3.3-2.4c0.9-1,1.6-2.3,2.2-3.7
	c0.5-1.4,0.8-3,0.8-4.8c0-1.7-0.3-3.3-0.8-4.7c-0.5-1.4-1.2-2.7-2.2-3.7c-0.9-1-2-1.9-3.3-2.4c-1.2-0.6-2.6-0.9-4-0.9
	c-1.5,0-2.8,0.3-4,0.9c-1.2,0.6-2.3,1.4-3.3,2.5c-0.9,1-1.6,2.3-2.2,3.7C1544.8,428.1,1544.5,429.7,1544.5,431.4z"/>
<path class="st0" d="M1643.1,451h-10v-22c0-3.1-0.5-5.4-1.6-6.9c-1.1-1.4-2.6-2.2-4.5-2.2c-2,0-3.9,0.8-5.6,2.3
	c-1.7,1.5-3,3.5-3.7,6V451h-10v-22c0-3.1-0.5-5.4-1.6-6.9c-1.1-1.4-2.6-2.2-4.5-2.2c-1.9,0-3.8,0.7-5.6,2.2c-1.8,1.5-3,3.5-3.8,5.9
	V451h-10v-39.3h9.1v7.3c1.4-2.5,3.4-4.5,6-5.9c2.5-1.4,5.4-2.1,8.7-2.1c3.3,0,5.8,0.8,7.6,2.4c1.8,1.6,2.9,3.6,3.4,5.9
	c1.6-2.7,3.6-4.8,6.1-6.2s5.2-2.1,8.4-2.1c2.4,0,4.4,0.4,5.9,1.3c1.5,0.9,2.7,2.1,3.6,3.5c0.8,1.4,1.4,3.1,1.8,4.9
	c0.3,1.8,0.5,3.7,0.5,5.6V451z"/>
<path class="st0" d="M1674.2,451.7c-3,0-5.7-0.7-8-2c-2.3-1.3-4.2-3.2-5.5-5.5v6.8h-8.8v-54.7h10v22.3c1.4-2.4,3.2-4.3,5.5-5.6
	c2.3-1.3,4.9-2,8-2c2.5,0,4.9,0.5,7,1.6c2.1,1.1,3.9,2.6,5.4,4.4c1.5,1.8,2.7,4,3.5,6.5c0.8,2.5,1.2,5.1,1.2,7.9
	c0,2.8-0.5,5.5-1.4,7.9c-0.9,2.4-2.2,4.6-3.9,6.4c-1.6,1.8-3.6,3.3-5.8,4.3C1679.2,451.2,1676.8,451.7,1674.2,451.7z M1671.4,443.2
	c1.6,0,3.1-0.3,4.4-0.9c1.3-0.6,2.5-1.5,3.4-2.5c0.9-1,1.7-2.3,2.2-3.7c0.5-1.4,0.8-2.9,0.8-4.5c0-1.6-0.3-3.1-0.7-4.6
	c-0.5-1.4-1.2-2.7-2.1-3.8c-0.9-1.1-2-2-3.3-2.6c-1.2-0.6-2.6-1-4.1-1c-2.2,0-4.3,0.7-6,2.2c-1.8,1.5-3.1,3.3-4.1,5.4v9.4
	c0.3,1,0.9,1.9,1.5,2.7c0.7,0.8,1.4,1.5,2.3,2.1c0.8,0.6,1.8,1,2.8,1.3C1669.5,443,1670.4,443.2,1671.4,443.2z"/>
<path class="st0" d="M1699.3,406.2v-10h10v10H1699.3z M1699.3,451v-39.3h10V451H1699.3z"/>
<path class="st0" d="M1729.2,451.7c-1.9,0-3.7-0.3-5.3-0.9c-1.6-0.6-3.1-1.5-4.3-2.6c-1.2-1.1-2.1-2.4-2.8-3.9c-0.7-1.5-1-3.1-1-4.9
	c0-1.8,0.4-3.6,1.2-5.1c0.8-1.6,2-2.9,3.4-4c1.5-1.1,3.2-2,5.3-2.6c2-0.6,4.3-0.9,6.7-0.9c1.7,0,3.5,0.2,5.1,0.4
	c1.7,0.3,3.2,0.7,4.5,1.3v-2.2c0-2.6-0.7-4.6-2.2-6c-1.5-1.4-3.7-2.1-6.6-2.1c-2.1,0-4.1,0.4-6.1,1.1c-2,0.8-4,1.8-6.1,3.3l-3.1-6.4
	c5-3.3,10.5-5,16.3-5c5.6,0,10,1.4,13.2,4.2c3.1,2.8,4.7,6.8,4.7,12v12.2c0,1,0.2,1.8,0.6,2.2c0.4,0.4,1,0.7,1.8,0.8v8.5
	c-1.7,0.3-3.2,0.5-4.4,0.5c-1.9,0-3.4-0.4-4.4-1.3c-1-0.8-1.7-2-1.9-3.4l-0.2-2.2c-1.7,2.3-3.9,4-6.4,5.2
	C1734.7,451.1,1732,451.7,1729.2,451.7z M1732,444.4c1.7,0,3.3-0.3,4.8-0.9c1.5-0.6,2.7-1.4,3.6-2.4c1.1-0.8,1.6-1.8,1.6-2.8v-4.5
	c-1.2-0.4-2.5-0.8-3.9-1.1c-1.4-0.3-2.7-0.4-4-0.4c-2.6,0-4.7,0.6-6.4,1.8c-1.6,1.2-2.5,2.7-2.5,4.5c0,1.7,0.6,3.1,1.9,4.2
	C1728.5,443.8,1730.1,444.4,1732,444.4z"/>
<rect y="360" class="st0" width="1754.5" height="10"/>
</svg>
