<!-- Generator: Adobe Illustrator 21.1.0, SVG Export Plug-In . SVG Version: 6.00 Build 0)  -->
<svg version="1.1" id="Capa_1" xmlns="http://www.w3.org/2000/svg" xmlns:xlink="http://www.w3.org/1999/xlink" x="0px" y="0px"
	 viewBox="0 0 229.6 97.3" style="enable-background:new 0 0 229.6 97.3;" xml:space="preserve">
<style type="text/css">
	.st0{fill:none;}
	.st1{fill:none;}
</style>
<g>
	<path class="st0" d="M0,0v91.3l6.2,6L28.7,75l0-46.1l9.9,0l0,46.1L61,97.3l6.2-6V0H0z M61,87.9L44.9,72.3l0-49.8H22.3l0,49.8
		l-16,15.6V6.2H61V87.9z"/>
</g>
<path class="st1" d="M81.8,25.5V3h3.4c1.5,0,2.7,0.1,3.6,0.3c0.9,0.2,1.7,0.6,2.3,1.2c0.6,0.6,1.1,1.3,1.5,2.1
	c0.4,0.9,0.6,1.7,0.6,2.6c0,1.6-0.6,3-1.8,4.1c1.2,0.4,2.1,1.1,2.8,2.1c0.7,1,1,2.2,1,3.5c0,1.8-0.6,3.2-1.9,4.4
	c-0.7,0.7-1.6,1.3-2.5,1.6c-1,0.3-2.3,0.4-3.8,0.4L81.8,25.5L81.8,25.5L81.8,25.5z M85.2,12.7h1.1c1.3,0,2.2-0.3,2.8-0.8
	c0.6-0.6,0.9-1.4,0.9-2.5c0-1.1-0.3-1.9-0.9-2.4c-0.6-0.5-1.5-0.8-2.6-0.8h-1.2L85.2,12.7L85.2,12.7z M85.2,22.3h2.1
	c1.5,0,2.7-0.3,3.4-0.9c0.8-0.6,1.1-1.5,1.1-2.5c0-1-0.4-1.8-1.1-2.4c-0.7-0.6-2-1-3.8-1h-1.7L85.2,22.3L85.2,22.3z"/>
<path class="st1" d="M98.3,5.4c0-0.6,0.2-1.1,0.6-1.5c0.4-0.4,0.9-0.6,1.5-0.6c0.6,0,1.1,0.2,1.5,0.6c0.4,0.4,0.6,0.9,0.6,1.5
	s-0.2,1.1-0.6,1.5c-0.4,0.4-0.9,0.6-1.5,0.6c-0.6,0-1.1-0.2-1.5-0.6C98.5,6.5,98.3,6,98.3,5.4z M102.1,11.3v14.2h-3.3V11.3H102.1z"
	/>
<path class="st1" d="M109.5,0.9v12c1.3-1.4,2.8-2,4.4-2c1.9,0,3.5,0.7,4.8,2.1c1.3,1.4,1.9,3.2,1.9,5.3c0,2.2-0.6,4-1.9,5.4
	c-1.3,1.4-2.9,2.1-4.8,2.1c-1.6,0-3.1-0.6-4.4-1.9v1.5h-3.3V0.9L109.5,0.9z M117.3,18.5c0-1.4-0.4-2.5-1.1-3.3
	c-0.7-0.9-1.7-1.3-2.8-1.3c-1.2,0-2.2,0.4-2.9,1.3c-0.7,0.8-1.1,1.9-1.1,3.3c0,1.4,0.4,2.5,1.1,3.3c0.7,0.8,1.7,1.3,2.9,1.3
	c1.1,0,2.1-0.4,2.8-1.3C116.9,20.9,117.3,19.8,117.3,18.5z"/>
<path class="st1" d="M127.3,0.9v24.5h-3.3V0.9H127.3z"/>
<path class="st1" d="M131,5.4c0-0.6,0.2-1.1,0.6-1.5c0.4-0.4,0.9-0.6,1.5-0.6c0.6,0,1.1,0.2,1.5,0.6c0.4,0.4,0.6,0.9,0.6,1.5
	S135,6.5,134.6,7c-0.4,0.4-0.9,0.6-1.5,0.6c-0.6,0-1.1-0.2-1.5-0.6C131.2,6.5,131,6,131,5.4z M134.7,11.3v14.2h-3.3V11.3H134.7z"/>
<path class="st1" d="M138.2,18.3c0-2,0.7-3.8,2.2-5.2s3.2-2.2,5.3-2.2c2.1,0,3.9,0.7,5.4,2.2c1.5,1.4,2.2,3.2,2.2,5.3
	c0,2.1-0.7,3.9-2.2,5.3c-1.5,1.4-3.3,2.1-5.4,2.1c-2.1,0-3.9-0.7-5.3-2.2C138.9,22.3,138.2,20.5,138.2,18.3z M141.6,18.4
	c0,1.4,0.4,2.5,1.1,3.4c0.8,0.8,1.8,1.2,3.1,1.2c1.3,0,2.3-0.4,3.1-1.2c0.8-0.8,1.1-1.9,1.1-3.3s-0.4-2.5-1.1-3.3
	c-0.8-0.8-1.8-1.2-3.1-1.2c-1.2,0-2.3,0.4-3,1.2C141.9,16,141.6,17,141.6,18.4z"/>
<path class="st1" d="M160.3,14.4v11.1h-3.3V14.4h-1.4v-3.1h1.4V6.1h3.3v5.2h2.5v3.1H160.3z"/>
<path class="st1" d="M178.2,19.2h-10.1c0.1,1.2,0.5,2.1,1.1,2.8c0.7,0.7,1.5,1,2.6,1c0.8,0,1.5-0.2,2-0.6c0.5-0.4,1.1-1.1,1.8-2.2
	l2.8,1.5c-0.4,0.7-0.9,1.3-1.4,1.9c-0.5,0.5-1,0.9-1.5,1.3c-0.5,0.3-1.1,0.6-1.8,0.7c-0.6,0.2-1.3,0.2-2.1,0.2c-2.1,0-3.8-0.7-5.1-2
	c-1.3-1.4-1.9-3.2-1.9-5.4c0-2.2,0.6-4,1.9-5.4c1.2-1.4,2.9-2,5-2c2.1,0,3.7,0.7,4.9,2c1.2,1.3,1.8,3.1,1.8,5.5L178.2,19.2z
	 M174.9,16.5c-0.5-1.7-1.6-2.6-3.3-2.6c-0.4,0-0.8,0.1-1.1,0.2c-0.3,0.1-0.7,0.3-1,0.5s-0.5,0.5-0.7,0.8c-0.2,0.3-0.4,0.7-0.5,1.1
	H174.9z"/>
<path class="st1" d="M192.8,11.9v4.3c-0.7-0.9-1.4-1.5-2-1.9c-0.6-0.3-1.3-0.5-2.1-0.5c-1.2,0-2.3,0.4-3.1,1.3s-1.2,1.9-1.2,3.2
	c0,1.3,0.4,2.4,1.2,3.3c0.8,0.9,1.8,1.3,3,1.3c0.8,0,1.5-0.2,2.1-0.5c0.6-0.3,1.3-1,2.1-1.9v4.3c-1.3,0.7-2.7,1-4,1
	c-2.2,0-4-0.7-5.5-2.1c-1.5-1.4-2.2-3.2-2.2-5.3s0.7-3.9,2.2-5.3c1.5-1.5,3.3-2.2,5.5-2.2C190.3,10.9,191.6,11.3,192.8,11.9z"/>
<path class="st1" d="M206.4,11.3h3.3v14.2h-3.3V24c-1.3,1.3-2.8,1.9-4.3,1.9c-2,0-3.6-0.7-4.9-2.1c-1.3-1.4-1.9-3.2-1.9-5.4
	c0-2.1,0.6-3.9,1.9-5.3c1.3-1.4,2.9-2.1,4.8-2.1c1.6,0,3.1,0.7,4.4,2L206.4,11.3L206.4,11.3z M198.7,18.4c0,1.4,0.4,2.5,1.1,3.3
	c0.7,0.9,1.7,1.3,2.8,1.3c1.2,0,2.2-0.4,2.9-1.2c0.7-0.9,1.1-2,1.1-3.3c0-1.3-0.4-2.4-1.1-3.3c-0.7-0.8-1.7-1.3-2.9-1.3
	c-1.1,0-2.1,0.4-2.8,1.3C199.1,16,198.7,17.1,198.7,18.4z"/>
<g>
	<path class="st1" d="M81.8,56.5v-24l16.4,17.1V34h3.4v23.8L85.2,40.7v15.7L81.8,56.5L81.8,56.5z"/>
	<path class="st1" d="M117.1,42.3h3.3v14.2h-3.3V55c-1.3,1.3-2.8,1.9-4.3,1.9c-2,0-3.6-0.7-4.9-2.1c-1.3-1.4-1.9-3.2-1.9-5.4
		c0-2.1,0.6-3.9,1.9-5.3c1.3-1.4,2.9-2.1,4.8-2.1c1.6,0,3.1,0.7,4.4,2L117.1,42.3L117.1,42.3z M109.3,49.3c0,1.4,0.4,2.5,1.1,3.3
		c0.7,0.9,1.7,1.3,2.8,1.3c1.2,0,2.2-0.4,2.9-1.2c0.7-0.9,1.1-2,1.1-3.3s-0.4-2.4-1.1-3.3c-0.7-0.8-1.7-1.3-2.9-1.3
		c-1.1,0-2.1,0.4-2.8,1.3C109.7,47,109.3,48.1,109.3,49.3z"/>
	<path class="st1" d="M135.5,42.9v4.3c-0.7-0.9-1.4-1.5-2-1.9c-0.6-0.3-1.3-0.5-2.1-0.5c-1.2,0-2.3,0.4-3.1,1.3
		c-0.8,0.9-1.2,1.9-1.2,3.2c0,1.3,0.4,2.4,1.2,3.3c0.8,0.9,1.8,1.3,3,1.3c0.8,0,1.5-0.2,2.1-0.5c0.6-0.3,1.3-1,2.1-1.9v4.3
		c-1.3,0.7-2.7,1-4,1c-2.2,0-4-0.7-5.5-2.1c-1.5-1.4-2.2-3.2-2.2-5.3c0-2.1,0.7-3.9,2.2-5.3c1.5-1.5,3.3-2.2,5.5-2.2
		C132.9,41.9,134.2,42.2,135.5,42.9z"/>
	<path class="st1" d="M138.2,36.4c0-0.6,0.2-1.1,0.6-1.5c0.4-0.4,0.9-0.6,1.5-0.6c0.6,0,1.1,0.2,1.5,0.6c0.4,0.4,0.6,0.9,0.6,1.5
		s-0.2,1.1-0.6,1.5c-0.4,0.4-0.9,0.6-1.5,0.6c-0.6,0-1.1-0.2-1.5-0.6C138.4,37.5,138.2,37,138.2,36.4z M141.9,42.3v14.2h-3.3V42.3
		H141.9z"/>
	<path class="st1" d="M145.4,49.3c0-2,0.7-3.8,2.2-5.2c1.5-1.4,3.2-2.2,5.4-2.2c2.1,0,3.9,0.7,5.4,2.2c1.5,1.4,2.2,3.2,2.2,5.3
		c0,2.1-0.7,3.9-2.2,5.3c-1.5,1.4-3.3,2.1-5.4,2.1c-2.1,0-3.9-0.7-5.3-2.2C146.1,53.3,145.4,51.4,145.4,49.3z M148.7,49.3
		c0,1.4,0.4,2.5,1.1,3.4c0.8,0.8,1.8,1.2,3.1,1.2c1.3,0,2.3-0.4,3.1-1.2c0.8-0.8,1.1-1.9,1.1-3.3s-0.4-2.5-1.1-3.3
		c-0.8-0.8-1.8-1.2-3.1-1.2c-1.2,0-2.3,0.4-3,1.2C149.1,46.9,148.7,48,148.7,49.3z"/>
	<path class="st1" d="M164,42.3h3.3v1.3c1.1-1.1,2.4-1.7,3.9-1.7c1.6,0,2.9,0.5,3.9,1.6c0.8,0.9,1.2,2.3,1.2,4.3v8.7h-3.3v-7.9
		c0-1.4-0.2-2.4-0.6-2.9c-0.4-0.5-1.1-0.8-2.1-0.8c-1.1,0-1.9,0.4-2.3,1.1c-0.4,0.7-0.7,1.9-0.7,3.7v6.8H164V42.3L164,42.3z"/>
	<path class="st1" d="M190.7,42.3h3.3v14.2h-3.3V55c-1.3,1.3-2.8,1.9-4.3,1.9c-2,0-3.6-0.7-4.9-2.1c-1.3-1.4-1.9-3.2-1.9-5.4
		c0-2.1,0.6-3.9,1.9-5.3c1.3-1.4,2.9-2.1,4.8-2.1c1.6,0,3.1,0.7,4.4,2L190.7,42.3L190.7,42.3z M183,49.3c0,1.4,0.4,2.5,1.1,3.3
		c0.7,0.9,1.7,1.3,2.8,1.3c1.2,0,2.2-0.4,2.9-1.2c0.7-0.9,1.1-2,1.1-3.3s-0.4-2.4-1.1-3.3c-0.7-0.8-1.7-1.3-2.9-1.3
		c-1.1,0-2.1,0.4-2.8,1.3C183.3,47,183,48.1,183,49.3z"/>
	<path class="st1" d="M201.4,31.9v24.5h-3.3V31.9H201.4z"/>
</g>
<g>
	<path class="st1" d="M216.6,31.3h2.1v15.6h-2.1V46c-0.8,0.8-1.7,1.2-2.8,1.2c-1.2,0-2.3-0.5-3.1-1.4c-0.8-0.9-1.2-2.1-1.2-3.4
		c0-1.3,0.4-2.5,1.2-3.4c0.8-0.9,1.8-1.4,3-1.4c1.1,0,2,0.4,2.8,1.3V31.3z M211.7,42.4c0,0.9,0.2,1.6,0.7,2.1
		c0.5,0.5,1.1,0.8,1.8,0.8c0.8,0,1.4-0.3,1.9-0.8c0.5-0.5,0.7-1.2,0.7-2.1c0-0.8-0.2-1.5-0.7-2.1c-0.5-0.5-1.1-0.8-1.9-0.8
		c-0.7,0-1.3,0.3-1.8,0.8C211.9,40.9,211.7,41.6,211.7,42.4z"/>
	<path class="st1" d="M229.5,42.9h-6.5c0.1,0.7,0.3,1.3,0.7,1.8c0.4,0.4,1,0.6,1.6,0.6c0.5,0,0.9-0.1,1.3-0.4
		c0.3-0.2,0.7-0.7,1.1-1.4l1.8,1c-0.3,0.5-0.6,0.9-0.9,1.2c-0.3,0.3-0.6,0.6-1,0.8c-0.3,0.2-0.7,0.4-1.1,0.5
		c-0.4,0.1-0.8,0.1-1.3,0.1c-1.3,0-2.4-0.4-3.2-1.3c-0.8-0.9-1.2-2-1.2-3.5c0-1.4,0.4-2.6,1.2-3.5c0.8-0.9,1.9-1.3,3.2-1.3
		c1.3,0,2.4,0.4,3.1,1.3c0.8,0.8,1.1,2,1.1,3.5L229.5,42.9z M227.4,41.2c-0.3-1.1-1-1.7-2.1-1.7c-0.3,0-0.5,0-0.7,0.1
		s-0.4,0.2-0.6,0.3c-0.2,0.1-0.3,0.3-0.5,0.5c-0.1,0.2-0.2,0.4-0.3,0.7H227.4z"/>
</g>
<g>
	<path class="st1" d="M98.4,66.2v4c-2-1.6-4-2.5-6.1-2.5c-2.3,0-4.2,0.8-5.8,2.5c-1.6,1.6-2.4,3.7-2.4,6c0,2.4,0.8,4.3,2.4,6
		s3.5,2.4,5.8,2.4c1.2,0,2.2-0.2,3-0.6c0.5-0.2,0.9-0.5,1.4-0.8c0.5-0.3,1-0.7,1.6-1.2v4.1c-1.9,1.1-4,1.6-6.1,1.6
		c-3.2,0-5.9-1.1-8.2-3.4c-2.3-2.3-3.4-5-3.4-8.2c0-2.9,0.9-5.4,2.8-7.6c2.3-2.7,5.3-4.1,9-4.1C94.6,64.6,96.5,65.1,98.4,66.2z"/>
	<path class="st1" d="M101.4,80.3c0-2,0.7-3.8,2.2-5.2s3.2-2.2,5.3-2.2c2.1,0,3.9,0.7,5.4,2.2c1.5,1.4,2.2,3.2,2.2,5.3
		c0,2.1-0.7,3.9-2.2,5.3c-1.5,1.4-3.3,2.1-5.4,2.1c-2.1,0-3.9-0.7-5.3-2.2C102.1,84.2,101.4,82.4,101.4,80.3z M104.7,80.3
		c0,1.4,0.4,2.5,1.1,3.4c0.8,0.8,1.8,1.2,3.1,1.2c1.3,0,2.3-0.4,3.1-1.2c0.8-0.8,1.1-1.9,1.1-3.3c0-1.4-0.4-2.5-1.1-3.3
		c-0.8-0.8-1.8-1.2-3.1-1.2c-1.2,0-2.3,0.4-3,1.2C105.1,77.9,104.7,79,104.7,80.3z"/>
	<path class="st1" d="M123.2,62.9v24.5H120V62.9H123.2z"/>
	<path class="st1" d="M126.7,80.3c0-2,0.7-3.8,2.2-5.2c1.5-1.4,3.2-2.2,5.3-2.2c2.1,0,3.9,0.7,5.4,2.2c1.5,1.4,2.2,3.2,2.2,5.3
		c0,2.1-0.7,3.9-2.2,5.3c-1.5,1.4-3.3,2.1-5.4,2.1c-2.1,0-3.9-0.7-5.3-2.2C127.4,84.2,126.7,82.4,126.7,80.3z M130,80.3
		c0,1.4,0.4,2.5,1.1,3.4c0.8,0.8,1.8,1.2,3.1,1.2c1.3,0,2.3-0.4,3.1-1.2c0.8-0.8,1.1-1.9,1.1-3.3c0-1.4-0.4-2.5-1.1-3.3
		c-0.8-0.8-1.8-1.2-3.1-1.2c-1.2,0-2.3,0.4-3,1.2C130.4,77.9,130,79,130,80.3z"/>
	<path class="st1" d="M145.3,73.3h3.3v1.3c0.6-0.7,1.2-1.1,1.6-1.3c0.5-0.2,1.1-0.4,1.8-0.4c1.6,0,2.9,0.7,3.8,2.1
		c1-1.4,2.4-2.1,4.2-2.1c3.2,0,4.8,1.9,4.8,5.8v8.8h-3.3v-7.9c0-1.4-0.2-2.3-0.5-2.9c-0.3-0.6-0.9-0.9-1.7-0.9c-0.9,0-1.6,0.3-2,1
		c-0.4,0.7-0.6,1.8-0.6,3.3v7.3h-3.3v-7.8c0-2.5-0.7-3.8-2.2-3.8c-0.9,0-1.6,0.3-2,1c-0.4,0.7-0.6,1.8-0.6,3.3v7.3h-3.3L145.3,73.3
		L145.3,73.3z"/>
	<path class="st1" d="M172.1,62.9v12c1.3-1.4,2.8-2,4.4-2c1.9,0,3.5,0.7,4.8,2.1c1.3,1.4,1.9,3.2,1.9,5.3c0,2.2-0.6,4-1.9,5.4
		c-1.3,1.4-2.9,2.1-4.8,2.1c-1.6,0-3.1-0.6-4.4-1.9v1.5h-3.3V62.9H172.1z M179.8,80.5c0-1.4-0.4-2.5-1.1-3.3
		c-0.7-0.9-1.7-1.3-2.8-1.3c-1.2,0-2.2,0.4-2.9,1.3c-0.7,0.8-1.1,1.9-1.1,3.3c0,1.4,0.4,2.5,1.1,3.3c0.7,0.8,1.7,1.3,2.9,1.3
		c1.1,0,2.1-0.4,2.8-1.3C179.5,82.8,179.8,81.7,179.8,80.5z"/>
	<path class="st1" d="M186.2,67.4c0-0.6,0.2-1.1,0.6-1.5c0.4-0.4,0.9-0.6,1.5-0.6c0.6,0,1.1,0.2,1.5,0.6c0.4,0.4,0.6,0.9,0.6,1.5
		c0,0.6-0.2,1.1-0.6,1.5c-0.4,0.4-0.9,0.6-1.5,0.6c-0.6,0-1.1-0.2-1.5-0.6C186.4,68.5,186.2,68,186.2,67.4z M189.9,73.3v14.2h-3.3
		V73.3H189.9z"/>
	<path class="st1" d="M204.5,73.3h3.3v14.2h-3.3V86c-1.3,1.3-2.8,1.9-4.3,1.9c-2,0-3.6-0.7-4.9-2.1c-1.3-1.4-1.9-3.2-1.9-5.4
		c0-2.1,0.6-3.9,1.9-5.3c1.3-1.4,2.9-2.1,4.8-2.1c1.6,0,3.1,0.7,4.4,2L204.5,73.3L204.5,73.3z M196.7,80.3c0,1.4,0.4,2.5,1.1,3.3
		c0.7,0.9,1.7,1.3,2.8,1.3c1.2,0,2.2-0.4,2.9-1.2c0.7-0.9,1.1-2,1.1-3.3c0-1.3-0.4-2.4-1.1-3.3c-0.7-0.8-1.7-1.3-2.9-1.3
		c-1.1,0-2.1,0.4-2.8,1.3C197.1,78,196.7,79,196.7,80.3z"/>
</g>
</svg>
